solid dash_sectionCurve copy
facet normal 0.0 0.0 1.0
  outer loop
    vertex 81.00000000000001 -99.61510892381614 1.9999999999999998
    vertex 0.0 -97.90974410857936 1.9999999999999998
    vertex 0.0 -99.61510892381614 1.9999999999999998
  endloop
endfacet
facet normal 0.0 0.0 1.0
  outer loop
    vertex 0.0 -97.90974410857936 1.9999999999999998
    vertex 81.00000000000001 -99.61510892381614 1.9999999999999998
    vertex 81.00000000000001 -97.90974410857936 1.9999999999999998
  endloop
endfacet
facet normal -1.0 0.0 0.0
  outer loop
    vertex 0.0 -16.849327161919604 1.9999999999999998
    vertex 0.0 -18.732556267315 0.0
    vertex 0.0 -18.732556267315 1.9999999999999998
  endloop
endfacet
facet normal -1.0 0.0 0.0
  outer loop
    vertex 0.0 -18.732556267315 0.0
    vertex 0.0 -16.849327161919604 1.9999999999999998
    vertex 0.0 -14.966098056524192 0.0
  endloop
endfacet
facet normal 0.0 -0.7609311635562351 0.6488326165729911
  outer loop
    vertex 81.00000000000001 -99.61510892381614 1.9999999999999998
    vertex 0.0 -101.32047373905291 0.0
    vertex 81.00000000000001 -101.32047373905291 0.0
  endloop
endfacet
facet normal 0.0 -0.7609311635562351 0.6488326165729911
  outer loop
    vertex 0.0 -101.32047373905291 0.0
    vertex 81.00000000000001 -99.61510892381614 1.9999999999999998
    vertex 0.0 -99.61510892381614 1.9999999999999998
  endloop
endfacet
facet normal 0.0 0.0 1.0
  outer loop
    vertex 0.0 -97.90974410857936 3.9999999999999996
    vertex 53.26152326007162 -81.44627810905867 3.9999999999999996
    vertex 0.0 -18.732556267315 3.9999999999999996
  endloop
endfacet
facet normal 0.0 0.0 1.0
  outer loop
    vertex 53.26152326007162 -81.44627810905867 3.9999999999999996
    vertex 0.0 -97.90974410857936 3.9999999999999996
    vertex 54.757129412829215 -83.14271029153863 3.9999999999999996
  endloop
endfacet
facet normal 0.0 0.0 1.0
  outer loop
    vertex 54.757129412829215 -83.14271029153863 3.9999999999999996
    vertex 0.0 -97.90974410857936 3.9999999999999996
    vertex 56.356304186567236 -84.74188506527665 3.9999999999999996
  endloop
endfacet
facet normal 0.0 0.0 1.0
  outer loop
    vertex 56.356304186567236 -84.74188506527665 3.9999999999999996
    vertex 0.0 -97.90974410857936 3.9999999999999996
    vertex 58.0527363690472 -86.23749121803426 3.9999999999999996
  endloop
endfacet
facet normal 0.0 0.0 1.0
  outer loop
    vertex 58.0527363690472 -86.23749121803426 3.9999999999999996
    vertex 0.0 -97.90974410857936 3.9999999999999996
    vertex 59.83973091747101 -87.62362627560395 3.9999999999999996
  endloop
endfacet
facet normal 0.0 0.0 1.0
  outer loop
    vertex 59.83973091747101 -87.62362627560395 3.9999999999999996
    vertex 0.0 -97.90974410857936 3.9999999999999996
    vertex 61.710235380756174 -88.89481979617838 3.9999999999999996
  endloop
endfacet
facet normal 0.0 0.0 1.0
  outer loop
    vertex 61.710235380756174 -88.89481979617838 3.9999999999999996
    vertex 0.0 -97.90974410857936 3.9999999999999996
    vertex 63.6568677323383 -90.04605495968494 3.9999999999999996
  endloop
endfacet
facet normal 0.0 0.0 1.0
  outer loop
    vertex 63.6568677323383 -90.04605495968494 3.9999999999999996
    vertex 0.0 -97.90974410857936 3.9999999999999996
    vertex 65.67194550365745 -91.07278836688255 3.9999999999999996
  endloop
endfacet
facet normal 0.0 0.0 1.0
  outer loop
    vertex 65.67194550365745 -91.07278836688255 3.9999999999999996
    vertex 0.0 -97.90974410857936 3.9999999999999996
    vertex 81.00000000000001 -97.90974410857936 3.9999999999999996
  endloop
endfacet
facet normal 0.0 0.0 1.0
  outer loop
    vertex 0.0 -18.732556267315 3.9999999999999996
    vertex 53.26152326007162 -81.44627810905867 3.9999999999999996
    vertex 51.8753882025019 -79.65928356063488 3.9999999999999996
  endloop
endfacet
facet normal 0.0 0.0 1.0
  outer loop
    vertex 0.0 -18.732556267315 3.9999999999999996
    vertex 51.8753882025019 -79.65928356063488 3.9999999999999996
    vertex 50.60419468192747 -77.78877909734972 3.9999999999999996
  endloop
endfacet
facet normal 0.0 0.0 1.0
  outer loop
    vertex 0.0 -18.732556267315 3.9999999999999996
    vertex 50.60419468192747 -77.78877909734972 3.9999999999999996
    vertex 49.45295951842093 -75.8421467457676 3.9999999999999996
  endloop
endfacet
facet normal 0.0 0.0 1.0
  outer loop
    vertex 0.0 -18.732556267315 3.9999999999999996
    vertex 49.45295951842093 -75.8421467457676 3.9999999999999996
    vertex 48.426226111223315 -73.82706897444845 3.9999999999999996
  endloop
endfacet
facet normal 0.0 0.0 1.0
  outer loop
    vertex 0.0 -18.732556267315 3.9999999999999996
    vertex 48.426226111223315 -73.82706897444845 3.9999999999999996
    vertex 47.52804650802297 -71.75149837475425 3.9999999999999996
  endloop
endfacet
facet normal 0.0 0.0 1.0
  outer loop
    vertex 0.0 -18.732556267315 3.9999999999999996
    vertex 47.52804650802297 -71.75149837475425 3.9999999999999996
    vertex 46.76196541337449 -69.62362627560395 3.9999999999999996
  endloop
endfacet
facet normal 0.0 0.0 1.0
  outer loop
    vertex 0.0 -18.732556267315 3.9999999999999996
    vertex 46.76196541337449 -69.62362627560395 3.9999999999999996
    vertex 46.13100619936929 -67.45185041604061 3.9999999999999996
  endloop
endfacet
facet normal 0.0 0.0 1.0
  outer loop
    vertex 0.0 -18.732556267315 3.9999999999999996
    vertex 46.13100619936929 -67.45185041604061 3.9999999999999996
    vertex 45.637658973767216 -65.24474180319191 3.9999999999999996
  endloop
endfacet
facet normal 0.0 0.0 1.0
  outer loop
    vertex 0.0 -18.732556267315 3.9999999999999996
    vertex 45.637658973767216 -65.24474180319191 3.9999999999999996
    vertex 45.2838707526788 -63.01101088642078 3.9999999999999996
  endloop
endfacet
facet normal 0.0 0.0 1.0
  outer loop
    vertex 0.0 -18.732556267315 3.9999999999999996
    vertex 45.2838707526788 -63.01101088642078 3.9999999999999996
    vertex 45.07103777658222 -60.759473181161106 3.9999999999999996
  endloop
endfacet
facet normal 0.0 0.0 1.0
  outer loop
    vertex 0.0 -18.732556267315 3.9999999999999996
    vertex 45.07103777658222 -60.759473181161106 3.9999999999999996
    vertex 45.0 -58.49901447810582 3.9999999999999996
  endloop
endfacet
facet normal 0.0 0.0 1.0
  outer loop
    vertex 65.67194550365745 -91.07278836688255 3.9999999999999996
    vertex 81.00000000000001 -97.90974410857936 3.9999999999999996
    vertex 67.74751610335166 -91.97096797008288 3.9999999999999996
  endloop
endfacet
facet normal 0.0 0.0 1.0
  outer loop
    vertex 67.74751610335166 -91.97096797008288 3.9999999999999996
    vertex 81.00000000000001 -97.90974410857936 3.9999999999999996
    vertex 69.87538820250197 -92.73704906473138 3.9999999999999996
  endloop
endfacet
facet normal 0.0 0.0 1.0
  outer loop
    vertex 69.87538820250197 -92.73704906473138 3.9999999999999996
    vertex 81.00000000000001 -97.90974410857936 3.9999999999999996
    vertex 72.0471640620653 -93.36800827873655 3.9999999999999996
  endloop
endfacet
facet normal 0.0 0.0 1.0
  outer loop
    vertex 72.0471640620653 -93.36800827873655 3.9999999999999996
    vertex 81.00000000000001 -97.90974410857936 3.9999999999999996
    vertex 74.25427267491399 -93.86135550433863 3.9999999999999996
  endloop
endfacet
facet normal 0.0 0.0 1.0
  outer loop
    vertex 74.25427267491399 -93.86135550433863 3.9999999999999996
    vertex 81.00000000000001 -97.90974410857936 3.9999999999999996
    vertex 76.48800359168513 -94.21514372542703 3.9999999999999996
  endloop
endfacet
facet normal 0.0 0.0 1.0
  outer loop
    vertex 76.48800359168513 -94.21514372542703 3.9999999999999996
    vertex 81.00000000000001 -97.90974410857936 3.9999999999999996
    vertex 78.73954129694481 -94.4279767015236 3.9999999999999996
  endloop
endfacet
facet normal 0.0 0.0 1.0
  outer loop
    vertex 78.73954129694481 -94.4279767015236 3.9999999999999996
    vertex 81.00000000000001 -97.90974410857936 3.9999999999999996
    vertex 81.00000000000001 -94.4990144781058 3.9999999999999996
  endloop
endfacet
facet normal 0.0 0.0 1.0
  outer loop
    vertex 0.0 -18.732556267315 3.9999999999999996
    vertex 65.67194550365741 -25.925240589329093 3.9999999999999996
    vertex 81.00000000000001 -18.732556267315 3.9999999999999996
  endloop
endfacet
facet normal 0.0 0.0 1.0
  outer loop
    vertex 65.67194550365741 -25.925240589329093 3.9999999999999996
    vertex 0.0 -18.732556267315 3.9999999999999996
    vertex 63.65686773233827 -26.951973996526707 3.9999999999999996
  endloop
endfacet
facet normal 0.0 0.0 1.0
  outer loop
    vertex 63.65686773233827 -26.951973996526707 3.9999999999999996
    vertex 0.0 -18.732556267315 3.9999999999999996
    vertex 61.71023538075614 -28.103209160033252 3.9999999999999996
  endloop
endfacet
facet normal 0.0 0.0 1.0
  outer loop
    vertex 61.71023538075614 -28.103209160033252 3.9999999999999996
    vertex 0.0 -18.732556267315 3.9999999999999996
    vertex 59.83973091747099 -29.374402680607698 3.9999999999999996
  endloop
endfacet
facet normal 0.0 0.0 1.0
  outer loop
    vertex 59.83973091747099 -29.374402680607698 3.9999999999999996
    vertex 0.0 -18.732556267315 3.9999999999999996
    vertex 58.052736369047196 -30.760537738177376 3.9999999999999996
  endloop
endfacet
facet normal 0.0 0.0 1.0
  outer loop
    vertex 58.052736369047196 -30.760537738177376 3.9999999999999996
    vertex 0.0 -18.732556267315 3.9999999999999996
    vertex 56.35630418656723 -32.256143890934986 3.9999999999999996
  endloop
endfacet
facet normal 0.0 0.0 1.0
  outer loop
    vertex 56.35630418656723 -32.256143890934986 3.9999999999999996
    vertex 0.0 -18.732556267315 3.9999999999999996
    vertex 54.7571294128292 -33.85531866467299 3.9999999999999996
  endloop
endfacet
facet normal 0.0 0.0 1.0
  outer loop
    vertex 54.7571294128292 -33.85531866467299 3.9999999999999996
    vertex 0.0 -18.732556267315 3.9999999999999996
    vertex 53.261523260071606 -35.55175084715296 3.9999999999999996
  endloop
endfacet
facet normal 0.0 0.0 1.0
  outer loop
    vertex 53.261523260071606 -35.55175084715296 3.9999999999999996
    vertex 0.0 -18.732556267315 3.9999999999999996
    vertex 51.87538820250192 -37.33874539557676 3.9999999999999996
  endloop
endfacet
facet normal 0.0 0.0 1.0
  outer loop
    vertex 51.87538820250192 -37.33874539557676 3.9999999999999996
    vertex 0.0 -18.732556267315 3.9999999999999996
    vertex 50.604194681927474 -39.20924985886192 3.9999999999999996
  endloop
endfacet
facet normal 0.0 0.0 1.0
  outer loop
    vertex 50.604194681927474 -39.20924985886192 3.9999999999999996
    vertex 0.0 -18.732556267315 3.9999999999999996
    vertex 49.45295951842092 -41.15588221044405 3.9999999999999996
  endloop
endfacet
facet normal 0.0 0.0 1.0
  outer loop
    vertex 49.45295951842092 -41.15588221044405 3.9999999999999996
    vertex 0.0 -18.732556267315 3.9999999999999996
    vertex 48.4262261112233 -43.17095998176318 3.9999999999999996
  endloop
endfacet
facet normal 0.0 0.0 1.0
  outer loop
    vertex 48.4262261112233 -43.17095998176318 3.9999999999999996
    vertex 0.0 -18.732556267315 3.9999999999999996
    vertex 47.52804650802295 -45.24653058145739 3.9999999999999996
  endloop
endfacet
facet normal 0.0 0.0 1.0
  outer loop
    vertex 47.52804650802295 -45.24653058145739 3.9999999999999996
    vertex 0.0 -18.732556267315 3.9999999999999996
    vertex 46.76196541337447 -47.374402680607695 3.9999999999999996
  endloop
endfacet
facet normal 0.0 0.0 1.0
  outer loop
    vertex 46.76196541337447 -47.374402680607695 3.9999999999999996
    vertex 0.0 -18.732556267315 3.9999999999999996
    vertex 46.13100619936928 -49.546178540171034 3.9999999999999996
  endloop
endfacet
facet normal 0.0 0.0 1.0
  outer loop
    vertex 46.13100619936928 -49.546178540171034 3.9999999999999996
    vertex 0.0 -18.732556267315 3.9999999999999996
    vertex 45.63765897376721 -51.75328715301973 3.9999999999999996
  endloop
endfacet
facet normal 0.0 0.0 1.0
  outer loop
    vertex 45.63765897376721 -51.75328715301973 3.9999999999999996
    vertex 0.0 -18.732556267315 3.9999999999999996
    vertex 45.283870752678794 -53.987018069790864 3.9999999999999996
  endloop
endfacet
facet normal 0.0 0.0 1.0
  outer loop
    vertex 45.283870752678794 -53.987018069790864 3.9999999999999996
    vertex 0.0 -18.732556267315 3.9999999999999996
    vertex 45.07103777658222 -56.238555775050536 3.9999999999999996
  endloop
endfacet
facet normal 0.0 0.0 1.0
  outer loop
    vertex 45.07103777658222 -56.238555775050536 3.9999999999999996
    vertex 0.0 -18.732556267315 3.9999999999999996
    vertex 45.0 -58.49901447810582 3.9999999999999996
  endloop
endfacet
facet normal 0.0 0.0 1.0
  outer loop
    vertex 81.00000000000001 -18.732556267315 3.9999999999999996
    vertex 65.67194550365741 -25.925240589329093 3.9999999999999996
    vertex 67.74751610335161 -25.02706098612875 3.9999999999999996
  endloop
endfacet
facet normal 0.0 0.0 1.0
  outer loop
    vertex 81.00000000000001 -18.732556267315 3.9999999999999996
    vertex 67.74751610335161 -25.02706098612875 3.9999999999999996
    vertex 69.87538820250191 -24.26097989148028 3.9999999999999996
  endloop
endfacet
facet normal 0.0 0.0 1.0
  outer loop
    vertex 81.00000000000001 -18.732556267315 3.9999999999999996
    vertex 69.87538820250191 -24.26097989148028 3.9999999999999996
    vertex 72.04716406206525 -23.630020677475088 3.9999999999999996
  endloop
endfacet
facet normal 0.0 0.0 1.0
  outer loop
    vertex 81.00000000000001 -18.732556267315 3.9999999999999996
    vertex 72.04716406206525 -23.630020677475088 3.9999999999999996
    vertex 74.25427267491393 -23.136673451873012 3.9999999999999996
  endloop
endfacet
facet normal 0.0 0.0 1.0
  outer loop
    vertex 81.00000000000001 -18.732556267315 3.9999999999999996
    vertex 74.25427267491393 -23.136673451873012 3.9999999999999996
    vertex 76.48800359168506 -22.782885230784597 3.9999999999999996
  endloop
endfacet
facet normal 0.0 0.0 1.0
  outer loop
    vertex 81.00000000000001 -18.732556267315 3.9999999999999996
    vertex 76.48800359168506 -22.782885230784597 3.9999999999999996
    vertex 78.73954129694474 -22.570052254688022 3.9999999999999996
  endloop
endfacet
facet normal 0.0 0.0 1.0
  outer loop
    vertex 81.00000000000001 -18.732556267315 3.9999999999999996
    vertex 78.73954129694474 -22.570052254688022 3.9999999999999996
    vertex 81.00000000000001 -22.49901447810581 3.9999999999999996
  endloop
endfacet
facet normal 1.0 0.0 0.0
  outer loop
    vertex 81.00000000000001 -14.966098056524192 0.0
    vertex 81.00000000000001 -22.49901447810581 3.9999999999999996
    vertex 81.00000000000001 -22.49901447810581 0.0
  endloop
endfacet
facet normal 1.0 0.0 0.0
  outer loop
    vertex 81.00000000000001 -22.49901447810581 3.9999999999999996
    vertex 81.00000000000001 -14.966098056524192 0.0
    vertex 81.00000000000001 -18.732556267315 1.9999999999999998
  endloop
endfacet
facet normal 1.0 0.0 0.0
  outer loop
    vertex 81.00000000000001 -18.732556267315 1.9999999999999998
    vertex 81.00000000000001 -14.966098056524192 0.0
    vertex 81.00000000000001 -16.849327161919604 1.9999999999999998
  endloop
endfacet
facet normal 1.0 0.0 0.0
  outer loop
    vertex 81.00000000000001 -18.732556267315 3.9999999999999996
    vertex 81.00000000000001 -22.49901447810581 3.9999999999999996
    vertex 81.00000000000001 -18.732556267315 1.9999999999999998
  endloop
endfacet
facet normal -1.0 0.0 0.0
  outer loop
    vertex 0.0 -18.732556267315 3.9999999999999996
    vertex 0.0 -97.90974410857936 1.9999999999999998
    vertex 0.0 -97.90974410857936 3.9999999999999996
  endloop
endfacet
facet normal -1.0 0.0 0.0
  outer loop
    vertex 0.0 -99.61510892381614 1.9999999999999998
    vertex 0.0 -18.732556267315 0.0
    vertex 0.0 -101.32047373905291 0.0
  endloop
endfacet
facet normal -1.0 0.0 0.0
  outer loop
    vertex 0.0 -18.732556267315 0.0
    vertex 0.0 -99.61510892381614 1.9999999999999998
    vertex 0.0 -97.90974410857936 1.9999999999999998
  endloop
endfacet
facet normal -1.0 0.0 0.0
  outer loop
    vertex 0.0 -18.732556267315 0.0
    vertex 0.0 -97.90974410857936 1.9999999999999998
    vertex 0.0 -18.732556267315 3.9999999999999996
  endloop
endfacet
facet normal -1.0 0.0 0.0
  outer loop
    vertex 0.0 -18.732556267315 0.0
    vertex 0.0 -18.732556267315 3.9999999999999996
    vertex 0.0 -18.732556267315 1.9999999999999998
  endloop
endfacet
facet normal 0.0 1.0 0.0
  outer loop
    vertex 0.0 -18.732556267315 3.9999999999999996
    vertex 81.00000000000001 -18.732556267315 1.9999999999999998
    vertex 0.0 -18.732556267315 1.9999999999999998
  endloop
endfacet
facet normal 0.0 1.0 0.0
  outer loop
    vertex 81.00000000000001 -18.732556267315 1.9999999999999998
    vertex 0.0 -18.732556267315 3.9999999999999996
    vertex 81.00000000000001 -18.732556267315 3.9999999999999996
  endloop
endfacet
facet normal 0.0 -1.0 0.0
  outer loop
    vertex 81.00000000000001 -97.90974410857936 3.9999999999999996
    vertex 0.0 -97.90974410857936 1.9999999999999998
    vertex 81.00000000000001 -97.90974410857936 1.9999999999999998
  endloop
endfacet
facet normal 0.0 -1.0 0.0
  outer loop
    vertex 0.0 -97.90974410857936 1.9999999999999998
    vertex 81.00000000000001 -97.90974410857936 3.9999999999999996
    vertex 0.0 -97.90974410857936 3.9999999999999996
  endloop
endfacet
facet normal 0.8607420270039431 -0.5090414157503722 0.0
  outer loop
    vertex 50.604194681927474 -39.20924985886192 0.0
    vertex 49.45295951842092 -41.15588221044405 3.9999999999999996
    vertex 49.45295951842092 -41.15588221044405 0.0
  endloop
endfacet
facet normal 0.8607420270039431 -0.5090414157503722 0.0
  outer loop
    vertex 49.45295951842092 -41.15588221044405 3.9999999999999996
    vertex 50.604194681927474 -39.20924985886192 0.0
    vertex 50.604194681927474 -39.20924985886192 3.9999999999999996
  endloop
endfacet
facet normal 0.8607420270039458 0.5090414157503678 0.0
  outer loop
    vertex 49.45295951842093 -75.8421467457676 0.0
    vertex 50.60419468192747 -77.78877909734972 3.9999999999999996
    vertex 50.60419468192747 -77.78877909734972 0.0
  endloop
endfacet
facet normal 0.8607420270039458 0.5090414157503678 0.0
  outer loop
    vertex 50.60419468192747 -77.78877909734972 3.9999999999999996
    vertex 49.45295951842093 -75.8421467457676 0.0
    vertex 49.45295951842093 -75.8421467457676 3.9999999999999996
  endloop
endfacet
facet normal 0.8270805742745622 0.5620833778521299 0.0
  outer loop
    vertex 50.60419468192747 -77.78877909734972 0.0
    vertex 51.8753882025019 -79.65928356063488 3.9999999999999996
    vertex 51.8753882025019 -79.65928356063488 0.0
  endloop
endfacet
facet normal 0.8270805742745622 0.5620833778521299 0.0
  outer loop
    vertex 51.8753882025019 -79.65928356063488 3.9999999999999996
    vertex 50.60419468192747 -77.78877909734972 0.0
    vertex 50.60419468192747 -77.78877909734972 3.9999999999999996
  endloop
endfacet
facet normal 0.33873792024529586 0.9408807689542239 0.0
  outer loop
    vertex 67.74751610335166 -91.97096797008288 3.9999999999999996
    vertex 69.87538820250197 -92.73704906473138 0.0
    vertex 67.74751610335166 -91.97096797008288 0.0
  endloop
endfacet
facet normal 0.33873792024529586 0.9408807689542239 0.0
  outer loop
    vertex 69.87538820250197 -92.73704906473138 0.0
    vertex 67.74751610335166 -91.97096797008288 3.9999999999999996
    vertex 69.87538820250197 -92.73704906473138 3.9999999999999996
  endloop
endfacet
facet normal 0.9759167619387478 -0.2181432413965408 0.0
  outer loop
    vertex 46.13100619936928 -49.546178540171034 0.0
    vertex 45.63765897376721 -51.75328715301973 3.9999999999999996
    vertex 45.63765897376721 -51.75328715301973 0.0
  endloop
endfacet
facet normal 0.9759167619387478 -0.2181432413965408 0.0
  outer loop
    vertex 45.63765897376721 -51.75328715301973 3.9999999999999996
    vertex 46.13100619936928 -49.546178540171034 0.0
    vertex 46.13100619936928 -49.546178540171034 3.9999999999999996
  endloop
endfacet
facet normal 0.9602936856769425 0.27899110603923166 0.0
  outer loop
    vertex 46.13100619936929 -67.45185041604061 0.0
    vertex 46.76196541337449 -69.62362627560395 3.9999999999999996
    vertex 46.76196541337449 -69.62362627560395 0.0
  endloop
endfacet
facet normal 0.9602936856769425 0.27899110603923166 0.0
  outer loop
    vertex 46.76196541337449 -69.62362627560395 3.9999999999999996
    vertex 46.13100619936929 -67.45185041604061 0.0
    vertex 46.13100619936929 -67.45185041604061 3.9999999999999996
  endloop
endfacet
facet normal 0.8910065241883667 -0.4539904997395494 0.0
  outer loop
    vertex 49.45295951842092 -41.15588221044405 0.0
    vertex 48.4262261112233 -43.17095998176318 3.9999999999999996
    vertex 48.4262261112233 -43.17095998176318 0.0
  endloop
endfacet
facet normal 0.8910065241883667 -0.4539904997395494 0.0
  outer loop
    vertex 48.4262261112233 -43.17095998176318 3.9999999999999996
    vertex 49.45295951842092 -41.15588221044405 0.0
    vertex 49.45295951842092 -41.15588221044405 3.9999999999999996
  endloop
endfacet
facet normal 0.397147890634779 -0.9177546256839818 0.0
  outer loop
    vertex 67.74751610335161 -25.02706098612875 3.9999999999999996
    vertex 65.67194550365741 -25.925240589329093 0.0
    vertex 67.74751610335161 -25.02706098612875 0.0
  endloop
endfacet
facet normal 0.397147890634779 -0.9177546256839818 0.0
  outer loop
    vertex 65.67194550365741 -25.925240589329093 0.0
    vertex 67.74751610335161 -25.02706098612875 3.9999999999999996
    vertex 65.67194550365741 -25.925240589329093 3.9999999999999996
  endloop
endfacet
facet normal 0.8910065241883677 0.4539904997395474 0.0
  outer loop
    vertex 48.426226111223315 -73.82706897444845 0.0
    vertex 49.45295951842093 -75.8421467457676 3.9999999999999996
    vertex 49.45295951842093 -75.8421467457676 0.0
  endloop
endfacet
facet normal 0.8910065241883677 0.4539904997395474 0.0
  outer loop
    vertex 49.45295951842093 -75.8421467457676 3.9999999999999996
    vertex 48.426226111223315 -73.82706897444845 0.0
    vertex 48.426226111223315 -73.82706897444845 3.9999999999999996
  endloop
endfacet
facet normal 0.2789911060392247 0.9602936856769444 0.0
  outer loop
    vertex 69.87538820250197 -92.73704906473138 3.9999999999999996
    vertex 72.0471640620653 -93.36800827873655 0.0
    vertex 69.87538820250197 -92.73704906473138 0.0
  endloop
endfacet
facet normal 0.2789911060392247 0.9602936856769444 0.0
  outer loop
    vertex 72.0471640620653 -93.36800827873655 0.0
    vertex 69.87538820250197 -92.73704906473138 3.9999999999999996
    vertex 72.0471640620653 -93.36800827873655 3.9999999999999996
  endloop
endfacet
facet normal 0.6613118653236535 0.750111069630458 0.0
  outer loop
    vertex 56.356304186567236 -84.74188506527665 3.9999999999999996
    vertex 58.0527363690472 -86.23749121803426 0.0
    vertex 56.356304186567236 -84.74188506527665 0.0
  endloop
endfacet
facet normal 0.6613118653236535 0.750111069630458 0.0
  outer loop
    vertex 58.0527363690472 -86.23749121803426 0.0
    vertex 56.356304186567236 -84.74188506527665 3.9999999999999996
    vertex 58.0527363690472 -86.23749121803426 3.9999999999999996
  endloop
endfacet
facet normal 0.5620833778521324 -0.8270805742745607 0.0
  outer loop
    vertex 61.71023538075614 -28.103209160033252 3.9999999999999996
    vertex 59.83973091747099 -29.374402680607698 0.0
    vertex 61.71023538075614 -28.103209160033252 0.0
  endloop
endfacet
facet normal 0.5620833778521324 -0.8270805742745607 0.0
  outer loop
    vertex 59.83973091747099 -29.374402680607698 0.0
    vertex 61.71023538075614 -28.103209160033252 3.9999999999999996
    vertex 59.83973091747099 -29.374402680607698 3.9999999999999996
  endloop
endfacet
facet normal 0.5090414157503715 -0.8607420270039435 0.0
  outer loop
    vertex 63.65686773233827 -26.951973996526707 3.9999999999999996
    vertex 61.71023538075614 -28.103209160033252 0.0
    vertex 63.65686773233827 -26.951973996526707 0.0
  endloop
endfacet
facet normal 0.5090414157503715 -0.8607420270039435 0.0
  outer loop
    vertex 61.71023538075614 -28.103209160033252 0.0
    vertex 63.65686773233827 -26.951973996526707 3.9999999999999996
    vertex 61.71023538075614 -28.103209160033252 3.9999999999999996
  endloop
endfacet
facet normal 0.8270805742745604 -0.5620833778521329 0.0
  outer loop
    vertex 51.87538820250192 -37.33874539557676 0.0
    vertex 50.604194681927474 -39.20924985886192 3.9999999999999996
    vertex 50.604194681927474 -39.20924985886192 0.0
  endloop
endfacet
facet normal 0.8270805742745604 -0.5620833778521329 0.0
  outer loop
    vertex 50.604194681927474 -39.20924985886192 3.9999999999999996
    vertex 51.87538820250192 -37.33874539557676 0.0
    vertex 51.87538820250192 -37.33874539557676 3.9999999999999996
  endloop
endfacet
facet normal 0.0 0.0 1.0
  outer loop
    vertex 81.00000000000001 -18.732556267315 1.9999999999999998
    vertex 0.0 -16.849327161919604 1.9999999999999998
    vertex 0.0 -18.732556267315 1.9999999999999998
  endloop
endfacet
facet normal 0.0 0.0 1.0
  outer loop
    vertex 0.0 -16.849327161919604 1.9999999999999998
    vertex 81.00000000000001 -18.732556267315 1.9999999999999998
    vertex 81.00000000000001 -16.849327161919604 1.9999999999999998
  endloop
endfacet
facet normal 0.9759167619387472 0.21814324139654317 0.0
  outer loop
    vertex 45.637658973767216 -65.24474180319191 0.0
    vertex 46.13100619936929 -67.45185041604061 3.9999999999999996
    vertex 46.13100619936929 -67.45185041604061 0.0
  endloop
endfacet
facet normal 0.9759167619387472 0.21814324139654317 0.0
  outer loop
    vertex 46.13100619936929 -67.45185041604061 3.9999999999999996
    vertex 45.637658973767216 -65.24474180319191 0.0
    vertex 45.637658973767216 -65.24474180319191 3.9999999999999996
  endloop
endfacet
facet normal 0.33873792024529087 -0.9408807689542258 0.0
  outer loop
    vertex 69.87538820250191 -24.26097989148028 3.9999999999999996
    vertex 67.74751610335161 -25.02706098612875 0.0
    vertex 69.87538820250191 -24.26097989148028 0.0
  endloop
endfacet
facet normal 0.33873792024529087 -0.9408807689542258 0.0
  outer loop
    vertex 67.74751610335161 -25.02706098612875 0.0
    vertex 69.87538820250191 -24.26097989148028 3.9999999999999996
    vertex 67.74751610335161 -25.02706098612875 3.9999999999999996
  endloop
endfacet
facet normal 0.4539904997395454 -0.8910065241883687 0.0
  outer loop
    vertex 65.67194550365741 -25.925240589329093 3.9999999999999996
    vertex 63.65686773233827 -26.951973996526707 0.0
    vertex 65.67194550365741 -25.925240589329093 0.0
  endloop
endfacet
facet normal 0.4539904997395454 -0.8910065241883687 0.0
  outer loop
    vertex 63.65686773233827 -26.951973996526707 0.0
    vertex 65.67194550365741 -25.925240589329093 3.9999999999999996
    vertex 63.65686773233827 -26.951973996526707 3.9999999999999996
  endloop
endfacet
facet normal 0.3971478906347759 0.9177546256839832 0.0
  outer loop
    vertex 65.67194550365745 -91.07278836688255 3.9999999999999996
    vertex 67.74751610335166 -91.97096797008288 0.0
    vertex 65.67194550365745 -91.07278836688255 0.0
  endloop
endfacet
facet normal 0.3971478906347759 0.9177546256839832 0.0
  outer loop
    vertex 67.74751610335166 -91.97096797008288 0.0
    vertex 65.67194550365745 -91.07278836688255 3.9999999999999996
    vertex 67.74751610335166 -91.97096797008288 3.9999999999999996
  endloop
endfacet
facet normal 0.9995065603657316 -0.031410759078127556 0.0
  outer loop
    vertex 45.07103777658222 -56.238555775050536 0.0
    vertex 45.0 -58.49901447810582 3.9999999999999996
    vertex 45.0 -58.49901447810582 0.0
  endloop
endfacet
facet normal 0.9995065603657316 -0.031410759078127556 0.0
  outer loop
    vertex 45.0 -58.49901447810582 3.9999999999999996
    vertex 45.07103777658222 -56.238555775050536 0.0
    vertex 45.07103777658222 -56.238555775050536 3.9999999999999996
  endloop
endfacet
facet normal 0.7901550123756863 0.6129070536529816 0.0
  outer loop
    vertex 51.8753882025019 -79.65928356063488 0.0
    vertex 53.26152326007162 -81.44627810905867 3.9999999999999996
    vertex 53.26152326007162 -81.44627810905867 0.0
  endloop
endfacet
facet normal 0.7901550123756863 0.6129070536529816 0.0
  outer loop
    vertex 53.26152326007162 -81.44627810905867 3.9999999999999996
    vertex 51.8753882025019 -79.65928356063488 0.0
    vertex 51.8753882025019 -79.65928356063488 3.9999999999999996
  endloop
endfacet
facet normal 0.0 0.0 -1.0
  outer loop
    vertex 81.00000000000001 -14.966098056524192 0.0
    vertex 0.0 -18.732556267315 0.0
    vertex 0.0 -14.966098056524192 0.0
  endloop
endfacet
facet normal 0.0 0.0 -1.0
  outer loop
    vertex 0.0 -18.732556267315 0.0
    vertex 81.00000000000001 -14.966098056524192 0.0
    vertex 59.83973091747099 -29.374402680607698 0.0
  endloop
endfacet
facet normal 0.0 0.0 -1.0
  outer loop
    vertex 0.0 -18.732556267315 0.0
    vertex 59.83973091747099 -29.374402680607698 0.0
    vertex 58.052736369047196 -30.760537738177376 0.0
  endloop
endfacet
facet normal 0.0 0.0 -1.0
  outer loop
    vertex 0.0 -18.732556267315 0.0
    vertex 58.052736369047196 -30.760537738177376 0.0
    vertex 56.35630418656723 -32.256143890934986 0.0
  endloop
endfacet
facet normal 0.0 0.0 -1.0
  outer loop
    vertex 0.0 -18.732556267315 0.0
    vertex 56.35630418656723 -32.256143890934986 0.0
    vertex 54.7571294128292 -33.85531866467299 0.0
  endloop
endfacet
facet normal 0.0 0.0 -1.0
  outer loop
    vertex 0.0 -18.732556267315 0.0
    vertex 54.7571294128292 -33.85531866467299 0.0
    vertex 53.261523260071606 -35.55175084715296 0.0
  endloop
endfacet
facet normal 0.0 0.0 -1.0
  outer loop
    vertex 0.0 -18.732556267315 0.0
    vertex 53.261523260071606 -35.55175084715296 0.0
    vertex 0.0 -101.32047373905291 0.0
  endloop
endfacet
facet normal 0.0 0.0 -1.0
  outer loop
    vertex 0.0 -101.32047373905291 0.0
    vertex 53.261523260071606 -35.55175084715296 0.0
    vertex 51.87538820250192 -37.33874539557676 0.0
  endloop
endfacet
facet normal 0.0 0.0 -1.0
  outer loop
    vertex 0.0 -101.32047373905291 0.0
    vertex 51.87538820250192 -37.33874539557676 0.0
    vertex 50.604194681927474 -39.20924985886192 0.0
  endloop
endfacet
facet normal 0.0 0.0 -1.0
  outer loop
    vertex 0.0 -101.32047373905291 0.0
    vertex 50.604194681927474 -39.20924985886192 0.0
    vertex 49.45295951842092 -41.15588221044405 0.0
  endloop
endfacet
facet normal 0.0 0.0 -1.0
  outer loop
    vertex 0.0 -101.32047373905291 0.0
    vertex 49.45295951842092 -41.15588221044405 0.0
    vertex 48.4262261112233 -43.17095998176318 0.0
  endloop
endfacet
facet normal 0.0 0.0 -1.0
  outer loop
    vertex 0.0 -101.32047373905291 0.0
    vertex 48.4262261112233 -43.17095998176318 0.0
    vertex 47.52804650802295 -45.24653058145739 0.0
  endloop
endfacet
facet normal 0.0 0.0 -1.0
  outer loop
    vertex 0.0 -101.32047373905291 0.0
    vertex 47.52804650802295 -45.24653058145739 0.0
    vertex 46.76196541337447 -47.374402680607695 0.0
  endloop
endfacet
facet normal 0.0 0.0 -1.0
  outer loop
    vertex 0.0 -101.32047373905291 0.0
    vertex 46.76196541337447 -47.374402680607695 0.0
    vertex 46.13100619936928 -49.546178540171034 0.0
  endloop
endfacet
facet normal 0.0 0.0 -1.0
  outer loop
    vertex 0.0 -101.32047373905291 0.0
    vertex 46.13100619936928 -49.546178540171034 0.0
    vertex 45.63765897376721 -51.75328715301973 0.0
  endloop
endfacet
facet normal 0.0 0.0 -1.0
  outer loop
    vertex 0.0 -101.32047373905291 0.0
    vertex 45.63765897376721 -51.75328715301973 0.0
    vertex 45.283870752678794 -53.987018069790864 0.0
  endloop
endfacet
facet normal 0.0 0.0 -1.0
  outer loop
    vertex 0.0 -101.32047373905291 0.0
    vertex 45.283870752678794 -53.987018069790864 0.0
    vertex 45.07103777658222 -56.238555775050536 0.0
  endloop
endfacet
facet normal 0.0 0.0 -1.0
  outer loop
    vertex 0.0 -101.32047373905291 0.0
    vertex 45.07103777658222 -56.238555775050536 0.0
    vertex 45.0 -58.49901447810582 0.0
  endloop
endfacet
facet normal 0.0 0.0 -1.0
  outer loop
    vertex 59.83973091747099 -29.374402680607698 0.0
    vertex 81.00000000000001 -14.966098056524192 0.0
    vertex 61.71023538075614 -28.103209160033252 0.0
  endloop
endfacet
facet normal 0.0 0.0 -1.0
  outer loop
    vertex 61.71023538075614 -28.103209160033252 0.0
    vertex 81.00000000000001 -14.966098056524192 0.0
    vertex 63.65686773233827 -26.951973996526707 0.0
  endloop
endfacet
facet normal 0.0 0.0 -1.0
  outer loop
    vertex 63.65686773233827 -26.951973996526707 0.0
    vertex 81.00000000000001 -14.966098056524192 0.0
    vertex 65.67194550365741 -25.925240589329093 0.0
  endloop
endfacet
facet normal 0.0 0.0 -1.0
  outer loop
    vertex 65.67194550365741 -25.925240589329093 0.0
    vertex 81.00000000000001 -14.966098056524192 0.0
    vertex 67.74751610335161 -25.02706098612875 0.0
  endloop
endfacet
facet normal 0.0 0.0 -1.0
  outer loop
    vertex 67.74751610335161 -25.02706098612875 0.0
    vertex 81.00000000000001 -14.966098056524192 0.0
    vertex 69.87538820250191 -24.26097989148028 0.0
  endloop
endfacet
facet normal 0.0 0.0 -1.0
  outer loop
    vertex 69.87538820250191 -24.26097989148028 0.0
    vertex 81.00000000000001 -14.966098056524192 0.0
    vertex 72.04716406206525 -23.630020677475088 0.0
  endloop
endfacet
facet normal 0.0 0.0 -1.0
  outer loop
    vertex 72.04716406206525 -23.630020677475088 0.0
    vertex 81.00000000000001 -14.966098056524192 0.0
    vertex 74.25427267491393 -23.136673451873012 0.0
  endloop
endfacet
facet normal 0.0 0.0 -1.0
  outer loop
    vertex 74.25427267491393 -23.136673451873012 0.0
    vertex 81.00000000000001 -14.966098056524192 0.0
    vertex 76.48800359168506 -22.782885230784597 0.0
  endloop
endfacet
facet normal 0.0 0.0 -1.0
  outer loop
    vertex 76.48800359168506 -22.782885230784597 0.0
    vertex 81.00000000000001 -14.966098056524192 0.0
    vertex 78.73954129694474 -22.570052254688022 0.0
  endloop
endfacet
facet normal 0.0 0.0 -1.0
  outer loop
    vertex 78.73954129694474 -22.570052254688022 0.0
    vertex 81.00000000000001 -14.966098056524192 0.0
    vertex 81.00000000000001 -22.49901447810581 0.0
  endloop
endfacet
facet normal 0.0 0.0 -1.0
  outer loop
    vertex 0.0 -101.32047373905291 0.0
    vertex 61.710235380756174 -88.89481979617838 0.0
    vertex 81.00000000000001 -101.32047373905291 0.0
  endloop
endfacet
facet normal 0.0 0.0 -1.0
  outer loop
    vertex 61.710235380756174 -88.89481979617838 0.0
    vertex 0.0 -101.32047373905291 0.0
    vertex 59.83973091747101 -87.62362627560395 0.0
  endloop
endfacet
facet normal 0.0 0.0 -1.0
  outer loop
    vertex 59.83973091747101 -87.62362627560395 0.0
    vertex 0.0 -101.32047373905291 0.0
    vertex 58.0527363690472 -86.23749121803426 0.0
  endloop
endfacet
facet normal 0.0 0.0 -1.0
  outer loop
    vertex 58.0527363690472 -86.23749121803426 0.0
    vertex 0.0 -101.32047373905291 0.0
    vertex 56.356304186567236 -84.74188506527665 0.0
  endloop
endfacet
facet normal 0.0 0.0 -1.0
  outer loop
    vertex 56.356304186567236 -84.74188506527665 0.0
    vertex 0.0 -101.32047373905291 0.0
    vertex 54.757129412829215 -83.14271029153863 0.0
  endloop
endfacet
facet normal 0.0 0.0 -1.0
  outer loop
    vertex 54.757129412829215 -83.14271029153863 0.0
    vertex 0.0 -101.32047373905291 0.0
    vertex 53.26152326007162 -81.44627810905867 0.0
  endloop
endfacet
facet normal 0.0 0.0 -1.0
  outer loop
    vertex 53.26152326007162 -81.44627810905867 0.0
    vertex 0.0 -101.32047373905291 0.0
    vertex 51.8753882025019 -79.65928356063488 0.0
  endloop
endfacet
facet normal 0.0 0.0 -1.0
  outer loop
    vertex 51.8753882025019 -79.65928356063488 0.0
    vertex 0.0 -101.32047373905291 0.0
    vertex 50.60419468192747 -77.78877909734972 0.0
  endloop
endfacet
facet normal 0.0 0.0 -1.0
  outer loop
    vertex 50.60419468192747 -77.78877909734972 0.0
    vertex 0.0 -101.32047373905291 0.0
    vertex 49.45295951842093 -75.8421467457676 0.0
  endloop
endfacet
facet normal 0.0 0.0 -1.0
  outer loop
    vertex 49.45295951842093 -75.8421467457676 0.0
    vertex 0.0 -101.32047373905291 0.0
    vertex 48.426226111223315 -73.82706897444845 0.0
  endloop
endfacet
facet normal 0.0 0.0 -1.0
  outer loop
    vertex 48.426226111223315 -73.82706897444845 0.0
    vertex 0.0 -101.32047373905291 0.0
    vertex 47.52804650802297 -71.75149837475425 0.0
  endloop
endfacet
facet normal 0.0 0.0 -1.0
  outer loop
    vertex 47.52804650802297 -71.75149837475425 0.0
    vertex 0.0 -101.32047373905291 0.0
    vertex 46.76196541337449 -69.62362627560395 0.0
  endloop
endfacet
facet normal 0.0 0.0 -1.0
  outer loop
    vertex 46.76196541337449 -69.62362627560395 0.0
    vertex 0.0 -101.32047373905291 0.0
    vertex 46.13100619936929 -67.45185041604061 0.0
  endloop
endfacet
facet normal 0.0 0.0 -1.0
  outer loop
    vertex 46.13100619936929 -67.45185041604061 0.0
    vertex 0.0 -101.32047373905291 0.0
    vertex 45.637658973767216 -65.24474180319191 0.0
  endloop
endfacet
facet normal 0.0 0.0 -1.0
  outer loop
    vertex 45.637658973767216 -65.24474180319191 0.0
    vertex 0.0 -101.32047373905291 0.0
    vertex 45.2838707526788 -63.01101088642078 0.0
  endloop
endfacet
facet normal 0.0 0.0 -1.0
  outer loop
    vertex 45.2838707526788 -63.01101088642078 0.0
    vertex 0.0 -101.32047373905291 0.0
    vertex 45.07103777658222 -60.759473181161106 0.0
  endloop
endfacet
facet normal 0.0 0.0 -1.0
  outer loop
    vertex 45.07103777658222 -60.759473181161106 0.0
    vertex 0.0 -101.32047373905291 0.0
    vertex 45.0 -58.49901447810582 0.0
  endloop
endfacet
facet normal 0.0 0.0 -1.0
  outer loop
    vertex 81.00000000000001 -101.32047373905291 0.0
    vertex 61.710235380756174 -88.89481979617838 0.0
    vertex 63.6568677323383 -90.04605495968494 0.0
  endloop
endfacet
facet normal 0.0 0.0 -1.0
  outer loop
    vertex 81.00000000000001 -101.32047373905291 0.0
    vertex 63.6568677323383 -90.04605495968494 0.0
    vertex 65.67194550365745 -91.07278836688255 0.0
  endloop
endfacet
facet normal 0.0 0.0 -1.0
  outer loop
    vertex 81.00000000000001 -101.32047373905291 0.0
    vertex 65.67194550365745 -91.07278836688255 0.0
    vertex 67.74751610335166 -91.97096797008288 0.0
  endloop
endfacet
facet normal 0.0 0.0 -1.0
  outer loop
    vertex 81.00000000000001 -101.32047373905291 0.0
    vertex 67.74751610335166 -91.97096797008288 0.0
    vertex 69.87538820250197 -92.73704906473138 0.0
  endloop
endfacet
facet normal 0.0 0.0 -1.0
  outer loop
    vertex 81.00000000000001 -101.32047373905291 0.0
    vertex 69.87538820250197 -92.73704906473138 0.0
    vertex 72.0471640620653 -93.36800827873655 0.0
  endloop
endfacet
facet normal 0.0 0.0 -1.0
  outer loop
    vertex 81.00000000000001 -101.32047373905291 0.0
    vertex 72.0471640620653 -93.36800827873655 0.0
    vertex 74.25427267491399 -93.86135550433863 0.0
  endloop
endfacet
facet normal 0.0 0.0 -1.0
  outer loop
    vertex 81.00000000000001 -101.32047373905291 0.0
    vertex 74.25427267491399 -93.86135550433863 0.0
    vertex 76.48800359168513 -94.21514372542703 0.0
  endloop
endfacet
facet normal 0.0 0.0 -1.0
  outer loop
    vertex 81.00000000000001 -101.32047373905291 0.0
    vertex 76.48800359168513 -94.21514372542703 0.0
    vertex 78.73954129694481 -94.4279767015236 0.0
  endloop
endfacet
facet normal 0.0 0.0 -1.0
  outer loop
    vertex 81.00000000000001 -101.32047373905291 0.0
    vertex 78.73954129694481 -94.4279767015236 0.0
    vertex 81.00000000000001 -94.4990144781058 0.0
  endloop
endfacet
facet normal 0.0 0.7280407948360935 0.6855338073752666
  outer loop
    vertex 0.0 -16.849327161919604 1.9999999999999998
    vertex 81.00000000000001 -14.966098056524192 0.0
    vertex 0.0 -14.966098056524192 0.0
  endloop
endfacet
facet normal 0.0 0.7280407948360935 0.6855338073752666
  outer loop
    vertex 81.00000000000001 -14.966098056524192 0.0
    vertex 0.0 -16.849327161919604 1.9999999999999998
    vertex 81.00000000000001 -16.849327161919604 1.9999999999999998
  endloop
endfacet
facet normal 0.21814324139654317 -0.9759167619387472 0.0
  outer loop
    vertex 74.25427267491393 -23.136673451873012 3.9999999999999996
    vertex 72.04716406206525 -23.630020677475088 0.0
    vertex 74.25427267491393 -23.136673451873012 0.0
  endloop
endfacet
facet normal 0.21814324139654317 -0.9759167619387472 0.0
  outer loop
    vertex 72.04716406206525 -23.630020677475088 0.0
    vertex 74.25427267491393 -23.136673451873012 3.9999999999999996
    vertex 72.04716406206525 -23.630020677475088 3.9999999999999996
  endloop
endfacet
facet normal 0.21814324139654317 0.9759167619387472 0.0
  outer loop
    vertex 72.0471640620653 -93.36800827873655 3.9999999999999996
    vertex 74.25427267491399 -93.86135550433863 0.0
    vertex 72.0471640620653 -93.36800827873655 0.0
  endloop
endfacet
facet normal 0.21814324139654317 0.9759167619387472 0.0
  outer loop
    vertex 74.25427267491399 -93.86135550433863 0.0
    vertex 72.0471640620653 -93.36800827873655 3.9999999999999996
    vertex 74.25427267491399 -93.86135550433863 3.9999999999999996
  endloop
endfacet
facet normal 0.031410759078127556 -0.9995065603657316 0.0
  outer loop
    vertex 81.00000000000001 -22.49901447810581 3.9999999999999996
    vertex 78.73954129694474 -22.570052254688022 0.0
    vertex 81.00000000000001 -22.49901447810581 0.0
  endloop
endfacet
facet normal 0.031410759078127556 -0.9995065603657316 0.0
  outer loop
    vertex 78.73954129694474 -22.570052254688022 0.0
    vertex 81.00000000000001 -22.49901447810581 3.9999999999999996
    vertex 78.73954129694474 -22.570052254688022 3.9999999999999996
  endloop
endfacet
facet normal 0.27899110603922933 -0.9602936856769431 0.0
  outer loop
    vertex 72.04716406206525 -23.630020677475088 3.9999999999999996
    vertex 69.87538820250191 -24.26097989148028 0.0
    vertex 72.04716406206525 -23.630020677475088 0.0
  endloop
endfacet
facet normal 0.27899110603922933 -0.9602936856769431 0.0
  outer loop
    vertex 69.87538820250191 -24.26097989148028 0.0
    vertex 72.04716406206525 -23.630020677475088 3.9999999999999996
    vertex 69.87538820250191 -24.26097989148028 3.9999999999999996
  endloop
endfacet
facet normal 0.7901550123756913 -0.6129070536529755 0.0
  outer loop
    vertex 53.261523260071606 -35.55175084715296 0.0
    vertex 51.87538820250192 -37.33874539557676 3.9999999999999996
    vertex 51.87538820250192 -37.33874539557676 0.0
  endloop
endfacet
facet normal 0.7901550123756913 -0.6129070536529755 0.0
  outer loop
    vertex 51.87538820250192 -37.33874539557676 3.9999999999999996
    vertex 53.261523260071606 -35.55175084715296 0.0
    vertex 53.261523260071606 -35.55175084715296 3.9999999999999996
  endloop
endfacet
facet normal 0.09410831331851195 -0.9955619646030802 0.0
  outer loop
    vertex 78.73954129694474 -22.570052254688022 3.9999999999999996
    vertex 76.48800359168506 -22.782885230784597 0.0
    vertex 78.73954129694474 -22.570052254688022 0.0
  endloop
endfacet
facet normal 0.09410831331851195 -0.9955619646030802 0.0
  outer loop
    vertex 76.48800359168506 -22.782885230784597 0.0
    vertex 78.73954129694474 -22.570052254688022 3.9999999999999996
    vertex 76.48800359168506 -22.782885230784597 3.9999999999999996
  endloop
endfacet
facet normal 0.7071067811865476 0.7071067811865476 0.0
  outer loop
    vertex 54.757129412829215 -83.14271029153863 0.0
    vertex 56.356304186567236 -84.74188506527665 3.9999999999999996
    vertex 56.356304186567236 -84.74188506527665 0.0
  endloop
endfacet
facet normal 0.7071067811865476 0.7071067811865476 0.0
  outer loop
    vertex 56.356304186567236 -84.74188506527665 3.9999999999999996
    vertex 54.757129412829215 -83.14271029153863 0.0
    vertex 54.757129412829215 -83.14271029153863 3.9999999999999996
  endloop
endfacet
facet normal 1.0 0.0 0.0
  outer loop
    vertex 81.00000000000001 -94.4990144781058 0.0
    vertex 81.00000000000001 -99.61510892381614 1.9999999999999998
    vertex 81.00000000000001 -101.32047373905291 0.0
  endloop
endfacet
facet normal 1.0 0.0 0.0
  outer loop
    vertex 81.00000000000001 -99.61510892381614 1.9999999999999998
    vertex 81.00000000000001 -94.4990144781058 0.0
    vertex 81.00000000000001 -97.90974410857936 1.9999999999999998
  endloop
endfacet
facet normal 1.0 0.0 0.0
  outer loop
    vertex 81.00000000000001 -97.90974410857936 1.9999999999999998
    vertex 81.00000000000001 -94.4990144781058 0.0
    vertex 81.00000000000001 -97.90974410857936 3.9999999999999996
  endloop
endfacet
facet normal 1.0 0.0 0.0
  outer loop
    vertex 81.00000000000001 -97.90974410857936 3.9999999999999996
    vertex 81.00000000000001 -94.4990144781058 0.0
    vertex 81.00000000000001 -94.4990144781058 3.9999999999999996
  endloop
endfacet
facet normal 0.9177546256839814 -0.39714789063478007 0.0
  outer loop
    vertex 48.4262261112233 -43.17095998176318 0.0
    vertex 47.52804650802295 -45.24653058145739 3.9999999999999996
    vertex 47.52804650802295 -45.24653058145739 0.0
  endloop
endfacet
facet normal 0.9177546256839814 -0.39714789063478007 0.0
  outer loop
    vertex 47.52804650802295 -45.24653058145739 3.9999999999999996
    vertex 48.4262261112233 -43.17095998176318 0.0
    vertex 48.4262261112233 -43.17095998176318 3.9999999999999996
  endloop
endfacet
facet normal 0.9602936856769431 -0.27899110603922933 0.0
  outer loop
    vertex 46.76196541337447 -47.374402680607695 0.0
    vertex 46.13100619936928 -49.546178540171034 3.9999999999999996
    vertex 46.13100619936928 -49.546178540171034 0.0
  endloop
endfacet
facet normal 0.9602936856769431 -0.27899110603922933 0.0
  outer loop
    vertex 46.13100619936928 -49.546178540171034 3.9999999999999996
    vertex 46.76196541337447 -47.374402680607695 0.0
    vertex 46.76196541337447 -47.374402680607695 3.9999999999999996
  endloop
endfacet
facet normal 0.6613118653236507 -0.7501110696304605 0.0
  outer loop
    vertex 58.052736369047196 -30.760537738177376 3.9999999999999996
    vertex 56.35630418656723 -32.256143890934986 0.0
    vertex 58.052736369047196 -30.760537738177376 0.0
  endloop
endfacet
facet normal 0.6613118653236507 -0.7501110696304605 0.0
  outer loop
    vertex 56.35630418656723 -32.256143890934986 0.0
    vertex 58.052736369047196 -30.760537738177376 3.9999999999999996
    vertex 56.35630418656723 -32.256143890934986 3.9999999999999996
  endloop
endfacet
facet normal 0.9955619646030799 0.09410831331851567 0.0
  outer loop
    vertex 45.07103777658222 -60.759473181161106 0.0
    vertex 45.2838707526788 -63.01101088642078 3.9999999999999996
    vertex 45.2838707526788 -63.01101088642078 0.0
  endloop
endfacet
facet normal 0.9955619646030799 0.09410831331851567 0.0
  outer loop
    vertex 45.2838707526788 -63.01101088642078 3.9999999999999996
    vertex 45.07103777658222 -60.759473181161106 0.0
    vertex 45.07103777658222 -60.759473181161106 3.9999999999999996
  endloop
endfacet
facet normal 0.612907053652973 0.7901550123756932 0.0
  outer loop
    vertex 58.0527363690472 -86.23749121803426 3.9999999999999996
    vertex 59.83973091747101 -87.62362627560395 0.0
    vertex 58.0527363690472 -86.23749121803426 0.0
  endloop
endfacet
facet normal 0.612907053652973 0.7901550123756932 0.0
  outer loop
    vertex 59.83973091747101 -87.62362627560395 0.0
    vertex 58.0527363690472 -86.23749121803426 3.9999999999999996
    vertex 59.83973091747101 -87.62362627560395 3.9999999999999996
  endloop
endfacet
facet normal 0.9995065603657316 0.031410759078127556 0.0
  outer loop
    vertex 45.0 -58.49901447810582 0.0
    vertex 45.07103777658222 -60.759473181161106 3.9999999999999996
    vertex 45.07103777658222 -60.759473181161106 0.0
  endloop
endfacet
facet normal 0.9995065603657316 0.031410759078127556 0.0
  outer loop
    vertex 45.07103777658222 -60.759473181161106 3.9999999999999996
    vertex 45.0 -58.49901447810582 0.0
    vertex 45.0 -58.49901447810582 3.9999999999999996
  endloop
endfacet
facet normal 0.7501110696304584 0.6613118653236533 0.0
  outer loop
    vertex 53.26152326007162 -81.44627810905867 0.0
    vertex 54.757129412829215 -83.14271029153863 3.9999999999999996
    vertex 54.757129412829215 -83.14271029153863 0.0
  endloop
endfacet
facet normal 0.7501110696304584 0.6613118653236533 0.0
  outer loop
    vertex 54.757129412829215 -83.14271029153863 3.9999999999999996
    vertex 53.26152326007162 -81.44627810905867 0.0
    vertex 53.26152326007162 -81.44627810905867 3.9999999999999996
  endloop
endfacet
facet normal 0.9408807689542256 0.3387379202452915 0.0
  outer loop
    vertex 46.76196541337449 -69.62362627560395 0.0
    vertex 47.52804650802297 -71.75149837475425 3.9999999999999996
    vertex 47.52804650802297 -71.75149837475425 0.0
  endloop
endfacet
facet normal 0.9408807689542256 0.3387379202452915 0.0
  outer loop
    vertex 47.52804650802297 -71.75149837475425 3.9999999999999996
    vertex 46.76196541337449 -69.62362627560395 0.0
    vertex 46.76196541337449 -69.62362627560395 3.9999999999999996
  endloop
endfacet
facet normal 0.15643446504023292 -0.9876883405951374 0.0
  outer loop
    vertex 76.48800359168506 -22.782885230784597 3.9999999999999996
    vertex 74.25427267491393 -23.136673451873012 0.0
    vertex 76.48800359168506 -22.782885230784597 0.0
  endloop
endfacet
facet normal 0.15643446504023292 -0.9876883405951374 0.0
  outer loop
    vertex 74.25427267491393 -23.136673451873012 0.0
    vertex 76.48800359168506 -22.782885230784597 3.9999999999999996
    vertex 74.25427267491393 -23.136673451873012 3.9999999999999996
  endloop
endfacet
facet normal 0.7071067811865476 -0.7071067811865476 0.0
  outer loop
    vertex 56.35630418656723 -32.256143890934986 0.0
    vertex 54.7571294128292 -33.85531866467299 3.9999999999999996
    vertex 54.7571294128292 -33.85531866467299 0.0
  endloop
endfacet
facet normal 0.7071067811865476 -0.7071067811865476 0.0
  outer loop
    vertex 54.7571294128292 -33.85531866467299 3.9999999999999996
    vertex 56.35630418656723 -32.256143890934986 0.0
    vertex 56.35630418656723 -32.256143890934986 3.9999999999999996
  endloop
endfacet
facet normal 0.9955619646030801 -0.09410831331851319 0.0
  outer loop
    vertex 45.283870752678794 -53.987018069790864 0.0
    vertex 45.07103777658222 -56.238555775050536 3.9999999999999996
    vertex 45.07103777658222 -56.238555775050536 0.0
  endloop
endfacet
facet normal 0.9955619646030801 -0.09410831331851319 0.0
  outer loop
    vertex 45.07103777658222 -56.238555775050536 3.9999999999999996
    vertex 45.283870752678794 -53.987018069790864 0.0
    vertex 45.283870752678794 -53.987018069790864 3.9999999999999996
  endloop
endfacet
facet normal 0.5620833778521283 0.8270805742745634 0.0
  outer loop
    vertex 59.83973091747101 -87.62362627560395 3.9999999999999996
    vertex 61.710235380756174 -88.89481979617838 0.0
    vertex 59.83973091747101 -87.62362627560395 0.0
  endloop
endfacet
facet normal 0.5620833778521283 0.8270805742745634 0.0
  outer loop
    vertex 61.710235380756174 -88.89481979617838 0.0
    vertex 59.83973091747101 -87.62362627560395 3.9999999999999996
    vertex 61.710235380756174 -88.89481979617838 3.9999999999999996
  endloop
endfacet
facet normal 0.5090414157503752 0.8607420270039414 0.0
  outer loop
    vertex 61.710235380756174 -88.89481979617838 3.9999999999999996
    vertex 63.6568677323383 -90.04605495968494 0.0
    vertex 61.710235380756174 -88.89481979617838 0.0
  endloop
endfacet
facet normal 0.5090414157503752 0.8607420270039414 0.0
  outer loop
    vertex 63.6568677323383 -90.04605495968494 0.0
    vertex 61.710235380756174 -88.89481979617838 3.9999999999999996
    vertex 63.6568677323383 -90.04605495968494 3.9999999999999996
  endloop
endfacet
facet normal 0.45399049973954336 0.8910065241883697 0.0
  outer loop
    vertex 63.6568677323383 -90.04605495968494 3.9999999999999996
    vertex 65.67194550365745 -91.07278836688255 0.0
    vertex 63.6568677323383 -90.04605495968494 0.0
  endloop
endfacet
facet normal 0.45399049973954336 0.8910065241883697 0.0
  outer loop
    vertex 65.67194550365745 -91.07278836688255 0.0
    vertex 63.6568677323383 -90.04605495968494 3.9999999999999996
    vertex 65.67194550365745 -91.07278836688255 3.9999999999999996
  endloop
endfacet
facet normal 0.7501110696304594 -0.661311865323652 0.0
  outer loop
    vertex 54.7571294128292 -33.85531866467299 0.0
    vertex 53.261523260071606 -35.55175084715296 3.9999999999999996
    vertex 53.261523260071606 -35.55175084715296 0.0
  endloop
endfacet
facet normal 0.7501110696304594 -0.661311865323652 0.0
  outer loop
    vertex 53.261523260071606 -35.55175084715296 3.9999999999999996
    vertex 54.7571294128292 -33.85531866467299 0.0
    vertex 54.7571294128292 -33.85531866467299 3.9999999999999996
  endloop
endfacet
facet normal 0.9876883405951375 -0.15643446504023217 0.0
  outer loop
    vertex 45.63765897376721 -51.75328715301973 0.0
    vertex 45.283870752678794 -53.987018069790864 3.9999999999999996
    vertex 45.283870752678794 -53.987018069790864 0.0
  endloop
endfacet
facet normal 0.9876883405951375 -0.15643446504023217 0.0
  outer loop
    vertex 45.283870752678794 -53.987018069790864 3.9999999999999996
    vertex 45.63765897376721 -51.75328715301973 0.0
    vertex 45.63765897376721 -51.75328715301973 3.9999999999999996
  endloop
endfacet
facet normal 0.9876883405951375 0.15643446504023217 0.0
  outer loop
    vertex 45.2838707526788 -63.01101088642078 0.0
    vertex 45.637658973767216 -65.24474180319191 3.9999999999999996
    vertex 45.637658973767216 -65.24474180319191 0.0
  endloop
endfacet
facet normal 0.9876883405951375 0.15643446504023217 0.0
  outer loop
    vertex 45.637658973767216 -65.24474180319191 3.9999999999999996
    vertex 45.2838707526788 -63.01101088642078 0.0
    vertex 45.2838707526788 -63.01101088642078 3.9999999999999996
  endloop
endfacet
facet normal 0.9408807689542256 -0.3387379202452915 0.0
  outer loop
    vertex 47.52804650802295 -45.24653058145739 0.0
    vertex 46.76196541337447 -47.374402680607695 3.9999999999999996
    vertex 46.76196541337447 -47.374402680607695 0.0
  endloop
endfacet
facet normal 0.9408807689542256 -0.3387379202452915 0.0
  outer loop
    vertex 46.76196541337447 -47.374402680607695 3.9999999999999996
    vertex 47.52804650802295 -45.24653058145739 0.0
    vertex 47.52804650802295 -45.24653058145739 3.9999999999999996
  endloop
endfacet
facet normal 0.6129070536529755 -0.7901550123756913 0.0
  outer loop
    vertex 59.83973091747099 -29.374402680607698 3.9999999999999996
    vertex 58.052736369047196 -30.760537738177376 0.0
    vertex 59.83973091747099 -29.374402680607698 0.0
  endloop
endfacet
facet normal 0.6129070536529755 -0.7901550123756913 0.0
  outer loop
    vertex 58.052736369047196 -30.760537738177376 0.0
    vertex 59.83973091747099 -29.374402680607698 3.9999999999999996
    vertex 58.052736369047196 -30.760537738177376 3.9999999999999996
  endloop
endfacet
facet normal 0.9177546256839806 0.3971478906347819 0.0
  outer loop
    vertex 47.52804650802297 -71.75149837475425 0.0
    vertex 48.426226111223315 -73.82706897444845 3.9999999999999996
    vertex 48.426226111223315 -73.82706897444845 0.0
  endloop
endfacet
facet normal 0.9177546256839806 0.3971478906347819 0.0
  outer loop
    vertex 48.426226111223315 -73.82706897444845 3.9999999999999996
    vertex 47.52804650802297 -71.75149837475425 0.0
    vertex 47.52804650802297 -71.75149837475425 3.9999999999999996
  endloop
endfacet
facet normal 0.03141075907812367 0.9995065603657317 0.0
  outer loop
    vertex 78.73954129694481 -94.4279767015236 3.9999999999999996
    vertex 81.00000000000001 -94.4990144781058 0.0
    vertex 78.73954129694481 -94.4279767015236 0.0
  endloop
endfacet
facet normal 0.03141075907812367 0.9995065603657317 0.0
  outer loop
    vertex 81.00000000000001 -94.4990144781058 0.0
    vertex 78.73954129694481 -94.4279767015236 3.9999999999999996
    vertex 81.00000000000001 -94.4990144781058 3.9999999999999996
  endloop
endfacet
facet normal 0.09410831331851567 0.9955619646030799 0.0
  outer loop
    vertex 76.48800359168513 -94.21514372542703 3.9999999999999996
    vertex 78.73954129694481 -94.4279767015236 0.0
    vertex 76.48800359168513 -94.21514372542703 0.0
  endloop
endfacet
facet normal 0.09410831331851567 0.9955619646030799 0.0
  outer loop
    vertex 78.73954129694481 -94.4279767015236 0.0
    vertex 76.48800359168513 -94.21514372542703 3.9999999999999996
    vertex 78.73954129694481 -94.4279767015236 3.9999999999999996
  endloop
endfacet
facet normal 0.15643446504022243 0.9876883405951391 0.0
  outer loop
    vertex 74.25427267491399 -93.86135550433863 3.9999999999999996
    vertex 76.48800359168513 -94.21514372542703 0.0
    vertex 74.25427267491399 -93.86135550433863 0.0
  endloop
endfacet
facet normal 0.15643446504022243 0.9876883405951391 0.0
  outer loop
    vertex 76.48800359168513 -94.21514372542703 0.0
    vertex 74.25427267491399 -93.86135550433863 3.9999999999999996
    vertex 76.48800359168513 -94.21514372542703 3.9999999999999996
  endloop
endfacet
endsolid dash_sectionCurve copy
