solid Untitled-5ad36300
facet normal -0.38268343236508956 0.9238795325112868 0.0
  outer loop
    vertex 2.2773449999999986 -3.9444772463629447 3.193863
    vertex 1.1788405165379994 -4.399492701740558 0.0
    vertex 1.1788405165379994 -4.399492701740558 3.193863
  endloop
endfacet
facet normal -0.38268343236508956 0.9238795325112868 0.0
  outer loop
    vertex 1.1788405165379994 -4.399492701740558 0.0
    vertex 2.2773449999999986 -3.9444772463629447 3.193863
    vertex 2.2773449999999986 -3.9444772463629447 0.0
  endloop
endfacet
facet normal -0.9238795325112871 -0.3826834323650892 0.0
  outer loop
    vertex 4.399492701740556 1.178840516537998 3.193863
    vertex 3.944477246362946 2.2773449999999986 0.0
    vertex 4.399492701740556 1.178840516537998 0.0
  endloop
endfacet
facet normal -0.9238795325112871 -0.3826834323650892 0.0
  outer loop
    vertex 3.944477246362946 2.2773449999999986 0.0
    vertex 4.399492701740556 1.178840516537998 3.193863
    vertex 3.944477246362946 2.2773449999999986 3.193863
  endloop
endfacet
facet normal -0.9914448613738105 0.13052619222005185 0.0
  outer loop
    vertex 4.399492701740556 -1.1788405165380023 3.193863
    vertex 4.55469 0.0 0.0
    vertex 4.399492701740556 -1.1788405165380023 0.0
  endloop
endfacet
facet normal -0.9914448613738105 0.13052619222005185 0.0
  outer loop
    vertex 4.55469 0.0 0.0
    vertex 4.399492701740556 -1.1788405165380023 3.193863
    vertex 4.55469 0.0 3.193863
  endloop
endfacet
facet normal -0.9914448613738105 -0.1305261922200515 0.0
  outer loop
    vertex 4.55469 0.0 3.193863
    vertex 4.399492701740556 1.178840516537998 0.0
    vertex 4.55469 0.0 0.0
  endloop
endfacet
facet normal -0.9914448613738105 -0.1305261922200515 0.0
  outer loop
    vertex 4.399492701740556 1.178840516537998 0.0
    vertex 4.55469 0.0 3.193863
    vertex 4.399492701740556 1.178840516537998 3.193863
  endloop
endfacet
facet normal 0.3826834323650896 0.9238795325112868 0.0
  outer loop
    vertex -1.178840516538001 -4.399492701740558 3.193863
    vertex -2.277345 -3.9444772463629447 0.0
    vertex -2.277345 -3.9444772463629447 3.193863
  endloop
endfacet
facet normal 0.3826834323650896 0.9238795325112868 0.0
  outer loop
    vertex -2.277345 -3.9444772463629447 0.0
    vertex -1.178840516538001 -4.399492701740558 3.193863
    vertex -1.178840516538001 -4.399492701740558 0.0
  endloop
endfacet
facet normal -0.9238795325112868 0.38268343236508995 0.0
  outer loop
    vertex 3.9444772463629434 -2.2773450000000013 3.193863
    vertex 4.399492701740556 -1.1788405165380023 0.0
    vertex 3.9444772463629434 -2.2773450000000013 0.0
  endloop
endfacet
facet normal -0.9238795325112868 0.38268343236508995 0.0
  outer loop
    vertex 4.399492701740556 -1.1788405165380023 0.0
    vertex 3.9444772463629434 -2.2773450000000013 3.193863
    vertex 4.399492701740556 -1.1788405165380023 3.193863
  endloop
endfacet
facet normal -0.7933533402912349 0.6087614290087209 0.0
  outer loop
    vertex 3.2206521852025563 -3.220652185202555 3.193863
    vertex 3.9444772463629434 -2.2773450000000013 0.0
    vertex 3.2206521852025563 -3.220652185202555 0.0
  endloop
endfacet
facet normal -0.7933533402912349 0.6087614290087209 0.0
  outer loop
    vertex 3.9444772463629434 -2.2773450000000013 0.0
    vertex 3.2206521852025563 -3.220652185202555 3.193863
    vertex 3.9444772463629434 -2.2773450000000013 3.193863
  endloop
endfacet
facet normal -0.6087614290087205 0.7933533402912353 0.0
  outer loop
    vertex 3.2206521852025563 -3.220652185202555 3.193863
    vertex 2.2773449999999986 -3.9444772463629447 0.0
    vertex 2.2773449999999986 -3.9444772463629447 3.193863
  endloop
endfacet
facet normal -0.6087614290087205 0.7933533402912353 0.0
  outer loop
    vertex 2.2773449999999986 -3.9444772463629447 0.0
    vertex 3.2206521852025563 -3.220652185202555 3.193863
    vertex 3.2206521852025563 -3.220652185202555 0.0
  endloop
endfacet
facet normal -0.608761429008721 -0.793353340291235 0.0
  outer loop
    vertex 3.220652185202558 3.220652185202555 0.0
    vertex 2.2773450000000026 3.9444772463629434 3.193863
    vertex 2.2773450000000026 3.9444772463629434 0.0
  endloop
endfacet
facet normal -0.608761429008721 -0.793353340291235 0.0
  outer loop
    vertex 2.2773450000000026 3.9444772463629434 3.193863
    vertex 3.220652185202558 3.220652185202555 0.0
    vertex 3.220652185202558 3.220652185202555 3.193863
  endloop
endfacet
facet normal 0.0 0.0 -1.0
  outer loop
    vertex 19.999999999999996 0.49999999999999906 0.0
    vertex 0.0 7.000000000000001 0.0
    vertex 19.999999999999996 7.000000000000001 0.0
  endloop
endfacet
facet normal 0.0 0.0 -1.0
  outer loop
    vertex 0.0 7.000000000000001 0.0
    vertex 19.999999999999996 0.49999999999999906 0.0
    vertex -0.6274751623240336 6.971820057966674 0.0
  endloop
endfacet
facet normal 0.0 0.0 -1.0
  outer loop
    vertex -0.6274751623240336 6.971820057966674 0.0
    vertex 19.999999999999996 0.49999999999999906 0.0
    vertex -1.249898263590456 6.887507120190407 0.0
  endloop
endfacet
facet normal 0.0 0.0 -1.0
  outer loop
    vertex -1.249898263590456 6.887507120190407 0.0
    vertex 19.999999999999996 0.49999999999999906 0.0
    vertex -1.862257918966725 6.747740024870971 0.0
  endloop
endfacet
facet normal 0.0 0.0 -1.0
  outer loop
    vertex -1.862257918966725 6.747740024870971 0.0
    vertex 19.999999999999996 0.49999999999999906 0.0
    vertex -2.459623768569398 6.553644094478161 0.0
  endloop
endfacet
facet normal 0.0 0.0 -1.0
  outer loop
    vertex -2.459623768569398 6.553644094478161 0.0
    vertex 19.999999999999996 0.49999999999999906 0.0
    vertex -3.0371861738229065 6.306782075316935 0.0
  endloop
endfacet
facet normal 0.0 0.0 -1.0
  outer loop
    vertex -3.0371861738229065 6.306782075316935 0.0
    vertex 19.999999999999996 0.49999999999999906 0.0
    vertex -3.590294941841342 6.009141555213063 0.0
  endloop
endfacet
facet normal 0.0 0.0 -1.0
  outer loop
    vertex -3.590294941841342 6.009141555213063 0.0
    vertex 19.999999999999996 0.49999999999999906 0.0
    vertex -4.114496766047312 5.663118960624632 0.0
  endloop
endfacet
facet normal 0.0 0.0 -1.0
  outer loop
    vertex -4.114496766047312 5.663118960624632 0.0
    vertex 19.999999999999996 0.49999999999999906 0.0
    vertex 1.1788405165380036 4.399492701740554 0.0
  endloop
endfacet
facet normal 0.0 0.0 -1.0
  outer loop
    vertex -4.114496766047312 5.663118960624632 0.0
    vertex 1.1788405165380036 4.399492701740554 0.0
    vertex -4.605571081577988 5.271500262025277 0.0
  endloop
endfacet
facet normal 0.0 0.0 -1.0
  outer loop
    vertex -4.605571081577988 5.271500262025277 0.0
    vertex 1.1788405165380036 4.399492701740554 0.0
    vertex 1.4099832412739487e-15 4.55469 0.0
  endloop
endfacet
facet normal 0.0 0.0 -1.0
  outer loop
    vertex -4.605571081577988 5.271500262025277 0.0
    vertex 1.4099832412739487e-15 4.55469 0.0
    vertex -5.05956404679174 4.837438542908053 0.0
  endloop
endfacet
facet normal 0.0 0.0 -1.0
  outer loop
    vertex 1.1788405165380036 4.399492701740554 0.0
    vertex 19.999999999999996 0.49999999999999906 0.0
    vertex 2.2773450000000026 3.9444772463629434 0.0
  endloop
endfacet
facet normal 0.0 0.0 -1.0
  outer loop
    vertex 2.2773450000000026 3.9444772463629434 0.0
    vertex 19.999999999999996 0.49999999999999906 0.0
    vertex 17.181601589859337 0.9958579862201241 0.0
  endloop
endfacet
facet normal 0.0 0.0 -1.0
  outer loop
    vertex 2.2773450000000026 3.9444772463629434 0.0
    vertex 17.181601589859337 0.9958579862201241 0.0
    vertex 3.220652185202558 3.220652185202555 0.0
  endloop
endfacet
facet normal 0.0 0.0 -1.0
  outer loop
    vertex 3.220652185202558 3.220652185202555 0.0
    vertex 17.181601589859337 0.9958579862201241 0.0
    vertex 3.944477246362946 2.2773449999999986 0.0
  endloop
endfacet
facet normal 0.0 0.0 -1.0
  outer loop
    vertex 3.944477246362946 2.2773449999999986 0.0
    vertex 17.181601589859337 0.9958579862201241 0.0
    vertex 17.008791000000002 0.9999999999999996 0.0
  endloop
endfacet
facet normal 0.0 0.0 -1.0
  outer loop
    vertex 3.944477246362946 2.2773449999999986 0.0
    vertex 17.008791000000002 0.9999999999999996 0.0
    vertex 4.399492701740556 1.178840516537998 0.0
  endloop
endfacet
facet normal 0.0 0.0 -1.0
  outer loop
    vertex 17.181601589859337 0.9958579862201241 0.0
    vertex 19.999999999999996 0.49999999999999906 0.0
    vertex 17.498164986128224 0.9086797329275109 0.0
  endloop
endfacet
facet normal 0.0 0.0 -1.0
  outer loop
    vertex 17.498164986128224 0.9086797329275109 0.0
    vertex 19.999999999999996 0.49999999999999906 0.0
    vertex 17.781378353971224 0.7425393706446823 0.0
  endloop
endfacet
facet normal 0.0 0.0 -1.0
  outer loop
    vertex 17.781378353971224 0.7425393706446823 0.0
    vertex 19.999999999999996 0.49999999999999906 0.0
    vertex 18.011941170402054 0.5087590905012819 0.0
  endloop
endfacet
facet normal 0.0 0.0 -1.0
  outer loop
    vertex 19.999999999999996 -7.000000000000001 0.0
    vertex 18.167470732927512 -0.7393739861282252 0.0
    vertex 19.999999999999996 -0.7393739861282252 0.0
  endloop
endfacet
facet normal 0.0 0.0 -1.0
  outer loop
    vertex 18.167470732927512 -0.7393739861282252 0.0
    vertex 19.999999999999996 -7.000000000000001 0.0
    vertex 18.01458070271894 -1.0000000000000009 0.0
  endloop
endfacet
facet normal 0.0 0.0 -1.0
  outer loop
    vertex 18.01458070271894 -1.0000000000000009 0.0
    vertex 19.999999999999996 -7.000000000000001 0.0
    vertex 18.00133037064468 -1.0225873539712245 0.0
  endloop
endfacet
facet normal 0.0 0.0 -1.0
  outer loop
    vertex 18.00133037064468 -1.0225873539712245 0.0
    vertex 19.999999999999996 -7.000000000000001 0.0
    vertex 17.76755009050128 -1.2531501704020518 0.0
  endloop
endfacet
facet normal 0.0 0.0 -1.0
  outer loop
    vertex 17.76755009050128 -1.2531501704020518 0.0
    vertex 19.999999999999996 -7.000000000000001 0.0
    vertex 17.482061632248904 -1.41534996050402 0.0
  endloop
endfacet
facet normal 0.0 0.0 -1.0
  outer loop
    vertex 17.482061632248904 -1.41534996050402 0.0
    vertex 19.999999999999996 -7.000000000000001 0.0
    vertex 17.16432056252546 -1.4981330766295067 0.0
  endloop
endfacet
facet normal 0.0 0.0 -1.0
  outer loop
    vertex 17.16432056252546 -1.4981330766295067 0.0
    vertex 19.999999999999996 -7.000000000000001 0.0
    vertex 17.008791000000002 -1.5 0.0
  endloop
endfacet
facet normal 0.0 0.0 -1.0
  outer loop
    vertex 17.008791000000002 -1.5 0.0
    vertex 19.999999999999996 -7.000000000000001 0.0
    vertex 3.9444772463629434 -2.2773450000000013 0.0
  endloop
endfacet
facet normal 0.0 0.0 -1.0
  outer loop
    vertex 3.9444772463629434 -2.2773450000000013 0.0
    vertex 19.999999999999996 -7.000000000000001 0.0
    vertex 3.2206521852025563 -3.220652185202555 0.0
  endloop
endfacet
facet normal 0.0 0.0 -1.0
  outer loop
    vertex 3.2206521852025563 -3.220652185202555 0.0
    vertex 19.999999999999996 -7.000000000000001 0.0
    vertex 2.2773449999999986 -3.9444772463629447 0.0
  endloop
endfacet
facet normal 0.0 0.0 -1.0
  outer loop
    vertex 2.2773449999999986 -3.9444772463629447 0.0
    vertex 19.999999999999996 -7.000000000000001 0.0
    vertex 1.1788405165379994 -4.399492701740558 0.0
  endloop
endfacet
facet normal 0.0 0.0 -1.0
  outer loop
    vertex 1.1788405165379994 -4.399492701740558 0.0
    vertex 19.999999999999996 -7.000000000000001 0.0
    vertex 0.0 -4.55469 0.0
  endloop
endfacet
facet normal 0.0 0.0 -1.0
  outer loop
    vertex 0.0 -4.55469 0.0
    vertex 19.999999999999996 -7.000000000000001 0.0
    vertex -5.05956404679174 -4.8374385429080515 0.0
  endloop
endfacet
facet normal 0.0 0.0 -1.0
  outer loop
    vertex -5.05956404679174 -4.8374385429080515 0.0
    vertex 19.999999999999996 -7.000000000000001 0.0
    vertex -4.605571081577988 -5.271500262025275 0.0
  endloop
endfacet
facet normal 0.0 0.0 -1.0
  outer loop
    vertex -4.605571081577988 -5.271500262025275 0.0
    vertex 19.999999999999996 -7.000000000000001 0.0
    vertex -4.114496766047313 -5.66311896062463 0.0
  endloop
endfacet
facet normal 0.0 0.0 -1.0
  outer loop
    vertex -4.114496766047313 -5.66311896062463 0.0
    vertex 19.999999999999996 -7.000000000000001 0.0
    vertex -3.590294941841344 -6.009141555213063 0.0
  endloop
endfacet
facet normal 0.0 0.0 -1.0
  outer loop
    vertex -3.590294941841344 -6.009141555213063 0.0
    vertex 19.999999999999996 -7.000000000000001 0.0
    vertex -3.037186173822908 -6.306782075316935 0.0
  endloop
endfacet
facet normal 0.0 0.0 -1.0
  outer loop
    vertex -3.037186173822908 -6.306782075316935 0.0
    vertex 19.999999999999996 -7.000000000000001 0.0
    vertex -2.4596237685694002 -6.553644094478161 0.0
  endloop
endfacet
facet normal 0.0 0.0 -1.0
  outer loop
    vertex -2.4596237685694002 -6.553644094478161 0.0
    vertex 19.999999999999996 -7.000000000000001 0.0
    vertex -1.862257918966727 -6.747740024870971 0.0
  endloop
endfacet
facet normal 0.0 0.0 -1.0
  outer loop
    vertex -1.862257918966727 -6.747740024870971 0.0
    vertex 19.999999999999996 -7.000000000000001 0.0
    vertex -1.2498982635904576 -6.887507120190407 0.0
  endloop
endfacet
facet normal 0.0 0.0 -1.0
  outer loop
    vertex -1.2498982635904576 -6.887507120190407 0.0
    vertex 19.999999999999996 -7.000000000000001 0.0
    vertex -0.6274751623240363 -6.971820057966674 0.0
  endloop
endfacet
facet normal 0.0 0.0 -1.0
  outer loop
    vertex -0.6274751623240363 -6.971820057966674 0.0
    vertex 19.999999999999996 -7.000000000000001 0.0
    vertex -1.4099832412739487e-15 -7.000000000000001 0.0
  endloop
endfacet
facet normal 0.0 0.0 -1.0
  outer loop
    vertex 1.4099832412739487e-15 4.55469 0.0
    vertex -5.472820377276207 4.364428613011136 0.0
    vertex -5.05956404679174 4.837438542908053 0.0
  endloop
endfacet
facet normal 0.0 0.0 -1.0
  outer loop
    vertex -5.472820377276207 4.364428613011136 0.0
    vertex 1.4099832412739487e-15 4.55469 0.0
    vertex -1.178840516537998 4.399492701740558 0.0
  endloop
endfacet
facet normal 0.0 0.0 -1.0
  outer loop
    vertex -5.472820377276207 4.364428613011136 0.0
    vertex -1.178840516537998 4.399492701740558 0.0
    vertex -2.2773449999999973 3.944477246362946 0.0
  endloop
endfacet
facet normal 0.0 0.0 -1.0
  outer loop
    vertex -5.472820377276207 4.364428613011136 0.0
    vertex -2.2773449999999973 3.944477246362946 0.0
    vertex -5.842012776049119 3.85627887016472 0.0
  endloop
endfacet
facet normal 0.0 0.0 -1.0
  outer loop
    vertex -5.842012776049119 3.85627887016472 0.0
    vertex -2.2773449999999973 3.944477246362946 0.0
    vertex -3.220652185202556 3.2206521852025563 0.0
  endloop
endfacet
facet normal 0.0 0.0 -1.0
  outer loop
    vertex -5.842012776049119 3.85627887016472 0.0
    vertex -3.220652185202556 3.2206521852025563 0.0
    vertex -6.164168722997166 3.317080637310991 0.0
  endloop
endfacet
facet normal 0.0 0.0 -1.0
  outer loop
    vertex -6.164168722997166 3.317080637310991 0.0
    vertex -3.220652185202556 3.2206521852025563 0.0
    vertex -6.436694407860153 2.751175221577466 0.0
  endloop
endfacet
facet normal 0.0 0.0 -1.0
  outer loop
    vertex -6.436694407860153 2.751175221577466 0.0
    vertex -3.220652185202556 3.2206521852025563 0.0
    vertex -3.9444772463629434 2.2773450000000013 0.0
  endloop
endfacet
facet normal 0.0 0.0 -1.0
  outer loop
    vertex -6.436694407860153 2.751175221577466 0.0
    vertex -3.9444772463629434 2.2773450000000013 0.0
    vertex -6.614525864444804 2.2773450000000013 0.0
  endloop
endfacet
facet normal 0.0 0.0 -1.0
  outer loop
    vertex -6.614525864444804 2.2773450000000013 0.0
    vertex -3.9444772463629434 2.2773450000000013 0.0
    vertex -4.399492701740555 1.1788405165380036 0.0
  endloop
endfacet
facet normal 0.0 0.0 -1.0
  outer loop
    vertex -6.614525864444804 2.2773450000000013 0.0
    vertex -4.399492701740555 1.1788405165380036 0.0
    vertex -6.6573956140660755 2.1631189606246326 0.0
  endloop
endfacet
facet normal 0.0 0.0 -1.0
  outer loop
    vertex -6.6573956140660755 2.1631189606246326 0.0
    vertex -4.399492701740555 1.1788405165380036 0.0
    vertex -6.824495385272765 1.557646537694202 0.0
  endloop
endfacet
facet normal 0.0 0.0 -1.0
  outer loop
    vertex -6.824495385272765 1.557646537694202 0.0
    vertex -4.399492701740555 1.1788405165380036 0.0
    vertex -6.936648332375543 0.9396328607235882 0.0
  endloop
endfacet
facet normal 0.0 0.0 -1.0
  outer loop
    vertex -6.936648332375543 0.9396328607235882 0.0
    vertex -4.399492701740555 1.1788405165380036 0.0
    vertex -4.55469 0.0 0.0
  endloop
endfacet
facet normal 0.0 0.0 -1.0
  outer loop
    vertex -6.936648332375543 0.9396328607235882 0.0
    vertex -4.55469 0.0 0.0
    vertex -6.992951465789202 0.31405381245360503 0.0
  endloop
endfacet
facet normal 0.0 0.0 -1.0
  outer loop
    vertex -6.992951465789202 0.31405381245360503 0.0
    vertex -4.55469 0.0 0.0
    vertex -6.992951465789203 -0.3140538124536022 0.0
  endloop
endfacet
facet normal 0.0 0.0 -1.0
  outer loop
    vertex -6.992951465789203 -0.3140538124536022 0.0
    vertex -4.55469 0.0 0.0
    vertex -4.399492701740557 -1.1788405165379994 0.0
  endloop
endfacet
facet normal 0.0 0.0 -1.0
  outer loop
    vertex -6.992951465789203 -0.3140538124536022 0.0
    vertex -4.399492701740557 -1.1788405165379994 0.0
    vertex -6.936648332375543 -0.9396328607235882 0.0
  endloop
endfacet
facet normal 0.0 0.0 -1.0
  outer loop
    vertex -6.936648332375543 -0.9396328607235882 0.0
    vertex -4.399492701740557 -1.1788405165379994 0.0
    vertex -6.824495385272765 -1.5576465376942006 0.0
  endloop
endfacet
facet normal 0.0 0.0 -1.0
  outer loop
    vertex -6.824495385272765 -1.5576465376942006 0.0
    vertex -4.399492701740557 -1.1788405165379994 0.0
    vertex -3.9444772463629447 -2.2773449999999986 0.0
  endloop
endfacet
facet normal 0.0 0.0 -1.0
  outer loop
    vertex -6.824495385272765 -1.5576465376942006 0.0
    vertex -3.9444772463629447 -2.2773449999999986 0.0
    vertex -6.6573956140660755 -2.1631189606246313 0.0
  endloop
endfacet
facet normal 0.0 0.0 -1.0
  outer loop
    vertex -6.6573956140660755 -2.1631189606246313 0.0
    vertex -3.9444772463629447 -2.2773449999999986 0.0
    vertex -6.436694407860155 -2.751175221577466 0.0
  endloop
endfacet
facet normal 0.0 0.0 -1.0
  outer loop
    vertex -6.436694407860155 -2.751175221577466 0.0
    vertex -3.9444772463629447 -2.2773449999999986 0.0
    vertex -3.2206521852025563 -3.220652185202555 0.0
  endloop
endfacet
facet normal 0.0 0.0 -1.0
  outer loop
    vertex -6.436694407860155 -2.751175221577466 0.0
    vertex -3.2206521852025563 -3.220652185202555 0.0
    vertex -6.164168722997166 -3.317080637310991 0.0
  endloop
endfacet
facet normal 0.0 0.0 -1.0
  outer loop
    vertex -6.164168722997166 -3.317080637310991 0.0
    vertex -3.2206521852025563 -3.220652185202555 0.0
    vertex -2.277345 -3.9444772463629447 0.0
  endloop
endfacet
facet normal 0.0 0.0 -1.0
  outer loop
    vertex -6.164168722997166 -3.317080637310991 0.0
    vertex -2.277345 -3.9444772463629447 0.0
    vertex -5.84201277604912 -3.856278870164717 0.0
  endloop
endfacet
facet normal 0.0 0.0 -1.0
  outer loop
    vertex -5.84201277604912 -3.856278870164717 0.0
    vertex -2.277345 -3.9444772463629447 0.0
    vertex -5.47282037727621 -4.364428613011134 0.0
  endloop
endfacet
facet normal 0.0 0.0 -1.0
  outer loop
    vertex -5.47282037727621 -4.364428613011134 0.0
    vertex -2.277345 -3.9444772463629447 0.0
    vertex -1.178840516538001 -4.399492701740558 0.0
  endloop
endfacet
facet normal 0.0 0.0 -1.0
  outer loop
    vertex -5.47282037727621 -4.364428613011134 0.0
    vertex -1.178840516538001 -4.399492701740558 0.0
    vertex -5.05956404679174 -4.8374385429080515 0.0
  endloop
endfacet
facet normal 0.0 0.0 -1.0
  outer loop
    vertex -5.05956404679174 -4.8374385429080515 0.0
    vertex -1.178840516538001 -4.399492701740558 0.0
    vertex 0.0 -4.55469 0.0
  endloop
endfacet
facet normal 0.0 0.0 -1.0
  outer loop
    vertex 4.399492701740556 1.178840516537998 0.0
    vertex 16.853261437474544 0.9981330766295047 0.0
    vertex 4.55469 0.0 0.0
  endloop
endfacet
facet normal 0.0 0.0 -1.0
  outer loop
    vertex 16.853261437474544 0.9981330766295047 0.0
    vertex 4.399492701740556 1.178840516537998 0.0
    vertex 17.008791000000002 0.9999999999999996 0.0
  endloop
endfacet
facet normal 0.0 0.0 -1.0
  outer loop
    vertex 4.55469 0.0 0.0
    vertex 16.853261437474544 0.9981330766295047 0.0
    vertex 16.535520367751094 0.9153499605040195 0.0
  endloop
endfacet
facet normal 0.0 0.0 -1.0
  outer loop
    vertex 4.55469 0.0 0.0
    vertex 16.535520367751094 0.9153499605040195 0.0
    vertex 16.250031909498716 0.75315017040205 0.0
  endloop
endfacet
facet normal 0.0 0.0 -1.0
  outer loop
    vertex 4.55469 0.0 0.0
    vertex 16.250031909498716 0.75315017040205 0.0
    vertex 16.016251629355317 0.5225873539712211 0.0
  endloop
endfacet
facet normal 0.0 0.0 -1.0
  outer loop
    vertex 4.55469 0.0 0.0
    vertex 16.016251629355317 0.5225873539712211 0.0
    vertex 15.850111267072489 0.2393739861282233 0.0
  endloop
endfacet
facet normal 0.0 0.0 -1.0
  outer loop
    vertex 4.55469 0.0 0.0
    vertex 15.850111267072489 0.2393739861282233 0.0
    vertex 15.762933013779877 -0.07718941014066373 0.0
  endloop
endfacet
facet normal 0.0 0.0 -1.0
  outer loop
    vertex 4.55469 0.0 0.0
    vertex 15.762933013779877 -0.07718941014066373 0.0
    vertex 4.399492701740556 -1.1788405165380023 0.0
  endloop
endfacet
facet normal 0.0 0.0 -1.0
  outer loop
    vertex 4.399492701740556 -1.1788405165380023 0.0
    vertex 15.762933013779877 -0.07718941014066373 0.0
    vertex 15.760657923370495 -0.4055295625254619 0.0
  endloop
endfacet
facet normal 0.0 0.0 -1.0
  outer loop
    vertex 4.399492701740556 -1.1788405165380023 0.0
    vertex 15.760657923370495 -0.4055295625254619 0.0
    vertex 15.84344103949598 -0.723270632248904 0.0
  endloop
endfacet
facet normal 0.0 0.0 -1.0
  outer loop
    vertex 4.399492701740556 -1.1788405165380023 0.0
    vertex 15.84344103949598 -0.723270632248904 0.0
    vertex 16.005640829597947 -1.0087590905012809 0.0
  endloop
endfacet
facet normal 0.0 0.0 -1.0
  outer loop
    vertex 4.399492701740556 -1.1788405165380023 0.0
    vertex 16.005640829597947 -1.0087590905012809 0.0
    vertex 16.23620364602878 -1.2425393706446841 0.0
  endloop
endfacet
facet normal 0.0 0.0 -1.0
  outer loop
    vertex 4.399492701740556 -1.1788405165380023 0.0
    vertex 16.23620364602878 -1.2425393706446841 0.0
    vertex 3.9444772463629434 -2.2773450000000013 0.0
  endloop
endfacet
facet normal 0.0 0.0 -1.0
  outer loop
    vertex 3.9444772463629434 -2.2773450000000013 0.0
    vertex 16.23620364602878 -1.2425393706446841 0.0
    vertex 16.519417013871777 -1.4086797329275142 0.0
  endloop
endfacet
facet normal 0.0 0.0 -1.0
  outer loop
    vertex 3.9444772463629434 -2.2773450000000013 0.0
    vertex 16.519417013871777 -1.4086797329275142 0.0
    vertex 16.83598041014066 -1.495857986220126 0.0
  endloop
endfacet
facet normal 0.0 0.0 -1.0
  outer loop
    vertex 3.9444772463629434 -2.2773450000000013 0.0
    vertex 16.83598041014066 -1.495857986220126 0.0
    vertex 17.008791000000002 -1.5 0.0
  endloop
endfacet
facet normal -0.3826834323650904 -0.9238795325112867 0.0
  outer loop
    vertex 2.2773450000000026 3.9444772463629434 0.0
    vertex 1.1788405165380036 4.399492701740554 3.193863
    vertex 1.1788405165380036 4.399492701740554 0.0
  endloop
endfacet
facet normal -0.3826834323650904 -0.9238795325112867 0.0
  outer loop
    vertex 1.1788405165380036 4.399492701740554 3.193863
    vertex 2.2773450000000026 3.9444772463629434 0.0
    vertex 2.2773450000000026 3.9444772463629434 3.193863
  endloop
endfacet
facet normal -0.13052619222005224 -0.9914448613738103 0.0
  outer loop
    vertex 1.1788405165380036 4.399492701740554 0.0
    vertex 1.4099832412739487e-15 4.55469 3.193863
    vertex 1.4099832412739487e-15 4.55469 0.0
  endloop
endfacet
facet normal -0.13052619222005224 -0.9914448613738103 0.0
  outer loop
    vertex 1.4099832412739487e-15 4.55469 3.193863
    vertex 1.1788405165380036 4.399492701740554 0.0
    vertex 1.1788405165380036 4.399492701740554 3.193863
  endloop
endfacet
facet normal 0.1305261922200515 -0.9914448613738105 0.0
  outer loop
    vertex 1.4099832412739487e-15 4.55469 0.0
    vertex -1.178840516537998 4.399492701740558 3.193863
    vertex -1.178840516537998 4.399492701740558 0.0
  endloop
endfacet
facet normal 0.1305261922200515 -0.9914448613738105 0.0
  outer loop
    vertex -1.178840516537998 4.399492701740558 3.193863
    vertex 1.4099832412739487e-15 4.55469 0.0
    vertex 1.4099832412739487e-15 4.55469 3.193863
  endloop
endfacet
facet normal 0.3826834323650892 -0.9238795325112871 0.0
  outer loop
    vertex -1.178840516537998 4.399492701740558 0.0
    vertex -2.2773449999999973 3.944477246362946 3.193863
    vertex -2.2773449999999973 3.944477246362946 0.0
  endloop
endfacet
facet normal 0.3826834323650892 -0.9238795325112871 0.0
  outer loop
    vertex -2.2773449999999973 3.944477246362946 3.193863
    vertex -1.178840516537998 4.399492701740558 0.0
    vertex -1.178840516537998 4.399492701740558 3.193863
  endloop
endfacet
facet normal 0.6087614290087201 -0.7933533402912356 0.0
  outer loop
    vertex -2.2773449999999973 3.944477246362946 0.0
    vertex -3.220652185202556 3.2206521852025563 3.193863
    vertex -3.220652185202556 3.2206521852025563 0.0
  endloop
endfacet
facet normal 0.6087614290087201 -0.7933533402912356 0.0
  outer loop
    vertex -3.220652185202556 3.2206521852025563 3.193863
    vertex -2.2773449999999973 3.944477246362946 0.0
    vertex -2.2773449999999973 3.944477246362946 3.193863
  endloop
endfacet
facet normal 0.793353340291235 -0.6087614290087208 0.0
  outer loop
    vertex -3.220652185202556 3.2206521852025563 3.193863
    vertex -3.9444772463629434 2.2773450000000013 0.0
    vertex -3.220652185202556 3.2206521852025563 0.0
  endloop
endfacet
facet normal 0.793353340291235 -0.6087614290087208 0.0
  outer loop
    vertex -3.9444772463629434 2.2773450000000013 0.0
    vertex -3.220652185202556 3.2206521852025563 3.193863
    vertex -3.9444772463629434 2.2773450000000013 3.193863
  endloop
endfacet
facet normal 0.9238795325112866 -0.38268343236509034 0.0
  outer loop
    vertex -3.9444772463629434 2.2773450000000013 3.193863
    vertex -4.399492701740555 1.1788405165380036 0.0
    vertex -3.9444772463629434 2.2773450000000013 0.0
  endloop
endfacet
facet normal 0.9238795325112866 -0.38268343236509034 0.0
  outer loop
    vertex -4.399492701740555 1.1788405165380036 0.0
    vertex -3.9444772463629434 2.2773450000000013 3.193863
    vertex -4.399492701740555 1.1788405165380036 3.193863
  endloop
endfacet
facet normal 0.9914448613738105 -0.13052619222005216 0.0
  outer loop
    vertex -4.399492701740555 1.1788405165380036 3.193863
    vertex -4.55469 0.0 0.0
    vertex -4.399492701740555 1.1788405165380036 0.0
  endloop
endfacet
facet normal 0.9914448613738105 -0.13052619222005216 0.0
  outer loop
    vertex -4.55469 0.0 0.0
    vertex -4.399492701740555 1.1788405165380036 3.193863
    vertex -4.55469 0.0 3.193863
  endloop
endfacet
facet normal 0.9914448613738106 0.13052619222005135 0.0
  outer loop
    vertex -4.55469 0.0 3.193863
    vertex -4.399492701740557 -1.1788405165379994 0.0
    vertex -4.55469 0.0 0.0
  endloop
endfacet
facet normal 0.9914448613738106 0.13052619222005135 0.0
  outer loop
    vertex -4.399492701740557 -1.1788405165379994 0.0
    vertex -4.55469 0.0 3.193863
    vertex -4.399492701740557 -1.1788405165379994 3.193863
  endloop
endfacet
facet normal 0.9238795325112867 0.38268343236509 0.0
  outer loop
    vertex -4.399492701740557 -1.1788405165379994 3.193863
    vertex -3.9444772463629447 -2.2773449999999986 0.0
    vertex -4.399492701740557 -1.1788405165379994 0.0
  endloop
endfacet
facet normal 0.9238795325112867 0.38268343236509 0.0
  outer loop
    vertex -3.9444772463629447 -2.2773449999999986 0.0
    vertex -4.399492701740557 -1.1788405165379994 3.193863
    vertex -3.9444772463629447 -2.2773449999999986 3.193863
  endloop
endfacet
facet normal 0.13052619222005185 0.9914448613738105 0.0
  outer loop
    vertex 0.0 -4.55469 3.193863
    vertex -1.178840516538001 -4.399492701740558 0.0
    vertex -1.178840516538001 -4.399492701740558 3.193863
  endloop
endfacet
facet normal 0.13052619222005185 0.9914448613738105 0.0
  outer loop
    vertex -1.178840516538001 -4.399492701740558 0.0
    vertex 0.0 -4.55469 3.193863
    vertex 0.0 -4.55469 0.0
  endloop
endfacet
facet normal -0.13052619222005138 0.9914448613738106 0.0
  outer loop
    vertex 1.1788405165379994 -4.399492701740558 3.193863
    vertex 0.0 -4.55469 0.0
    vertex 0.0 -4.55469 3.193863
  endloop
endfacet
facet normal -0.13052619222005138 0.9914448613738106 0.0
  outer loop
    vertex 0.0 -4.55469 0.0
    vertex 1.1788405165379994 -4.399492701740558 3.193863
    vertex 1.1788405165379994 -4.399492701740558 0.0
  endloop
endfacet
facet normal 0.7933533402912354 0.6087614290087205 0.0
  outer loop
    vertex -3.9444772463629447 -2.2773449999999986 3.193863
    vertex -3.2206521852025563 -3.220652185202555 0.0
    vertex -3.9444772463629447 -2.2773449999999986 0.0
  endloop
endfacet
facet normal 0.7933533402912354 0.6087614290087205 0.0
  outer loop
    vertex -3.2206521852025563 -3.220652185202555 0.0
    vertex -3.9444772463629447 -2.2773449999999986 3.193863
    vertex -3.2206521852025563 -3.220652185202555 3.193863
  endloop
endfacet
facet normal -0.7933533402912354 -0.6087614290087204 0.0
  outer loop
    vertex 3.944477246362946 2.2773449999999986 3.193863
    vertex 3.220652185202558 3.220652185202555 0.0
    vertex 3.944477246362946 2.2773449999999986 0.0
  endloop
endfacet
facet normal -0.7933533402912354 -0.6087614290087204 0.0
  outer loop
    vertex 3.220652185202558 3.220652185202555 0.0
    vertex 3.944477246362946 2.2773449999999986 3.193863
    vertex 3.220652185202558 3.220652185202555 3.193863
  endloop
endfacet
facet normal 0.6087614290087209 0.793353340291235 0.0
  outer loop
    vertex -2.277345 -3.9444772463629447 3.193863
    vertex -3.2206521852025563 -3.220652185202555 0.0
    vertex -3.2206521852025563 -3.220652185202555 3.193863
  endloop
endfacet
facet normal 0.6087614290087209 0.793353340291235 0.0
  outer loop
    vertex -3.2206521852025563 -3.220652185202555 0.0
    vertex -2.277345 -3.9444772463629447 3.193863
    vertex -2.277345 -3.9444772463629447 0.0
  endloop
endfacet
facet normal -0.023961636397167235 -0.999712878771285 0.0
  outer loop
    vertex 17.181601589859337 0.9958579862201241 0.0
    vertex 17.008791000000002 0.9999999999999996 5.0
    vertex 17.008791000000002 0.9999999999999996 0.0
  endloop
endfacet
facet normal -0.023961636397167235 -0.999712878771285 0.0
  outer loop
    vertex 17.008791000000002 0.9999999999999996 5.0
    vertex 17.181601589859337 0.9958579862201241 0.0
    vertex 17.181601589859337 0.9958579862201241 5.0
  endloop
endfacet
facet normal 0.0 1.0 0.0
  outer loop
    vertex 19.999999999999996 7.000000000000001 5.0
    vertex 9.999999999999998 7.000000000000001 3.193863
    vertex 9.999999999999998 7.000000000000001 5.0
  endloop
endfacet
facet normal 0.0 1.0 0.0
  outer loop
    vertex 9.999999999999998 7.000000000000001 3.193863
    vertex 0.0 7.000000000000001 0.0
    vertex 0.0 7.000000000000001 3.193863
  endloop
endfacet
facet normal 0.0 1.0 0.0
  outer loop
    vertex 0.0 7.000000000000001 0.0
    vertex 9.999999999999998 7.000000000000001 3.193863
    vertex 19.999999999999996 7.000000000000001 0.0
  endloop
endfacet
facet normal 0.0 1.0 0.0
  outer loop
    vertex 19.999999999999996 7.000000000000001 0.0
    vertex 9.999999999999998 7.000000000000001 3.193863
    vertex 19.999999999999996 7.000000000000001 5.0
  endloop
endfacet
facet normal -0.8625401651855681 0.5059886001103712 0.0
  outer loop
    vertex 18.01458070271894 -1.0000000000000009 5.0
    vertex 18.167470732927512 -0.7393739861282252 0.0
    vertex 18.01458070271894 -1.0000000000000009 0.0
  endloop
endfacet
facet normal -0.8625401651855681 0.5059886001103712 0.0
  outer loop
    vertex 18.167470732927512 -0.7393739861282252 0.0
    vertex 18.01458070271894 -1.0000000000000009 5.0
    vertex 18.167470732927512 -0.7393739861282252 5.0
  endloop
endfacet
facet normal 0.2521200295073493 -0.9676959701896116 0.0
  outer loop
    vertex 16.853261437474544 0.9981330766295047 0.0
    vertex 16.535520367751094 0.9153499605040195 5.0
    vertex 16.535520367751094 0.9153499605040195 0.0
  endloop
endfacet
facet normal 0.2521200295073493 -0.9676959701896116 0.0
  outer loop
    vertex 16.535520367751094 0.9153499605040195 5.0
    vertex 16.853261437474544 0.9981330766295047 0.0
    vertex 16.853261437474544 0.9981330766295047 5.0
  endloop
endfacet
facet normal -0.5059886001103676 -0.86254016518557 0.0
  outer loop
    vertex 17.781378353971224 0.7425393706446823 0.0
    vertex 17.498164986128224 0.9086797329275109 5.0
    vertex 17.498164986128224 0.9086797329275109 0.0
  endloop
endfacet
facet normal -0.5059886001103676 -0.86254016518557 0.0
  outer loop
    vertex 17.498164986128224 0.9086797329275109 5.0
    vertex 17.781378353971224 0.7425393706446823 0.0
    vertex 17.781378353971224 0.7425393706446823 5.0
  endloop
endfacet
facet normal -1.0 0.0 0.0
  outer loop
    vertex 9.999999999999998 -7.000000000000001 5.0
    vertex 9.999999999999998 7.000000000000001 3.193863
    vertex 9.999999999999998 -7.000000000000001 3.193863
  endloop
endfacet
facet normal -1.0 0.0 0.0
  outer loop
    vertex 9.999999999999998 7.000000000000001 3.193863
    vertex 9.999999999999998 -7.000000000000001 5.0
    vertex 9.999999999999998 7.000000000000001 5.0
  endloop
endfacet
facet normal 0.0 1.0 0.0
  outer loop
    vertex 19.999999999999996 -0.7393739861282252 5.0
    vertex 18.167470732927512 -0.7393739861282252 0.0
    vertex 18.167470732927512 -0.7393739861282252 5.0
  endloop
endfacet
facet normal 0.0 1.0 0.0
  outer loop
    vertex 18.167470732927512 -0.7393739861282252 0.0
    vertex 19.999999999999996 -0.7393739861282252 5.0
    vertex 19.999999999999996 -0.7393739861282252 0.0
  endloop
endfacet
facet normal 1.0 0.0 0.0
  outer loop
    vertex 19.999999999999996 -0.7393739861282252 5.0
    vertex 19.999999999999996 -7.000000000000001 0.0
    vertex 19.999999999999996 -0.7393739861282252 0.0
  endloop
endfacet
facet normal 1.0 0.0 0.0
  outer loop
    vertex 19.999999999999996 -7.000000000000001 0.0
    vertex 19.999999999999996 -0.7393739861282252 5.0
    vertex 19.999999999999996 -7.000000000000001 5.0
  endloop
endfacet
facet normal 1.0 0.0 0.0
  outer loop
    vertex 19.999999999999996 7.000000000000001 5.0
    vertex 19.999999999999996 0.49999999999999906 0.0
    vertex 19.999999999999996 7.000000000000001 0.0
  endloop
endfacet
facet normal 1.0 0.0 0.0
  outer loop
    vertex 19.999999999999996 0.49999999999999906 0.0
    vertex 19.999999999999996 7.000000000000001 5.0
    vertex 19.999999999999996 0.49999999999999906 5.0
  endloop
endfacet
facet normal 0.4939873947799468 -0.8694690643136885 0.0
  outer loop
    vertex 16.535520367751094 0.9153499605040195 0.0
    vertex 16.250031909498716 0.75315017040205 5.0
    vertex 16.250031909498716 0.75315017040205 0.0
  endloop
endfacet
facet normal 0.4939873947799468 -0.8694690643136885 0.0
  outer loop
    vertex 16.250031909498716 0.75315017040205 5.0
    vertex 16.535520367751094 0.9153499605040195 0.0
    vertex 16.535520367751094 0.9153499605040195 5.0
  endloop
endfacet
facet normal 0.7021903354510541 -0.7119892785703562 0.0
  outer loop
    vertex 16.250031909498716 0.75315017040205 0.0
    vertex 16.016251629355317 0.5225873539712211 5.0
    vertex 16.016251629355317 0.5225873539712211 0.0
  endloop
endfacet
facet normal 0.7021903354510541 -0.7119892785703562 0.0
  outer loop
    vertex 16.016251629355317 0.5225873539712211 5.0
    vertex 16.250031909498716 0.75315017040205 0.0
    vertex 16.250031909498716 0.75315017040205 5.0
  endloop
endfacet
facet normal 0.8625401651855681 -0.5059886001103711 0.0
  outer loop
    vertex 16.016251629355317 0.5225873539712211 5.0
    vertex 15.850111267072489 0.2393739861282233 0.0
    vertex 16.016251629355317 0.5225873539712211 0.0
  endloop
endfacet
facet normal 0.8625401651855681 -0.5059886001103711 0.0
  outer loop
    vertex 15.850111267072489 0.2393739861282233 0.0
    vertex 16.016251629355317 0.5225873539712211 5.0
    vertex 15.850111267072489 0.2393739861282233 5.0
  endloop
endfacet
facet normal -0.711989278570355 -0.7021903354510554 0.0
  outer loop
    vertex 18.011941170402054 0.5087590905012819 5.0
    vertex 17.781378353971224 0.7425393706446823 0.0
    vertex 18.011941170402054 0.5087590905012819 0.0
  endloop
endfacet
facet normal -0.711989278570355 -0.7021903354510554 0.0
  outer loop
    vertex 17.781378353971224 0.7425393706446823 0.0
    vertex 18.011941170402054 0.5087590905012819 5.0
    vertex 17.781378353971224 0.7425393706446823 5.0
  endloop
endfacet
facet normal -6.930565841965527e-17 -1.0 -2.6432184137575316e-17
  outer loop
    vertex 19.999999999999996 -7.000000000000001 0.0
    vertex -1.4099832412739487e-15 -7.000000000000001 3.193863
    vertex -1.4099832412739487e-15 -7.000000000000001 0.0
  endloop
endfacet
facet normal -6.930565841965527e-17 -1.0 -2.6432184137575316e-17
  outer loop
    vertex -1.4099832412739487e-15 -7.000000000000001 3.193863
    vertex 19.999999999999996 -7.000000000000001 0.0
    vertex 9.999999999999998 -7.000000000000001 3.193863
  endloop
endfacet
facet normal -6.930565841965527e-17 -1.0 -2.6432184137575316e-17
  outer loop
    vertex 9.999999999999998 -7.000000000000001 3.193863
    vertex 19.999999999999996 -7.000000000000001 0.0
    vertex 9.999999999999998 -7.000000000000001 5.0
  endloop
endfacet
facet normal -6.930565841965527e-17 -1.0 -2.6432184137575316e-17
  outer loop
    vertex 9.999999999999998 -7.000000000000001 5.0
    vertex 19.999999999999996 -7.000000000000001 0.0
    vertex 19.999999999999996 -7.000000000000001 5.0
  endloop
endfacet
facet normal -0.2655056347385569 -0.9641093080777077 0.0
  outer loop
    vertex 17.498164986128224 0.9086797329275109 0.0
    vertex 17.181601589859337 0.9958579862201241 5.0
    vertex 17.181601589859337 0.9958579862201241 0.0
  endloop
endfacet
facet normal -0.2655056347385569 -0.9641093080777077 0.0
  outer loop
    vertex 17.181601589859337 0.9958579862201241 5.0
    vertex 17.498164986128224 0.9086797329275109 0.0
    vertex 17.498164986128224 0.9086797329275109 5.0
  endloop
endfacet
facet normal 0.0 0.0 1.0
  outer loop
    vertex 9.999999999999998 -7.000000000000001 5.0
    vertex 19.999999999999996 7.000000000000001 5.0
    vertex 9.999999999999998 7.000000000000001 5.0
  endloop
endfacet
facet normal 0.0 0.0 1.0
  outer loop
    vertex 19.999999999999996 7.000000000000001 5.0
    vertex 9.999999999999998 -7.000000000000001 5.0
    vertex 16.016251629355317 0.5225873539712211 5.0
  endloop
endfacet
facet normal 0.0 0.0 1.0
  outer loop
    vertex 19.999999999999996 7.000000000000001 5.0
    vertex 16.016251629355317 0.5225873539712211 5.0
    vertex 16.250031909498716 0.75315017040205 5.0
  endloop
endfacet
facet normal 0.0 0.0 1.0
  outer loop
    vertex 19.999999999999996 7.000000000000001 5.0
    vertex 16.250031909498716 0.75315017040205 5.0
    vertex 16.535520367751094 0.9153499605040195 5.0
  endloop
endfacet
facet normal 0.0 0.0 1.0
  outer loop
    vertex 19.999999999999996 7.000000000000001 5.0
    vertex 16.535520367751094 0.9153499605040195 5.0
    vertex 16.853261437474544 0.9981330766295047 5.0
  endloop
endfacet
facet normal 0.0 0.0 1.0
  outer loop
    vertex 19.999999999999996 7.000000000000001 5.0
    vertex 16.853261437474544 0.9981330766295047 5.0
    vertex 17.008791000000002 0.9999999999999996 5.0
  endloop
endfacet
facet normal 0.0 0.0 1.0
  outer loop
    vertex 16.016251629355317 0.5225873539712211 5.0
    vertex 9.999999999999998 -7.000000000000001 5.0
    vertex 15.850111267072489 0.2393739861282233 5.0
  endloop
endfacet
facet normal 0.0 0.0 1.0
  outer loop
    vertex 15.850111267072489 0.2393739861282233 5.0
    vertex 9.999999999999998 -7.000000000000001 5.0
    vertex 15.762933013779877 -0.07718941014066373 5.0
  endloop
endfacet
facet normal 0.0 0.0 1.0
  outer loop
    vertex 15.762933013779877 -0.07718941014066373 5.0
    vertex 9.999999999999998 -7.000000000000001 5.0
    vertex 15.760657923370495 -0.4055295625254619 5.0
  endloop
endfacet
facet normal 0.0 0.0 1.0
  outer loop
    vertex 15.760657923370495 -0.4055295625254619 5.0
    vertex 9.999999999999998 -7.000000000000001 5.0
    vertex 15.84344103949598 -0.723270632248904 5.0
  endloop
endfacet
facet normal 0.0 0.0 1.0
  outer loop
    vertex 15.84344103949598 -0.723270632248904 5.0
    vertex 9.999999999999998 -7.000000000000001 5.0
    vertex 16.005640829597947 -1.0087590905012809 5.0
  endloop
endfacet
facet normal 0.0 0.0 1.0
  outer loop
    vertex 16.005640829597947 -1.0087590905012809 5.0
    vertex 9.999999999999998 -7.000000000000001 5.0
    vertex 16.23620364602878 -1.2425393706446841 5.0
  endloop
endfacet
facet normal 0.0 0.0 1.0
  outer loop
    vertex 16.23620364602878 -1.2425393706446841 5.0
    vertex 9.999999999999998 -7.000000000000001 5.0
    vertex 16.519417013871777 -1.4086797329275142 5.0
  endloop
endfacet
facet normal 0.0 0.0 1.0
  outer loop
    vertex 16.519417013871777 -1.4086797329275142 5.0
    vertex 9.999999999999998 -7.000000000000001 5.0
    vertex 16.83598041014066 -1.495857986220126 5.0
  endloop
endfacet
facet normal 0.0 0.0 1.0
  outer loop
    vertex 16.83598041014066 -1.495857986220126 5.0
    vertex 9.999999999999998 -7.000000000000001 5.0
    vertex 17.008791000000002 -1.5 5.0
  endloop
endfacet
facet normal 0.0 0.0 1.0
  outer loop
    vertex 18.01458070271894 -1.0000000000000009 5.0
    vertex 19.999999999999996 -0.7393739861282252 5.0
    vertex 18.167470732927512 -0.7393739861282252 5.0
  endloop
endfacet
facet normal 0.0 0.0 1.0
  outer loop
    vertex 19.999999999999996 -0.7393739861282252 5.0
    vertex 18.01458070271894 -1.0000000000000009 5.0
    vertex 19.999999999999996 -7.000000000000001 5.0
  endloop
endfacet
facet normal 0.0 0.0 1.0
  outer loop
    vertex 19.999999999999996 -7.000000000000001 5.0
    vertex 18.01458070271894 -1.0000000000000009 5.0
    vertex 18.00133037064468 -1.0225873539712245 5.0
  endloop
endfacet
facet normal 0.0 0.0 1.0
  outer loop
    vertex 19.999999999999996 -7.000000000000001 5.0
    vertex 18.00133037064468 -1.0225873539712245 5.0
    vertex 17.76755009050128 -1.2531501704020518 5.0
  endloop
endfacet
facet normal 0.0 0.0 1.0
  outer loop
    vertex 19.999999999999996 -7.000000000000001 5.0
    vertex 17.76755009050128 -1.2531501704020518 5.0
    vertex 17.482061632248904 -1.41534996050402 5.0
  endloop
endfacet
facet normal 0.0 0.0 1.0
  outer loop
    vertex 19.999999999999996 -7.000000000000001 5.0
    vertex 17.482061632248904 -1.41534996050402 5.0
    vertex 17.16432056252546 -1.4981330766295067 5.0
  endloop
endfacet
facet normal 0.0 0.0 1.0
  outer loop
    vertex 19.999999999999996 -7.000000000000001 5.0
    vertex 17.16432056252546 -1.4981330766295067 5.0
    vertex 17.008791000000002 -1.5 5.0
  endloop
endfacet
facet normal 0.0 0.0 1.0
  outer loop
    vertex 19.999999999999996 -7.000000000000001 5.0
    vertex 17.008791000000002 -1.5 5.0
    vertex 9.999999999999998 -7.000000000000001 5.0
  endloop
endfacet
facet normal 0.0 0.0 1.0
  outer loop
    vertex 19.999999999999996 7.000000000000001 5.0
    vertex 17.181601589859337 0.9958579862201241 5.0
    vertex 19.999999999999996 0.49999999999999906 5.0
  endloop
endfacet
facet normal 0.0 0.0 1.0
  outer loop
    vertex 17.181601589859337 0.9958579862201241 5.0
    vertex 19.999999999999996 7.000000000000001 5.0
    vertex 17.008791000000002 0.9999999999999996 5.0
  endloop
endfacet
facet normal 0.0 0.0 1.0
  outer loop
    vertex 19.999999999999996 0.49999999999999906 5.0
    vertex 17.181601589859337 0.9958579862201241 5.0
    vertex 17.498164986128224 0.9086797329275109 5.0
  endloop
endfacet
facet normal 0.0 0.0 1.0
  outer loop
    vertex 19.999999999999996 0.49999999999999906 5.0
    vertex 17.498164986128224 0.9086797329275109 5.0
    vertex 17.781378353971224 0.7425393706446823 5.0
  endloop
endfacet
facet normal 0.0 0.0 1.0
  outer loop
    vertex 19.999999999999996 0.49999999999999906 5.0
    vertex 17.781378353971224 0.7425393706446823 5.0
    vertex 18.011941170402054 0.5087590905012819 5.0
  endloop
endfacet
facet normal -0.49398739477994663 0.8694690643136888 0.0
  outer loop
    vertex 17.76755009050128 -1.2531501704020518 5.0
    vertex 17.482061632248904 -1.41534996050402 0.0
    vertex 17.482061632248904 -1.41534996050402 5.0
  endloop
endfacet
facet normal -0.49398739477994663 0.8694690643136888 0.0
  outer loop
    vertex 17.482061632248904 -1.41534996050402 0.0
    vertex 17.76755009050128 -1.2531501704020518 5.0
    vertex 17.76755009050128 -1.2531501704020518 0.0
  endloop
endfacet
facet normal 0.012002791329913026 -0.9999279639055458 0.0
  outer loop
    vertex 17.008791000000002 0.9999999999999996 0.0
    vertex 16.853261437474544 0.9981330766295047 5.0
    vertex 16.853261437474544 0.9981330766295047 0.0
  endloop
endfacet
facet normal 0.012002791329913026 -0.9999279639055458 0.0
  outer loop
    vertex 16.853261437474544 0.9981330766295047 5.0
    vertex 17.008791000000002 0.9999999999999996 0.0
    vertex 17.008791000000002 0.9999999999999996 5.0
  endloop
endfacet
facet normal 0.9641093080777082 -0.2655056347385545 0.0
  outer loop
    vertex 15.850111267072489 0.2393739861282233 5.0
    vertex 15.762933013779877 -0.07718941014066373 0.0
    vertex 15.850111267072489 0.2393739861282233 0.0
  endloop
endfacet
facet normal 0.9641093080777082 -0.2655056347385545 0.0
  outer loop
    vertex 15.762933013779877 -0.07718941014066373 0.0
    vertex 15.850111267072489 0.2393739861282233 5.0
    vertex 15.762933013779877 -0.07718941014066373 5.0
  endloop
endfacet
facet normal -0.004405807996465256 -0.9999902943808497 0.0
  outer loop
    vertex 19.999999999999996 0.49999999999999906 0.0
    vertex 18.011941170402054 0.5087590905012819 5.0
    vertex 18.011941170402054 0.5087590905012819 0.0
  endloop
endfacet
facet normal -0.004405807996465256 -0.9999902943808497 0.0
  outer loop
    vertex 18.011941170402054 0.5087590905012819 5.0
    vertex 19.999999999999996 0.49999999999999906 0.0
    vertex 19.999999999999996 0.49999999999999906 5.0
  endloop
endfacet
facet normal 0.9999759948903136 -0.006928899128128225 0.0
  outer loop
    vertex 15.762933013779877 -0.07718941014066373 5.0
    vertex 15.760657923370495 -0.4055295625254619 0.0
    vertex 15.762933013779877 -0.07718941014066373 0.0
  endloop
endfacet
facet normal 0.9999759948903136 -0.006928899128128225 0.0
  outer loop
    vertex 15.760657923370495 -0.4055295625254619 0.0
    vertex 15.762933013779877 -0.07718941014066373 5.0
    vertex 15.760657923370495 -0.4055295625254619 5.0
  endloop
endfacet
facet normal 0.9676959701896107 0.25212002950735257 0.0
  outer loop
    vertex 15.760657923370495 -0.4055295625254619 5.0
    vertex 15.84344103949598 -0.723270632248904 0.0
    vertex 15.760657923370495 -0.4055295625254619 0.0
  endloop
endfacet
facet normal 0.9676959701896107 0.25212002950735257 0.0
  outer loop
    vertex 15.84344103949598 -0.723270632248904 0.0
    vertex 15.760657923370495 -0.4055295625254619 5.0
    vertex 15.84344103949598 -0.723270632248904 5.0
  endloop
endfacet
facet normal 0.8694690643136909 0.4939873947799429 0.0
  outer loop
    vertex 15.84344103949598 -0.723270632248904 5.0
    vertex 16.005640829597947 -1.0087590905012809 0.0
    vertex 15.84344103949598 -0.723270632248904 0.0
  endloop
endfacet
facet normal 0.8694690643136909 0.4939873947799429 0.0
  outer loop
    vertex 16.005640829597947 -1.0087590905012809 0.0
    vertex 15.84344103949598 -0.723270632248904 5.0
    vertex 16.005640829597947 -1.0087590905012809 5.0
  endloop
endfacet
facet normal 0.7119892785703557 0.7021903354510547 0.0
  outer loop
    vertex 16.005640829597947 -1.0087590905012809 5.0
    vertex 16.23620364602878 -1.2425393706446841 0.0
    vertex 16.005640829597947 -1.0087590905012809 0.0
  endloop
endfacet
facet normal 0.7119892785703557 0.7021903354510547 0.0
  outer loop
    vertex 16.23620364602878 -1.2425393706446841 0.0
    vertex 16.005640829597947 -1.0087590905012809 5.0
    vertex 16.23620364602878 -1.2425393706446841 5.0
  endloop
endfacet
facet normal 0.5059886001103675 0.8625401651855702 0.0
  outer loop
    vertex 16.519417013871777 -1.4086797329275142 5.0
    vertex 16.23620364602878 -1.2425393706446841 0.0
    vertex 16.23620364602878 -1.2425393706446841 5.0
  endloop
endfacet
facet normal 0.5059886001103675 0.8625401651855702 0.0
  outer loop
    vertex 16.23620364602878 -1.2425393706446841 0.0
    vertex 16.519417013871777 -1.4086797329275142 5.0
    vertex 16.519417013871777 -1.4086797329275142 0.0
  endloop
endfacet
facet normal 0.2655056347385601 0.9641093080777069 0.0
  outer loop
    vertex 16.83598041014066 -1.495857986220126 5.0
    vertex 16.519417013871777 -1.4086797329275142 0.0
    vertex 16.519417013871777 -1.4086797329275142 5.0
  endloop
endfacet
facet normal 0.2655056347385601 0.9641093080777069 0.0
  outer loop
    vertex 16.519417013871777 -1.4086797329275142 0.0
    vertex 16.83598041014066 -1.495857986220126 5.0
    vertex 16.83598041014066 -1.495857986220126 0.0
  endloop
endfacet
facet normal 0.023961636397164813 0.9997128787712852 0.0
  outer loop
    vertex 17.008791000000002 -1.5 5.0
    vertex 16.83598041014066 -1.495857986220126 0.0
    vertex 16.83598041014066 -1.495857986220126 5.0
  endloop
endfacet
facet normal 0.023961636397164813 0.9997128787712852 0.0
  outer loop
    vertex 16.83598041014066 -1.495857986220126 0.0
    vertex 17.008791000000002 -1.5 5.0
    vertex 17.008791000000002 -1.5 0.0
  endloop
endfacet
facet normal -0.012002791329913026 0.9999279639055458 0.0
  outer loop
    vertex 17.16432056252546 -1.4981330766295067 5.0
    vertex 17.008791000000002 -1.5 0.0
    vertex 17.008791000000002 -1.5 5.0
  endloop
endfacet
facet normal -0.012002791329913026 0.9999279639055458 0.0
  outer loop
    vertex 17.008791000000002 -1.5 0.0
    vertex 17.16432056252546 -1.4981330766295067 5.0
    vertex 17.16432056252546 -1.4981330766295067 0.0
  endloop
endfacet
facet normal -0.2521200295073493 0.9676959701896116 0.0
  outer loop
    vertex 17.482061632248904 -1.41534996050402 5.0
    vertex 17.16432056252546 -1.4981330766295067 0.0
    vertex 17.16432056252546 -1.4981330766295067 5.0
  endloop
endfacet
facet normal -0.2521200295073493 0.9676959701896116 0.0
  outer loop
    vertex 17.16432056252546 -1.4981330766295067 0.0
    vertex 17.482061632248904 -1.41534996050402 5.0
    vertex 17.482061632248904 -1.41534996050402 0.0
  endloop
endfacet
facet normal -0.7021903354510529 0.7119892785703572 0.0
  outer loop
    vertex 18.00133037064468 -1.0225873539712245 5.0
    vertex 17.76755009050128 -1.2531501704020518 0.0
    vertex 17.76755009050128 -1.2531501704020518 5.0
  endloop
endfacet
facet normal -0.7021903354510529 0.7119892785703572 0.0
  outer loop
    vertex 17.76755009050128 -1.2531501704020518 0.0
    vertex 18.00133037064468 -1.0225873539712245 5.0
    vertex 18.00133037064468 -1.0225873539712245 0.0
  endloop
endfacet
facet normal -0.8625401651855764 0.5059886001103568 0.0
  outer loop
    vertex 18.00133037064468 -1.0225873539712245 5.0
    vertex 18.01458070271894 -1.0000000000000009 0.0
    vertex 18.00133037064468 -1.0225873539712245 0.0
  endloop
endfacet
facet normal -0.8625401651855764 0.5059886001103568 0.0
  outer loop
    vertex 18.01458070271894 -1.0000000000000009 0.0
    vertex 18.00133037064468 -1.0225873539712245 5.0
    vertex 18.01458070271894 -1.0000000000000009 5.0
  endloop
endfacet
facet normal 0.0 0.0 1.0
  outer loop
    vertex -5.472820377276207 4.364428613011136 3.193863
    vertex 1.4099832412739487e-15 4.55469 3.193863
    vertex -5.05956404679174 4.837438542908053 3.193863
  endloop
endfacet
facet normal 0.0 0.0 1.0
  outer loop
    vertex 1.4099832412739487e-15 4.55469 3.193863
    vertex -5.472820377276207 4.364428613011136 3.193863
    vertex -1.178840516537998 4.399492701740558 3.193863
  endloop
endfacet
facet normal 0.0 0.0 1.0
  outer loop
    vertex -1.178840516537998 4.399492701740558 3.193863
    vertex -5.472820377276207 4.364428613011136 3.193863
    vertex -2.2773449999999973 3.944477246362946 3.193863
  endloop
endfacet
facet normal 0.0 0.0 1.0
  outer loop
    vertex -2.2773449999999973 3.944477246362946 3.193863
    vertex -5.472820377276207 4.364428613011136 3.193863
    vertex -5.842012776049119 3.85627887016472 3.193863
  endloop
endfacet
facet normal 0.0 0.0 1.0
  outer loop
    vertex -2.2773449999999973 3.944477246362946 3.193863
    vertex -5.842012776049119 3.85627887016472 3.193863
    vertex -3.220652185202556 3.2206521852025563 3.193863
  endloop
endfacet
facet normal 0.0 0.0 1.0
  outer loop
    vertex -3.220652185202556 3.2206521852025563 3.193863
    vertex -5.842012776049119 3.85627887016472 3.193863
    vertex -6.164168722997166 3.317080637310991 3.193863
  endloop
endfacet
facet normal 0.0 0.0 1.0
  outer loop
    vertex -3.220652185202556 3.2206521852025563 3.193863
    vertex -6.164168722997166 3.317080637310991 3.193863
    vertex -6.436694407860153 2.751175221577466 3.193863
  endloop
endfacet
facet normal 0.0 0.0 1.0
  outer loop
    vertex -3.220652185202556 3.2206521852025563 3.193863
    vertex -6.436694407860153 2.751175221577466 3.193863
    vertex -3.9444772463629434 2.2773450000000013 3.193863
  endloop
endfacet
facet normal 0.0 0.0 1.0
  outer loop
    vertex -3.9444772463629434 2.2773450000000013 3.193863
    vertex -6.436694407860153 2.751175221577466 3.193863
    vertex -6.6573956140660755 2.1631189606246326 3.193863
  endloop
endfacet
facet normal 0.0 0.0 1.0
  outer loop
    vertex -3.9444772463629434 2.2773450000000013 3.193863
    vertex -6.6573956140660755 2.1631189606246326 3.193863
    vertex -4.399492701740555 1.1788405165380036 3.193863
  endloop
endfacet
facet normal 0.0 0.0 1.0
  outer loop
    vertex -4.399492701740555 1.1788405165380036 3.193863
    vertex -6.6573956140660755 2.1631189606246326 3.193863
    vertex -6.824495385272765 1.557646537694202 3.193863
  endloop
endfacet
facet normal 0.0 0.0 1.0
  outer loop
    vertex -4.399492701740555 1.1788405165380036 3.193863
    vertex -6.824495385272765 1.557646537694202 3.193863
    vertex -6.936648332375543 0.9396328607235882 3.193863
  endloop
endfacet
facet normal 0.0 0.0 1.0
  outer loop
    vertex -4.399492701740555 1.1788405165380036 3.193863
    vertex -6.936648332375543 0.9396328607235882 3.193863
    vertex -4.55469 0.0 3.193863
  endloop
endfacet
facet normal 0.0 0.0 1.0
  outer loop
    vertex -4.55469 0.0 3.193863
    vertex -6.936648332375543 0.9396328607235882 3.193863
    vertex -6.992951465789202 0.31405381245360503 3.193863
  endloop
endfacet
facet normal 0.0 0.0 1.0
  outer loop
    vertex -4.55469 0.0 3.193863
    vertex -6.992951465789202 0.31405381245360503 3.193863
    vertex -6.992951465789203 -0.3140538124536022 3.193863
  endloop
endfacet
facet normal 0.0 0.0 1.0
  outer loop
    vertex -4.55469 0.0 3.193863
    vertex -6.992951465789203 -0.3140538124536022 3.193863
    vertex -4.399492701740557 -1.1788405165379994 3.193863
  endloop
endfacet
facet normal 0.0 0.0 1.0
  outer loop
    vertex -4.399492701740557 -1.1788405165379994 3.193863
    vertex -6.992951465789203 -0.3140538124536022 3.193863
    vertex -6.936648332375543 -0.9396328607235882 3.193863
  endloop
endfacet
facet normal 0.0 0.0 1.0
  outer loop
    vertex -4.399492701740557 -1.1788405165379994 3.193863
    vertex -6.936648332375543 -0.9396328607235882 3.193863
    vertex -6.824495385272765 -1.5576465376942006 3.193863
  endloop
endfacet
facet normal 0.0 0.0 1.0
  outer loop
    vertex -4.399492701740557 -1.1788405165379994 3.193863
    vertex -6.824495385272765 -1.5576465376942006 3.193863
    vertex -3.9444772463629447 -2.2773449999999986 3.193863
  endloop
endfacet
facet normal 0.0 0.0 1.0
  outer loop
    vertex -3.9444772463629447 -2.2773449999999986 3.193863
    vertex -6.824495385272765 -1.5576465376942006 3.193863
    vertex -6.6573956140660755 -2.1631189606246313 3.193863
  endloop
endfacet
facet normal 0.0 0.0 1.0
  outer loop
    vertex -3.9444772463629447 -2.2773449999999986 3.193863
    vertex -6.6573956140660755 -2.1631189606246313 3.193863
    vertex -6.436694407860155 -2.751175221577466 3.193863
  endloop
endfacet
facet normal 0.0 0.0 1.0
  outer loop
    vertex -3.9444772463629447 -2.2773449999999986 3.193863
    vertex -6.436694407860155 -2.751175221577466 3.193863
    vertex -3.2206521852025563 -3.220652185202555 3.193863
  endloop
endfacet
facet normal 0.0 0.0 1.0
  outer loop
    vertex -3.2206521852025563 -3.220652185202555 3.193863
    vertex -6.436694407860155 -2.751175221577466 3.193863
    vertex -6.164168722997166 -3.317080637310991 3.193863
  endloop
endfacet
facet normal 0.0 0.0 1.0
  outer loop
    vertex -3.2206521852025563 -3.220652185202555 3.193863
    vertex -6.164168722997166 -3.317080637310991 3.193863
    vertex -2.277345 -3.9444772463629447 3.193863
  endloop
endfacet
facet normal 0.0 0.0 1.0
  outer loop
    vertex -2.277345 -3.9444772463629447 3.193863
    vertex -6.164168722997166 -3.317080637310991 3.193863
    vertex -5.84201277604912 -3.856278870164717 3.193863
  endloop
endfacet
facet normal 0.0 0.0 1.0
  outer loop
    vertex -2.277345 -3.9444772463629447 3.193863
    vertex -5.84201277604912 -3.856278870164717 3.193863
    vertex -5.47282037727621 -4.364428613011134 3.193863
  endloop
endfacet
facet normal 0.0 0.0 1.0
  outer loop
    vertex -2.277345 -3.9444772463629447 3.193863
    vertex -5.47282037727621 -4.364428613011134 3.193863
    vertex -1.178840516538001 -4.399492701740558 3.193863
  endloop
endfacet
facet normal 0.0 0.0 1.0
  outer loop
    vertex -1.178840516538001 -4.399492701740558 3.193863
    vertex -5.47282037727621 -4.364428613011134 3.193863
    vertex -5.05956404679174 -4.8374385429080515 3.193863
  endloop
endfacet
facet normal 0.0 0.0 1.0
  outer loop
    vertex -1.178840516538001 -4.399492701740558 3.193863
    vertex -5.05956404679174 -4.8374385429080515 3.193863
    vertex 0.0 -4.55469 3.193863
  endloop
endfacet
facet normal 0.0 0.0 1.0
  outer loop
    vertex -0.6274751623240336 6.971820057966674 3.193863
    vertex 9.999999999999998 7.000000000000001 3.193863
    vertex 0.0 7.000000000000001 3.193863
  endloop
endfacet
facet normal 0.0 0.0 1.0
  outer loop
    vertex 9.999999999999998 7.000000000000001 3.193863
    vertex -0.6274751623240336 6.971820057966674 3.193863
    vertex 3.220652185202558 3.220652185202555 3.193863
  endloop
endfacet
facet normal 0.0 0.0 1.0
  outer loop
    vertex 9.999999999999998 7.000000000000001 3.193863
    vertex 3.220652185202558 3.220652185202555 3.193863
    vertex 3.944477246362946 2.2773449999999986 3.193863
  endloop
endfacet
facet normal 0.0 0.0 1.0
  outer loop
    vertex 9.999999999999998 7.000000000000001 3.193863
    vertex 3.944477246362946 2.2773449999999986 3.193863
    vertex 9.999999999999998 -7.000000000000001 3.193863
  endloop
endfacet
facet normal 0.0 0.0 1.0
  outer loop
    vertex 3.220652185202558 3.220652185202555 3.193863
    vertex -0.6274751623240336 6.971820057966674 3.193863
    vertex -1.249898263590456 6.887507120190407 3.193863
  endloop
endfacet
facet normal 0.0 0.0 1.0
  outer loop
    vertex 3.220652185202558 3.220652185202555 3.193863
    vertex -1.249898263590456 6.887507120190407 3.193863
    vertex 2.2773450000000026 3.9444772463629434 3.193863
  endloop
endfacet
facet normal 0.0 0.0 1.0
  outer loop
    vertex 2.2773450000000026 3.9444772463629434 3.193863
    vertex -1.249898263590456 6.887507120190407 3.193863
    vertex -1.862257918966725 6.747740024870971 3.193863
  endloop
endfacet
facet normal 0.0 0.0 1.0
  outer loop
    vertex 2.2773450000000026 3.9444772463629434 3.193863
    vertex -1.862257918966725 6.747740024870971 3.193863
    vertex -2.459623768569398 6.553644094478161 3.193863
  endloop
endfacet
facet normal 0.0 0.0 1.0
  outer loop
    vertex 2.2773450000000026 3.9444772463629434 3.193863
    vertex -2.459623768569398 6.553644094478161 3.193863
    vertex -3.0371861738229065 6.306782075316935 3.193863
  endloop
endfacet
facet normal 0.0 0.0 1.0
  outer loop
    vertex 2.2773450000000026 3.9444772463629434 3.193863
    vertex -3.0371861738229065 6.306782075316935 3.193863
    vertex 1.1788405165380036 4.399492701740554 3.193863
  endloop
endfacet
facet normal 0.0 0.0 1.0
  outer loop
    vertex 1.1788405165380036 4.399492701740554 3.193863
    vertex -3.0371861738229065 6.306782075316935 3.193863
    vertex -3.590294941841342 6.009141555213063 3.193863
  endloop
endfacet
facet normal 0.0 0.0 1.0
  outer loop
    vertex 1.1788405165380036 4.399492701740554 3.193863
    vertex -3.590294941841342 6.009141555213063 3.193863
    vertex -4.114496766047312 5.663118960624632 3.193863
  endloop
endfacet
facet normal 0.0 0.0 1.0
  outer loop
    vertex 1.1788405165380036 4.399492701740554 3.193863
    vertex -4.114496766047312 5.663118960624632 3.193863
    vertex -4.605571081577988 5.271500262025277 3.193863
  endloop
endfacet
facet normal 0.0 0.0 1.0
  outer loop
    vertex 1.1788405165380036 4.399492701740554 3.193863
    vertex -4.605571081577988 5.271500262025277 3.193863
    vertex 1.4099832412739487e-15 4.55469 3.193863
  endloop
endfacet
facet normal 0.0 0.0 1.0
  outer loop
    vertex 1.4099832412739487e-15 4.55469 3.193863
    vertex -4.605571081577988 5.271500262025277 3.193863
    vertex -5.05956404679174 4.837438542908053 3.193863
  endloop
endfacet
facet normal 0.0 0.0 1.0
  outer loop
    vertex 9.999999999999998 -7.000000000000001 3.193863
    vertex 3.944477246362946 2.2773449999999986 3.193863
    vertex 4.399492701740556 1.178840516537998 3.193863
  endloop
endfacet
facet normal 0.0 0.0 1.0
  outer loop
    vertex 9.999999999999998 -7.000000000000001 3.193863
    vertex 4.399492701740556 1.178840516537998 3.193863
    vertex 4.55469 0.0 3.193863
  endloop
endfacet
facet normal 0.0 0.0 1.0
  outer loop
    vertex 9.999999999999998 -7.000000000000001 3.193863
    vertex 4.55469 0.0 3.193863
    vertex 4.399492701740556 -1.1788405165380023 3.193863
  endloop
endfacet
facet normal 0.0 0.0 1.0
  outer loop
    vertex 9.999999999999998 -7.000000000000001 3.193863
    vertex 4.399492701740556 -1.1788405165380023 3.193863
    vertex 3.9444772463629434 -2.2773450000000013 3.193863
  endloop
endfacet
facet normal 0.0 0.0 1.0
  outer loop
    vertex 9.999999999999998 -7.000000000000001 3.193863
    vertex 3.9444772463629434 -2.2773450000000013 3.193863
    vertex 3.2206521852025563 -3.220652185202555 3.193863
  endloop
endfacet
facet normal 0.0 0.0 1.0
  outer loop
    vertex 9.999999999999998 -7.000000000000001 3.193863
    vertex 3.2206521852025563 -3.220652185202555 3.193863
    vertex 2.2773449999999986 -3.9444772463629447 3.193863
  endloop
endfacet
facet normal 0.0 0.0 1.0
  outer loop
    vertex 9.999999999999998 -7.000000000000001 3.193863
    vertex 2.2773449999999986 -3.9444772463629447 3.193863
    vertex 1.1788405165379994 -4.399492701740558 3.193863
  endloop
endfacet
facet normal 0.0 0.0 1.0
  outer loop
    vertex 9.999999999999998 -7.000000000000001 3.193863
    vertex 1.1788405165379994 -4.399492701740558 3.193863
    vertex 0.0 -4.55469 3.193863
  endloop
endfacet
facet normal 0.0 0.0 1.0
  outer loop
    vertex 9.999999999999998 -7.000000000000001 3.193863
    vertex 0.0 -4.55469 3.193863
    vertex -5.05956404679174 -4.8374385429080515 3.193863
  endloop
endfacet
facet normal 0.0 0.0 1.0
  outer loop
    vertex 9.999999999999998 -7.000000000000001 3.193863
    vertex -5.05956404679174 -4.8374385429080515 3.193863
    vertex -4.605571081577988 -5.271500262025275 3.193863
  endloop
endfacet
facet normal 0.0 0.0 1.0
  outer loop
    vertex 9.999999999999998 -7.000000000000001 3.193863
    vertex -4.605571081577988 -5.271500262025275 3.193863
    vertex -4.114496766047313 -5.66311896062463 3.193863
  endloop
endfacet
facet normal 0.0 0.0 1.0
  outer loop
    vertex 9.999999999999998 -7.000000000000001 3.193863
    vertex -4.114496766047313 -5.66311896062463 3.193863
    vertex -3.590294941841344 -6.009141555213063 3.193863
  endloop
endfacet
facet normal 0.0 0.0 1.0
  outer loop
    vertex 9.999999999999998 -7.000000000000001 3.193863
    vertex -3.590294941841344 -6.009141555213063 3.193863
    vertex -3.037186173822908 -6.306782075316935 3.193863
  endloop
endfacet
facet normal 0.0 0.0 1.0
  outer loop
    vertex 9.999999999999998 -7.000000000000001 3.193863
    vertex -3.037186173822908 -6.306782075316935 3.193863
    vertex -2.4596237685694002 -6.553644094478161 3.193863
  endloop
endfacet
facet normal 0.0 0.0 1.0
  outer loop
    vertex 9.999999999999998 -7.000000000000001 3.193863
    vertex -2.4596237685694002 -6.553644094478161 3.193863
    vertex -1.862257918966727 -6.747740024870971 3.193863
  endloop
endfacet
facet normal 0.0 0.0 1.0
  outer loop
    vertex 9.999999999999998 -7.000000000000001 3.193863
    vertex -1.862257918966727 -6.747740024870971 3.193863
    vertex -1.2498982635904576 -6.887507120190407 3.193863
  endloop
endfacet
facet normal 0.0 0.0 1.0
  outer loop
    vertex 9.999999999999998 -7.000000000000001 3.193863
    vertex -1.2498982635904576 -6.887507120190407 3.193863
    vertex -0.6274751623240363 -6.971820057966674 3.193863
  endloop
endfacet
facet normal 0.0 0.0 1.0
  outer loop
    vertex 9.999999999999998 -7.000000000000001 3.193863
    vertex -0.6274751623240363 -6.971820057966674 3.193863
    vertex -1.4099832412739487e-15 -7.000000000000001 3.193863
  endloop
endfacet
facet normal -0.044864830350515444 -0.9989930665413147 0.0
  outer loop
    vertex -1.4099832412739487e-15 -7.000000000000001 0.0
    vertex -0.6274751623240363 -6.971820057966674 3.193863
    vertex -0.6274751623240363 -6.971820057966674 0.0
  endloop
endfacet
facet normal -0.044864830350515444 -0.9989930665413147 0.0
  outer loop
    vertex -0.6274751623240363 -6.971820057966674 3.193863
    vertex -1.4099832412739487e-15 -7.000000000000001 0.0
    vertex -1.4099832412739487e-15 -7.000000000000001 3.193863
  endloop
endfacet
facet normal -0.13423326581765563 -0.9909497617679349 0.0
  outer loop
    vertex -0.6274751623240363 -6.971820057966674 0.0
    vertex -1.2498982635904576 -6.887507120190407 3.193863
    vertex -1.2498982635904576 -6.887507120190407 0.0
  endloop
endfacet
facet normal -0.13423326581765563 -0.9909497617679349 0.0
  outer loop
    vertex -1.2498982635904576 -6.887507120190407 3.193863
    vertex -0.6274751623240363 -6.971820057966674 0.0
    vertex -0.6274751623240363 -6.971820057966674 3.193863
  endloop
endfacet
facet normal -0.22252093395631392 -0.9749279121818237 0.0
  outer loop
    vertex -1.2498982635904576 -6.887507120190407 0.0
    vertex -1.862257918966727 -6.747740024870971 3.193863
    vertex -1.862257918966727 -6.747740024870971 0.0
  endloop
endfacet
facet normal -0.22252093395631392 -0.9749279121818237 0.0
  outer loop
    vertex -1.862257918966727 -6.747740024870971 3.193863
    vertex -1.2498982635904576 -6.887507120190407 0.0
    vertex -1.2498982635904576 -6.887507120190407 3.193863
  endloop
endfacet
facet normal -0.3090169943749475 -0.9510565162951536 0.0
  outer loop
    vertex -1.862257918966727 -6.747740024870971 0.0
    vertex -2.4596237685694002 -6.553644094478161 3.193863
    vertex -2.4596237685694002 -6.553644094478161 0.0
  endloop
endfacet
facet normal -0.3090169943749475 -0.9510565162951536 0.0
  outer loop
    vertex -2.4596237685694002 -6.553644094478161 3.193863
    vertex -1.862257918966727 -6.747740024870971 0.0
    vertex -1.862257918966727 -6.747740024870971 3.193863
  endloop
endfacet
facet normal -0.3930250316539242 -0.9195277725514504 0.0
  outer loop
    vertex -2.4596237685694002 -6.553644094478161 0.0
    vertex -3.037186173822908 -6.306782075316935 3.193863
    vertex -3.037186173822908 -6.306782075316935 0.0
  endloop
endfacet
facet normal -0.3930250316539242 -0.9195277725514504 0.0
  outer loop
    vertex -3.037186173822908 -6.306782075316935 3.193863
    vertex -2.4596237685694002 -6.553644094478161 0.0
    vertex -2.4596237685694002 -6.553644094478161 3.193863
  endloop
endfacet
facet normal -0.4738686624729985 -0.8805955318567382 0.0
  outer loop
    vertex -3.037186173822908 -6.306782075316935 0.0
    vertex -3.590294941841344 -6.009141555213063 3.193863
    vertex -3.590294941841344 -6.009141555213063 0.0
  endloop
endfacet
facet normal -0.4738686624729985 -0.8805955318567382 0.0
  outer loop
    vertex -3.590294941841344 -6.009141555213063 3.193863
    vertex -3.037186173822908 -6.306782075316935 0.0
    vertex -3.037186173822908 -6.306782075316935 3.193863
  endloop
endfacet
facet normal -0.5508969814521032 -0.8345732537213024 0.0
  outer loop
    vertex -3.590294941841344 -6.009141555213063 0.0
    vertex -4.114496766047313 -5.66311896062463 3.193863
    vertex -4.114496766047313 -5.66311896062463 0.0
  endloop
endfacet
facet normal -0.5508969814521032 -0.8345732537213024 0.0
  outer loop
    vertex -4.114496766047313 -5.66311896062463 3.193863
    vertex -3.590294941841344 -6.009141555213063 0.0
    vertex -3.590294941841344 -6.009141555213063 3.193863
  endloop
endfacet
facet normal -0.6234898018587338 -0.7818314824680298 0.0
  outer loop
    vertex -4.114496766047313 -5.66311896062463 0.0
    vertex -4.605571081577988 -5.271500262025275 3.193863
    vertex -4.605571081577988 -5.271500262025275 0.0
  endloop
endfacet
facet normal -0.6234898018587338 -0.7818314824680298 0.0
  outer loop
    vertex -4.605571081577988 -5.271500262025275 3.193863
    vertex -4.114496766047313 -5.66311896062463 0.0
    vertex -4.114496766047313 -5.66311896062463 3.193863
  endloop
endfacet
facet normal -0.6910626489868656 -0.7227948638273907 0.0
  outer loop
    vertex -4.605571081577988 -5.271500262025275 0.0
    vertex -5.05956404679174 -4.8374385429080515 3.193863
    vertex -5.05956404679174 -4.8374385429080515 0.0
  endloop
endfacet
facet normal -0.6910626489868656 -0.7227948638273907 0.0
  outer loop
    vertex -5.05956404679174 -4.8374385429080515 3.193863
    vertex -4.605571081577988 -5.271500262025275 0.0
    vertex -4.605571081577988 -5.271500262025275 3.193863
  endloop
endfacet
facet normal -0.7530714660036097 -0.657938725939714 0.0
  outer loop
    vertex -5.05956404679174 -4.8374385429080515 3.193863
    vertex -5.47282037727621 -4.364428613011134 0.0
    vertex -5.05956404679174 -4.8374385429080515 0.0
  endloop
endfacet
facet normal -0.7530714660036097 -0.657938725939714 0.0
  outer loop
    vertex -5.47282037727621 -4.364428613011134 0.0
    vertex -5.05956404679174 -4.8374385429080515 3.193863
    vertex -5.47282037727621 -4.364428613011134 3.193863
  endloop
endfacet
facet normal -0.8090169943749479 -0.5877852522924727 0.0
  outer loop
    vertex -5.47282037727621 -4.364428613011134 3.193863
    vertex -5.84201277604912 -3.856278870164717 0.0
    vertex -5.47282037727621 -4.364428613011134 0.0
  endloop
endfacet
facet normal -0.8090169943749479 -0.5877852522924727 0.0
  outer loop
    vertex -5.84201277604912 -3.856278870164717 0.0
    vertex -5.47282037727621 -4.364428613011134 3.193863
    vertex -5.84201277604912 -3.856278870164717 3.193863
  endloop
endfacet
facet normal -0.8584487936018665 -0.5128992774059056 0.0
  outer loop
    vertex -5.84201277604912 -3.856278870164717 3.193863
    vertex -6.164168722997166 -3.317080637310991 0.0
    vertex -5.84201277604912 -3.856278870164717 0.0
  endloop
endfacet
facet normal -0.8584487936018665 -0.5128992774059056 0.0
  outer loop
    vertex -6.164168722997166 -3.317080637310991 0.0
    vertex -5.84201277604912 -3.856278870164717 3.193863
    vertex -6.164168722997166 -3.317080637310991 3.193863
  endloop
endfacet
facet normal -0.9009688679024191 -0.43388373911755856 0.0
  outer loop
    vertex -6.164168722997166 -3.317080637310991 3.193863
    vertex -6.436694407860155 -2.751175221577466 0.0
    vertex -6.164168722997166 -3.317080637310991 0.0
  endloop
endfacet
facet normal -0.9009688679024191 -0.43388373911755856 0.0
  outer loop
    vertex -6.436694407860155 -2.751175221577466 0.0
    vertex -6.164168722997166 -3.317080637310991 3.193863
    vertex -6.436694407860155 -2.751175221577466 3.193863
  endloop
endfacet
facet normal -0.9362348706397374 -0.3513748240813427 0.0
  outer loop
    vertex -6.436694407860155 -2.751175221577466 3.193863
    vertex -6.6573956140660755 -2.1631189606246313 0.0
    vertex -6.436694407860155 -2.751175221577466 0.0
  endloop
endfacet
facet normal -0.9362348706397374 -0.3513748240813427 0.0
  outer loop
    vertex -6.6573956140660755 -2.1631189606246313 0.0
    vertex -6.436694407860155 -2.751175221577466 3.193863
    vertex -6.6573956140660755 -2.1631189606246313 3.193863
  endloop
endfacet
facet normal -0.9639628606958536 -0.2660368455666744 0.0
  outer loop
    vertex -6.6573956140660755 -2.1631189606246313 3.193863
    vertex -6.824495385272765 -1.5576465376942006 0.0
    vertex -6.6573956140660755 -2.1631189606246313 0.0
  endloop
endfacet
facet normal -0.9639628606958536 -0.2660368455666744 0.0
  outer loop
    vertex -6.824495385272765 -1.5576465376942006 0.0
    vertex -6.6573956140660755 -2.1631189606246313 3.193863
    vertex -6.824495385272765 -1.5576465376942006 3.193863
  endloop
endfacet
facet normal -0.9839295885986299 -0.17855689479863648 0.0
  outer loop
    vertex -6.824495385272765 -1.5576465376942006 3.193863
    vertex -6.936648332375543 -0.9396328607235882 0.0
    vertex -6.824495385272765 -1.5576465376942006 0.0
  endloop
endfacet
facet normal -0.9839295885986299 -0.17855689479863648 0.0
  outer loop
    vertex -6.936648332375543 -0.9396328607235882 0.0
    vertex -6.824495385272765 -1.5576465376942006 3.193863
    vertex -6.936648332375543 -0.9396328607235882 3.193863
  endloop
endfacet
facet normal -0.995974293995239 -0.08963930890343516 0.0
  outer loop
    vertex -6.936648332375543 -0.9396328607235882 3.193863
    vertex -6.992951465789203 -0.3140538124536022 0.0
    vertex -6.936648332375543 -0.9396328607235882 0.0
  endloop
endfacet
facet normal -0.995974293995239 -0.08963930890343516 0.0
  outer loop
    vertex -6.992951465789203 -0.3140538124536022 0.0
    vertex -6.936648332375543 -0.9396328607235882 3.193863
    vertex -6.992951465789203 -0.3140538124536022 3.193863
  endloop
endfacet
facet normal -1.0 2.2448115344599537e-15 0.0
  outer loop
    vertex -6.992951465789203 -0.3140538124536022 3.193863
    vertex -6.992951465789202 0.31405381245360503 0.0
    vertex -6.992951465789203 -0.3140538124536022 0.0
  endloop
endfacet
facet normal -1.0 2.2448115344599537e-15 0.0
  outer loop
    vertex -6.992951465789202 0.31405381245360503 0.0
    vertex -6.992951465789203 -0.3140538124536022 3.193863
    vertex -6.992951465789202 0.31405381245360503 3.193863
  endloop
endfacet
facet normal -0.9959742939952391 0.08963930890343298 0.0
  outer loop
    vertex -6.992951465789202 0.31405381245360503 3.193863
    vertex -6.936648332375543 0.9396328607235882 0.0
    vertex -6.992951465789202 0.31405381245360503 0.0
  endloop
endfacet
facet normal -0.9959742939952391 0.08963930890343298 0.0
  outer loop
    vertex -6.936648332375543 0.9396328607235882 0.0
    vertex -6.992951465789202 0.31405381245360503 3.193863
    vertex -6.936648332375543 0.9396328607235882 3.193863
  endloop
endfacet
facet normal -0.9839295885986298 0.17855689479863643 0.0
  outer loop
    vertex -6.936648332375543 0.9396328607235882 3.193863
    vertex -6.824495385272765 1.557646537694202 0.0
    vertex -6.936648332375543 0.9396328607235882 0.0
  endloop
endfacet
facet normal -0.9839295885986298 0.17855689479863643 0.0
  outer loop
    vertex -6.824495385272765 1.557646537694202 0.0
    vertex -6.936648332375543 0.9396328607235882 3.193863
    vertex -6.824495385272765 1.557646537694202 3.193863
  endloop
endfacet
facet normal -0.9639628606958535 0.26603684556667445 0.0
  outer loop
    vertex -6.824495385272765 1.557646537694202 3.193863
    vertex -6.6573956140660755 2.1631189606246326 0.0
    vertex -6.824495385272765 1.557646537694202 0.0
  endloop
endfacet
facet normal -0.9639628606958535 0.26603684556667445 0.0
  outer loop
    vertex -6.6573956140660755 2.1631189606246326 0.0
    vertex -6.824495385272765 1.557646537694202 3.193863
    vertex -6.6573956140660755 2.1631189606246326 3.193863
  endloop
endfacet
facet normal -0.9362348706397365 0.3513748240813446 0.0
  outer loop
    vertex -6.6573956140660755 2.1631189606246326 3.193863
    vertex -6.614525864444804 2.2773450000000013 0.0
    vertex -6.6573956140660755 2.1631189606246326 0.0
  endloop
endfacet
facet normal -0.9362348706397365 0.3513748240813446 0.0
  outer loop
    vertex -6.614525864444804 2.2773450000000013 0.0
    vertex -6.6573956140660755 2.1631189606246326 3.193863
    vertex -6.436694407860153 2.751175221577466 0.0
  endloop
endfacet
facet normal -0.9362348706397365 0.3513748240813446 0.0
  outer loop
    vertex -6.436694407860153 2.751175221577466 0.0
    vertex -6.6573956140660755 2.1631189606246326 3.193863
    vertex -6.436694407860153 2.751175221577466 3.193863
  endloop
endfacet
facet normal -0.9009688679024199 0.4338837391175567 0.0
  outer loop
    vertex -6.436694407860153 2.751175221577466 3.193863
    vertex -6.164168722997166 3.317080637310991 0.0
    vertex -6.436694407860153 2.751175221577466 0.0
  endloop
endfacet
facet normal -0.9009688679024199 0.4338837391175567 0.0
  outer loop
    vertex -6.164168722997166 3.317080637310991 0.0
    vertex -6.436694407860153 2.751175221577466 3.193863
    vertex -6.164168722997166 3.317080637310991 3.193863
  endloop
endfacet
facet normal -0.8584487936018667 0.5128992774059055 0.0
  outer loop
    vertex -6.164168722997166 3.317080637310991 3.193863
    vertex -5.842012776049119 3.85627887016472 0.0
    vertex -6.164168722997166 3.317080637310991 0.0
  endloop
endfacet
facet normal -0.8584487936018667 0.5128992774059055 0.0
  outer loop
    vertex -5.842012776049119 3.85627887016472 0.0
    vertex -6.164168722997166 3.317080637310991 3.193863
    vertex -5.842012776049119 3.85627887016472 3.193863
  endloop
endfacet
facet normal -0.809016994374946 0.5877852522924751 0.0
  outer loop
    vertex -5.842012776049119 3.85627887016472 3.193863
    vertex -5.472820377276207 4.364428613011136 0.0
    vertex -5.842012776049119 3.85627887016472 0.0
  endloop
endfacet
facet normal -0.809016994374946 0.5877852522924751 0.0
  outer loop
    vertex -5.472820377276207 4.364428613011136 0.0
    vertex -5.842012776049119 3.85627887016472 3.193863
    vertex -5.472820377276207 4.364428613011136 3.193863
  endloop
endfacet
facet normal -0.7530714660036115 0.6579387259397121 0.0
  outer loop
    vertex -5.472820377276207 4.364428613011136 3.193863
    vertex -5.05956404679174 4.837438542908053 0.0
    vertex -5.472820377276207 4.364428613011136 0.0
  endloop
endfacet
facet normal -0.7530714660036115 0.6579387259397121 0.0
  outer loop
    vertex -5.05956404679174 4.837438542908053 0.0
    vertex -5.472820377276207 4.364428613011136 3.193863
    vertex -5.05956404679174 4.837438542908053 3.193863
  endloop
endfacet
facet normal -0.6910626489868644 0.7227948638273918 0.0
  outer loop
    vertex -4.605571081577988 5.271500262025277 3.193863
    vertex -5.05956404679174 4.837438542908053 0.0
    vertex -5.05956404679174 4.837438542908053 3.193863
  endloop
endfacet
facet normal -0.6910626489868644 0.7227948638273918 0.0
  outer loop
    vertex -5.05956404679174 4.837438542908053 0.0
    vertex -4.605571081577988 5.271500262025277 3.193863
    vertex -4.605571081577988 5.271500262025277 0.0
  endloop
endfacet
facet normal -0.6234898018587338 0.7818314824680298 0.0
  outer loop
    vertex -4.114496766047312 5.663118960624632 3.193863
    vertex -4.605571081577988 5.271500262025277 0.0
    vertex -4.605571081577988 5.271500262025277 3.193863
  endloop
endfacet
facet normal -0.6234898018587338 0.7818314824680298 0.0
  outer loop
    vertex -4.605571081577988 5.271500262025277 0.0
    vertex -4.114496766047312 5.663118960624632 3.193863
    vertex -4.114496766047312 5.663118960624632 0.0
  endloop
endfacet
facet normal -0.5508969814521013 0.8345732537213035 0.0
  outer loop
    vertex -3.590294941841342 6.009141555213063 3.193863
    vertex -4.114496766047312 5.663118960624632 0.0
    vertex -4.114496766047312 5.663118960624632 3.193863
  endloop
endfacet
facet normal -0.5508969814521013 0.8345732537213035 0.0
  outer loop
    vertex -4.114496766047312 5.663118960624632 0.0
    vertex -3.590294941841342 6.009141555213063 3.193863
    vertex -3.590294941841342 6.009141555213063 0.0
  endloop
endfacet
facet normal -0.47386866247299997 0.8805955318567376 0.0
  outer loop
    vertex -3.0371861738229065 6.306782075316935 3.193863
    vertex -3.590294941841342 6.009141555213063 0.0
    vertex -3.590294941841342 6.009141555213063 3.193863
  endloop
endfacet
facet normal -0.47386866247299997 0.8805955318567376 0.0
  outer loop
    vertex -3.590294941841342 6.009141555213063 0.0
    vertex -3.0371861738229065 6.306782075316935 3.193863
    vertex -3.0371861738229065 6.306782075316935 0.0
  endloop
endfacet
facet normal -0.3930250316539231 0.9195277725514509 0.0
  outer loop
    vertex -2.459623768569398 6.553644094478161 3.193863
    vertex -3.0371861738229065 6.306782075316935 0.0
    vertex -3.0371861738229065 6.306782075316935 3.193863
  endloop
endfacet
facet normal -0.3930250316539231 0.9195277725514509 0.0
  outer loop
    vertex -3.0371861738229065 6.306782075316935 0.0
    vertex -2.459623768569398 6.553644094478161 3.193863
    vertex -2.459623768569398 6.553644094478161 0.0
  endloop
endfacet
facet normal -0.3090169943749475 0.9510565162951536 0.0
  outer loop
    vertex -1.862257918966725 6.747740024870971 3.193863
    vertex -2.459623768569398 6.553644094478161 0.0
    vertex -2.459623768569398 6.553644094478161 3.193863
  endloop
endfacet
facet normal -0.3090169943749475 0.9510565162951536 0.0
  outer loop
    vertex -2.459623768569398 6.553644094478161 0.0
    vertex -1.862257918966725 6.747740024870971 3.193863
    vertex -1.862257918966725 6.747740024870971 0.0
  endloop
endfacet
facet normal -0.22252093395631403 0.9749279121818237 0.0
  outer loop
    vertex -1.249898263590456 6.887507120190407 3.193863
    vertex -1.862257918966725 6.747740024870971 0.0
    vertex -1.862257918966725 6.747740024870971 3.193863
  endloop
endfacet
facet normal -0.22252093395631403 0.9749279121818237 0.0
  outer loop
    vertex -1.862257918966725 6.747740024870971 0.0
    vertex -1.249898263590456 6.887507120190407 3.193863
    vertex -1.249898263590456 6.887507120190407 0.0
  endloop
endfacet
facet normal -0.13423326581765552 0.9909497617679348 0.0
  outer loop
    vertex -0.6274751623240336 6.971820057966674 3.193863
    vertex -1.249898263590456 6.887507120190407 0.0
    vertex -1.249898263590456 6.887507120190407 3.193863
  endloop
endfacet
facet normal -0.13423326581765552 0.9909497617679348 0.0
  outer loop
    vertex -1.249898263590456 6.887507120190407 0.0
    vertex -0.6274751623240336 6.971820057966674 3.193863
    vertex -0.6274751623240336 6.971820057966674 0.0
  endloop
endfacet
facet normal -0.044864830350515444 0.9989930665413147 0.0
  outer loop
    vertex 0.0 7.000000000000001 3.193863
    vertex -0.6274751623240336 6.971820057966674 0.0
    vertex -0.6274751623240336 6.971820057966674 3.193863
  endloop
endfacet
facet normal -0.044864830350515444 0.9989930665413147 0.0
  outer loop
    vertex -0.6274751623240336 6.971820057966674 0.0
    vertex 0.0 7.000000000000001 3.193863
    vertex 0.0 7.000000000000001 0.0
  endloop
endfacet
endsolid Untitled-5ad36300
