solid miata-side-mirror
facet normal 7.591859860542146e-17 -3.090893754464193e-18 -1.0
  outer loop
    vertex -106.28970671813254 8.887929387091642 -5.534314830792723e-15
    vertex -106.65872423355866 -6.019510139088401 -5.534314830792723e-15
    vertex -106.70701857516795 1.4399724125170212 -5.69430134115549e-15
  endloop
endfacet
facet normal 7.591859860542146e-17 -3.090893754464193e-18 -1.0
  outer loop
    vertex -106.65872423355866 -6.019510139088401 -5.534314830792723e-15
    vertex -106.28970671813254 8.887929387091642 -5.534314830792723e-15
    vertex -106.14501195596166 -13.461439457281577 -5.054978964600189e-15
  endloop
endfacet
facet normal 7.591859860542146e-17 -3.090893754464193e-18 -1.0
  outer loop
    vertex -106.14501195596166 -13.461439457281577 -5.054978964600189e-15
    vertex -106.28970671813254 8.887929387091642 -5.534314830792723e-15
    vertex -105.40841544183056 16.295326903591672 -5.054978964600189e-15
  endloop
endfacet
facet normal 7.591859860542146e-17 -3.090893754464193e-18 -1.0
  outer loop
    vertex -106.14501195596166 -13.461439457281577 -5.054978964600189e-15
    vertex -105.40841544183056 16.295326903591672 -5.054978964600189e-15
    vertex -105.16788431317724 -20.856805158235325 -4.258162306073458e-15
  endloop
endfacet
facet normal 7.591859860542146e-17 -3.090893754464193e-18 -1.0
  outer loop
    vertex -105.16788431317724 -20.856805158235325 -4.258162306073458e-15
    vertex -105.40841544183056 16.295326903591672 -5.054978964600189e-15
    vertex -104.06658022610814 23.633289191242397 -4.258162306073458e-15
  endloop
endfacet
facet normal 7.591859860542146e-17 -3.090893754464193e-18 -1.0
  outer loop
    vertex -105.16788431317724 -20.856805158235325 -4.258162306073458e-15
    vertex -104.06658022610814 23.633289191242397 -4.258162306073458e-15
    vertex -103.73115037765857 -28.17677837401053 -3.1469710332095364e-15
  endloop
endfacet
facet normal 7.591859860542146e-17 -3.090893754464193e-18 -1.0
  outer loop
    vertex -103.73115037765857 -28.17677837401053 -3.1469710332095364e-15
    vertex -104.06658022610814 23.633289191242397 -4.258162306073458e-15
    vertex -103.36568421772712 0.32941852920275827 0.0
  endloop
endfacet
facet normal 7.591859860542146e-17 -3.090893754464193e-18 -1.0
  outer loop
    vertex -103.36568421772712 0.32941852920275827 0.0
    vertex -104.06658022610814 23.633289191242397 -4.258162306073458e-15
    vertex -103.33847257645608 1.1608963553972336 0.0
  endloop
endfacet
facet normal 7.591859860542146e-17 -3.090893754464193e-18 -1.0
  outer loop
    vertex -103.33847257645608 1.1608963553972336 0.0
    vertex -104.06658022610814 23.633289191242397 -4.258162306073458e-15
    vertex -102.26943185897419 30.873211154056982 -3.1469710332095462e-15
  endloop
endfacet
facet normal 7.591859860542146e-17 -3.090893754464193e-18 -1.0
  outer loop
    vertex -103.33847257645608 1.1608963553972336 0.0
    vertex -102.26943185897419 30.873211154056982 -3.1469710332095462e-15
    vertex -103.25695410759417 1.988815788740936 0.0
  endloop
endfacet
facet normal 7.591859860542146e-17 -3.090893754464193e-18 -1.0
  outer loop
    vertex -103.25695410759417 1.988815788740936 0.0
    vertex -102.26943185897419 30.873211154056982 -3.1469710332095462e-15
    vertex -103.1214776776147 2.809633664882635 0.0
  endloop
endfacet
facet normal 7.591859860542146e-17 -3.090893754464193e-18 -1.0
  outer loop
    vertex -103.1214776776147 2.809633664882635 0.0
    vertex -102.26943185897419 30.873211154056982 -3.1469710332095462e-15
    vertex -102.93262307150371 3.6198372112982344 0.0
  endloop
endfacet
facet normal 7.591859860542146e-17 -3.090893754464193e-18 -1.0
  outer loop
    vertex -102.93262307150371 3.6198372112982344 0.0
    vertex -102.26943185897419 30.873211154056982 -3.1469710332095462e-15
    vertex -102.69119851151207 4.415959080553565 0.0
  endloop
endfacet
facet normal 7.591859860542146e-17 -3.090893754464193e-18 -1.0
  outer loop
    vertex -102.69119851151207 4.415959080553565 0.0
    vertex -102.26943185897419 30.873211154056982 -3.1469710332095462e-15
    vertex -102.39823719828716 5.194592189165889 0.0
  endloop
endfacet
facet normal 7.591859860542146e-17 -3.090893754464193e-18 -1.0
  outer loop
    vertex -102.39823719828716 5.194592189165889 0.0
    vertex -102.26943185897419 30.873211154056982 -3.1469710332095462e-15
    vertex -102.0549928891868 5.952404298559752 0.0
  endloop
endfacet
facet normal 7.591859860542146e-17 -3.090893754464193e-18 -1.0
  outer loop
    vertex -102.0549928891868 5.952404298559752 0.0
    vertex -102.26943185897419 30.873211154056982 -3.1469710332095462e-15
    vertex -100.02397604576339 37.986869880201695 -1.7257368298975417e-15
  endloop
endfacet
facet normal 7.591859860542146e-17 -3.090893754464193e-18 -1.0
  outer loop
    vertex -102.0549928891868 5.952404298559752 0.0
    vertex -100.02397604576339 37.986869880201695 -1.7257368298975417e-15
    vertex -101.66293453269903 6.6861522757166645 0.0
  endloop
endfacet
facet normal 7.591859860542146e-17 -3.090893754464193e-18 -1.0
  outer loop
    vertex -101.66293453269903 6.6861522757166645 0.0
    vertex -100.02397604576339 37.986869880201695 -1.7257368298975417e-15
    vertex -101.22373998192931 7.392695972488421 0.0
  endloop
endfacet
facet normal 7.591859860542146e-17 -3.090893754464193e-18 -1.0
  outer loop
    vertex -101.22373998192931 7.392695972488421 0.0
    vertex -100.02397604576339 37.986869880201695 -1.7257368298975417e-15
    vertex -100.73928881405972 8.06901166417654 0.0
  endloop
endfacet
facet normal 7.591859860542146e-17 -3.090893754464193e-18 -1.0
  outer loop
    vertex -100.73928881405972 8.06901166417654 0.0
    vertex -100.02397604576339 37.986869880201695 -1.7257368298975417e-15
    vertex -100.21165428650978 8.71220498986556 0.0
  endloop
endfacet
facet normal 7.591859860542146e-17 -3.090893754464193e-18 -1.0
  outer loop
    vertex -100.21165428650978 8.71220498986556 0.0
    vertex -100.02397604576339 37.986869880201695 -1.7257368298975417e-15
    vertex -99.643094464223 9.3195233391314 0.0
  endloop
endfacet
facet normal 7.591859860542146e-17 -3.090893754464193e-18 -1.0
  outer loop
    vertex -99.643094464223 9.3195233391314 0.0
    vertex -100.02397604576339 37.986869880201695 -1.7257368298975417e-15
    vertex -97.33896609925577 44.946534661517845 0.0
  endloop
endfacet
facet normal 7.591859860542146e-17 -3.090893754464193e-18 -1.0
  outer loop
    vertex -99.643094464223 9.3195233391314 0.0
    vertex -97.33896609925577 44.946534661517845 0.0
    vertex -99.03604255605133 9.88836763211401 0.0
  endloop
endfacet
facet normal 7.591859860542146e-17 -3.090893754464193e-18 -1.0
  outer loop
    vertex -99.03604255605133 9.88836763211401 0.0
    vertex -97.33896609925577 44.946534661517845 0.0
    vertex -98.39309650159336 10.416303442540523 0.0
  endloop
endfacet
facet normal 7.591859860542146e-17 -3.090893754464193e-18 -1.0
  outer loop
    vertex -98.39309650159336 10.416303442540523 0.0
    vertex -97.33896609925577 44.946534661517845 0.0
    vertex -97.71700785305117 10.901071416097102 0.0
  endloop
endfacet
facet normal 7.591859860542146e-17 -3.090893754464193e-18 -1.0
  outer loop
    vertex -97.71700785305117 10.901071416097102 0.0
    vertex -97.33896609925577 44.946534661517845 0.0
    vertex -97.01066999968624 11.340596939562518 0.0
  endloop
endfacet
facet normal 7.591859860542146e-17 -3.090893754464193e-18 -1.0
  outer loop
    vertex -97.01066999968624 11.340596939562518 0.0
    vertex -97.33896609925577 44.946534661517845 0.0
    vertex -96.77221397173545 45.732340892352234 0.0
  endloop
endfacet
facet normal 7.591859860542146e-17 -3.090893754464193e-18 -1.0
  outer loop
    vertex -97.01066999968624 11.340596939562518 0.0
    vertex -96.77221397173545 45.732340892352234 0.0
    vertex -96.27710578526954 11.732999019323783 0.0
  endloop
endfacet
facet normal 7.591859860542146e-17 -3.090893754464193e-18 -1.0
  outer loop
    vertex -96.27710578526954 11.732999019323783 0.0
    vertex -96.77221397173545 45.732340892352234 0.0
    vertex -96.13987629873726 46.46640388268363 0.0
  endloop
endfacet
facet normal 7.591859860542146e-17 -3.090893754464193e-18 -1.0
  outer loop
    vertex -96.27710578526954 11.732999019323783 0.0
    vertex -96.13987629873726 46.46640388268363 0.0
    vertex -95.51945457151818 12.076598331277147 0.0
  endloop
endfacet
facet normal 7.591859860542146e-17 -3.090893754464193e-18 -1.0
  outer loop
    vertex -95.51945457151818 12.076598331277147 0.0
    vertex -96.13987629873726 46.46640388268363 0.0
    vertex -95.95538047988855 36.24586488334968 0.0
  endloop
endfacet
facet normal 7.591859860542146e-17 -3.090893754464193e-18 -1.0
  outer loop
    vertex -95.51945457151818 12.076598331277147 0.0
    vertex -95.95538047988855 36.24586488334968 0.0
    vertex -95.94159330121855 35.55389258983665 0.0
  endloop
endfacet
facet normal 7.591859860542146e-17 -3.090893754464193e-18 -1.0
  outer loop
    vertex -95.51945457151818 12.076598331277147 0.0
    vertex -95.94159330121855 35.55389258983665 0.0
    vertex -95.85555084969116 34.86715214554889 0.0
  endloop
endfacet
facet normal 7.591859860542146e-17 -3.090893754464193e-18 -1.0
  outer loop
    vertex -95.51945457151818 12.076598331277147 0.0
    vertex -95.85555084969116 34.86715214554889 0.0
    vertex -95.69819582441086 34.19316762250374 0.0
  endloop
endfacet
facet normal 7.591859860542146e-17 -3.090893754464193e-18 -1.0
  outer loop
    vertex -95.51945457151818 12.076598331277147 0.0
    vertex -95.69819582441086 34.19316762250374 0.0
    vertex -95.47125223996328 33.539323336175954 0.0
  endloop
endfacet
facet normal 7.591859860542146e-17 -3.090893754464193e-18 -1.0
  outer loop
    vertex -95.51945457151818 12.076598331277147 0.0
    vertex -95.47125223996328 33.539323336175954 0.0
    vertex -94.74095880288158 12.36992440766429 0.0
  endloop
endfacet
facet normal 7.591859860542146e-17 -3.090893754464193e-18 -1.0
  outer loop
    vertex -94.74095880288158 12.36992440766429 0.0
    vertex -95.47125223996328 33.539323336175954 0.0
    vertex -95.17720653775065 32.9127829413923 0.0
  endloop
endfacet
facet normal 7.591859860542146e-17 -3.090893754464193e-18 -1.0
  outer loop
    vertex -94.74095880288158 12.36992440766429 0.0
    vertex -95.17720653775065 32.9127829413923 0.0
    vertex -94.81928034401939 32.320410945830055 0.0
  endloop
endfacet
facet normal 7.591859860542146e-17 -3.090893754464193e-18 -1.0
  outer loop
    vertex -94.74095880288158 12.36992440766429 0.0
    vertex -94.81928034401939 32.320410945830055 0.0
    vertex -94.40139517304891 31.768697501034342 0.0
  endloop
endfacet
facet normal 7.591859860542146e-17 -3.090893754464193e-18 -1.0
  outer loop
    vertex -94.74095880288158 12.36992440766429 0.0
    vertex -94.40139517304891 31.768697501034342 0.0
    vertex -93.944950130175 12.611721930086723 0.0
  endloop
endfacet
facet normal 7.591859860542146e-17 -3.090893754464193e-18 -1.0
  outer loop
    vertex -93.944950130175 12.611721930086723 0.0
    vertex -94.40139517304891 31.768697501034342 0.0
    vertex -93.92812946222044 31.263687294959865 0.0
  endloop
endfacet
facet normal 7.591859860542146e-17 -3.090893754464193e-18 -1.0
  outer loop
    vertex -93.944950130175 12.611721930086723 0.0
    vertex -93.92812946222044 31.263687294959865 0.0
    vertex -93.1348351524451 12.800956101766927 0.0
  endloop
endfacet
facet normal 7.591859860542146e-17 -3.090893754464193e-18 -1.0
  outer loop
    vertex -93.1348351524451 12.800956101766927 0.0
    vertex -93.92812946222044 31.263687294959865 0.0
    vertex -93.40466840969906 30.810913325104494 0.0
  endloop
endfacet
facet normal 7.591859860542146e-17 -3.090893754464193e-18 -1.0
  outer loop
    vertex -93.1348351524451 12.800956101766927 0.0
    vertex -93.40466840969906 30.810913325104494 0.0
    vertex -92.83674716431747 30.415336277831035 0.0
  endloop
endfacet
facet normal 7.591859860542146e-17 -3.090893754464193e-18 -1.0
  outer loop
    vertex -93.1348351524451 12.800956101766927 0.0
    vertex -92.83674716431747 30.415336277831035 0.0
    vertex -92.31408083808758 12.936817076065065 0.0
  endloop
endfacet
facet normal 7.591859860542146e-17 -3.090893754464193e-18 -1.0
  outer loop
    vertex -92.31408083808758 12.936817076065065 0.0
    vertex -92.83674716431747 30.415336277831035 0.0
    vertex -92.23058799008517 30.08129017804925 0.0
  endloop
endfacet
facet normal 7.591859860542146e-17 -3.090893754464193e-18 -1.0
  outer loop
    vertex -92.31408083808758 12.936817076065065 0.0
    vertex -92.23058799008517 30.08129017804925 0.0
    vertex -91.48619968760741 13.01872342229907 0.0
  endloop
endfacet
facet normal 7.591859860542146e-17 -3.090893754464193e-18 -1.0
  outer loop
    vertex -91.48619968760741 13.01872342229907 0.0
    vertex -92.23058799008517 30.08129017804925 0.0
    vertex -91.5928320937621 29.812434904732 0.0
  endloop
endfacet
facet normal 7.591859860542146e-17 -3.090893754464193e-18 -1.0
  outer loop
    vertex -91.48619968760741 13.01872342229907 0.0
    vertex -91.5928320937621 29.812434904732 0.0
    vertex -90.93046686240727 29.611716092515326 0.0
  endloop
endfacet
facet normal 7.591859860542146e-17 -3.090893754464193e-18 -1.0
  outer loop
    vertex -91.48619968760741 13.01872342229907 0.0
    vertex -90.93046686240727 29.611716092515326 0.0
    vertex -90.65473470152052 13.046324614035502 0.0
  endloop
endfacet
facet normal 7.591859860542146e-17 -3.090893754464193e-18 -1.0
  outer loop
    vertex -90.65473470152052 13.046324614035502 0.0
    vertex -90.93046686240727 29.611716092515326 0.0
    vertex -90.25074930810435 29.481332858708917 0.0
  endloop
endfacet
facet normal 7.591859860542146e-17 -3.090893754464193e-18 -1.0
  outer loop
    vertex -90.65473470152052 13.046324614035502 0.0
    vertex -90.25074930810435 29.481332858708917 0.0
    vertex -89.82324421772712 13.019502529202757 0.0
  endloop
endfacet
facet normal 7.591859860542146e-17 -3.090893754464193e-18 -1.0
  outer loop
    vertex -89.82324421772712 13.019502529202757 0.0
    vertex -90.25074930810435 29.481332858708917 0.0
    vertex -89.56112655861828 29.422713709306894 0.0
  endloop
endfacet
facet normal 7.591859860542146e-17 -3.090893754464193e-18 -1.0
  outer loop
    vertex -103.73115037765857 -28.17677837401053 -3.1469710332095364e-15
    vertex -103.33847257645608 -0.5020592969917169 0.0
    vertex -101.84041087485542 -35.39282413423661 -1.7257368298975417e-15
  endloop
endfacet
facet normal 7.591859860542146e-17 -3.090893754464193e-18 -1.0
  outer loop
    vertex -103.33847257645608 -0.5020592969917169 0.0
    vertex -103.73115037765857 -28.17677837401053 -3.1469710332095364e-15
    vertex -103.36568421772712 0.32941852920275827 0.0
  endloop
endfacet
facet normal 7.591859860542146e-17 -3.090893754464193e-18 -1.0
  outer loop
    vertex -101.84041087485542 -35.39282413423661 -1.7257368298975417e-15
    vertex -103.33847257645608 -0.5020592969917169 0.0
    vertex -103.25695410759417 -1.3299787303354194 0.0
  endloop
endfacet
facet normal 7.591859860542146e-17 -3.090893754464193e-18 -1.0
  outer loop
    vertex -101.84041087485542 -35.39282413423661 -1.7257368298975417e-15
    vertex -103.25695410759417 -1.3299787303354194 0.0
    vertex -103.1214776776147 -2.1507966064771185 0.0
  endloop
endfacet
facet normal 7.591859860542146e-17 -3.090893754464193e-18 -1.0
  outer loop
    vertex -101.84041087485542 -35.39282413423661 -1.7257368298975417e-15
    vertex -103.1214776776147 -2.1507966064771185 0.0
    vertex -102.93262307150371 -2.961000152892718 0.0
  endloop
endfacet
facet normal 7.591859860542146e-17 -3.090893754464193e-18 -1.0
  outer loop
    vertex -101.84041087485542 -35.39282413423661 -1.7257368298975417e-15
    vertex -102.93262307150371 -2.961000152892718 0.0
    vertex -102.69119851151207 -3.7571220221480486 0.0
  endloop
endfacet
facet normal 7.591859860542146e-17 -3.090893754464193e-18 -1.0
  outer loop
    vertex -101.84041087485542 -35.39282413423661 -1.7257368298975417e-15
    vertex -102.69119851151207 -3.7571220221480486 0.0
    vertex -102.39823719828718 -4.535755130760373 0.0
  endloop
endfacet
facet normal 7.591859860542146e-17 -3.090893754464193e-18 -1.0
  outer loop
    vertex -101.84041087485542 -35.39282413423661 -1.7257368298975417e-15
    vertex -102.39823719828718 -4.535755130760373 0.0
    vertex -102.05499288918683 -5.293567240154235 0.0
  endloop
endfacet
facet normal 7.591859860542146e-17 -3.090893754464193e-18 -1.0
  outer loop
    vertex -101.84041087485542 -35.39282413423661 -1.7257368298975417e-15
    vertex -102.05499288918683 -5.293567240154235 0.0
    vertex -101.66293453269907 -6.027315217311154 0.0
  endloop
endfacet
facet normal 7.591859860542146e-17 -3.090893754464193e-18 -1.0
  outer loop
    vertex -101.84041087485542 -35.39282413423661 -1.7257368298975417e-15
    vertex -101.66293453269907 -6.027315217311154 0.0
    vertex -99.50303635027392 -42.47681260211079 0.0
  endloop
endfacet
facet normal 7.591859860542146e-17 -3.090893754464193e-18 -1.0
  outer loop
    vertex -99.50303635027392 -42.47681260211079 0.0
    vertex -101.66293453269907 -6.027315217311154 0.0
    vertex -101.22373998192931 -6.73385891408291 0.0
  endloop
endfacet
facet normal 7.591859860542146e-17 -3.090893754464193e-18 -1.0
  outer loop
    vertex -99.50303635027392 -42.47681260211079 0.0
    vertex -101.22373998192931 -6.73385891408291 0.0
    vertex -100.73928881405975 -7.410174605771022 0.0
  endloop
endfacet
facet normal 7.591859860542146e-17 -3.090893754464193e-18 -1.0
  outer loop
    vertex -99.50303635027392 -42.47681260211079 0.0
    vertex -100.73928881405975 -7.410174605771022 0.0
    vertex -100.21165428650981 -8.053367931460043 0.0
  endloop
endfacet
facet normal 7.591859860542146e-17 -3.090893754464193e-18 -1.0
  outer loop
    vertex -99.50303635027392 -42.47681260211079 0.0
    vertex -100.21165428650981 -8.053367931460043 0.0
    vertex -99.64309446422304 -8.660686280725885 0.0
  endloop
endfacet
facet normal 7.591859860542146e-17 -3.090893754464193e-18 -1.0
  outer loop
    vertex -99.50303635027392 -42.47681260211079 0.0
    vertex -99.64309446422304 -8.660686280725885 0.0
    vertex -99.03604255605134 -9.229530573708482 0.0
  endloop
endfacet
facet normal 7.591859860542146e-17 -3.090893754464193e-18 -1.0
  outer loop
    vertex -99.50303635027392 -42.47681260211079 0.0
    vertex -99.03604255605134 -9.229530573708482 0.0
    vertex -99.16836953443908 -43.28677667962086 0.0
  endloop
endfacet
facet normal 7.591859860542146e-17 -3.090893754464193e-18 -1.0
  outer loop
    vertex -99.16836953443908 -43.28677667962086 0.0
    vertex -99.03604255605134 -9.229530573708482 0.0
    vertex -98.76708827781513 -44.06588966087586 0.0
  endloop
endfacet
facet normal 7.591859860542146e-17 -3.090893754464193e-18 -1.0
  outer loop
    vertex -98.76708827781513 -44.06588966087586 0.0
    vertex -99.03604255605134 -9.229530573708482 0.0
    vertex -98.39309650159339 -9.757466384134993 0.0
  endloop
endfacet
facet normal 7.591859860542146e-17 -3.090893754464193e-18 -1.0
  outer loop
    vertex -98.76708827781513 -44.06588966087586 0.0
    vertex -98.39309650159339 -9.757466384134993 0.0
    vertex -98.30200832465111 -44.808684600036464 0.0
  endloop
endfacet
facet normal 7.591859860542146e-17 -3.090893754464193e-18 -1.0
  outer loop
    vertex -98.30200832465111 -44.808684600036464 0.0
    vertex -98.39309650159339 -9.757466384134993 0.0
    vertex -97.71700785305121 -10.242234357691574 0.0
  endloop
endfacet
facet normal 7.591859860542146e-17 -3.090893754464193e-18 -1.0
  outer loop
    vertex -98.30200832465111 -44.808684600036464 0.0
    vertex -97.71700785305121 -10.242234357691574 0.0
    vertex -97.81974965874487 -36.1339204590291 0.0
  endloop
endfacet
facet normal 7.591859860542146e-17 -3.090893754464193e-18 -1.0
  outer loop
    vertex -97.81974965874487 -36.1339204590291 0.0
    vertex -97.71700785305121 -10.242234357691574 0.0
    vertex -97.78141924559647 -35.40253260644759 0.0
  endloop
endfacet
facet normal 7.591859860542146e-17 -3.090893754464193e-18 -1.0
  outer loop
    vertex -97.78141924559647 -35.40253260644759 0.0
    vertex -97.71700785305121 -10.242234357691574 0.0
    vertex -97.66684796217892 -34.67915799223174 0.0
  endloop
endfacet
facet normal 7.591859860542146e-17 -3.090893754464193e-18 -1.0
  outer loop
    vertex -97.66684796217892 -34.67915799223174 0.0
    vertex -97.71700785305121 -10.242234357691574 0.0
    vertex -97.01066999968627 -10.681759881157014 0.0
  endloop
endfacet
facet normal 7.591859860542146e-17 -3.090893754464193e-18 -1.0
  outer loop
    vertex -97.66684796217892 -34.67915799223174 0.0
    vertex -97.01066999968627 -10.681759881157014 0.0
    vertex -97.47729107544892 -33.971722060030736 0.0
  endloop
endfacet
facet normal 7.591859860542146e-17 -3.090893754464193e-18 -1.0
  outer loop
    vertex -97.47729107544892 -33.971722060030736 0.0
    vertex -97.01066999968627 -10.681759881157014 0.0
    vertex -97.21482541032475 -33.287975625958246 0.0
  endloop
endfacet
facet normal 7.591859860542146e-17 -3.090893754464193e-18 -1.0
  outer loop
    vertex -97.21482541032475 -33.287975625958246 0.0
    vertex -97.01066999968627 -10.681759881157014 0.0
    vertex -96.88232659555807 -32.635409959029104 0.0
  endloop
endfacet
facet normal 7.591859860542146e-17 -3.090893754464193e-18 -1.0
  outer loop
    vertex -96.88232659555807 -32.635409959029104 0.0
    vertex -97.01066999968627 -10.681759881157014 0.0
    vertex -96.27710578526957 -11.074161960918278 0.0
  endloop
endfacet
facet normal 7.591859860542146e-17 -3.090893754464193e-18 -1.0
  outer loop
    vertex -96.88232659555807 -32.635409959029104 0.0
    vertex -96.27710578526957 -11.074161960918278 0.0
    vertex -96.48343755774326 -32.021174705248356 0.0
  endloop
endfacet
facet normal 7.591859860542146e-17 -3.090893754464193e-18 -1.0
  outer loop
    vertex -96.48343755774326 -32.021174705248356 0.0
    vertex -96.27710578526957 -11.074161960918278 0.0
    vertex -96.02252860865153 -31.451999554593424 0.0
  endloop
endfacet
facet normal 7.591859860542146e-17 -3.090893754464193e-18 -1.0
  outer loop
    vertex -96.02252860865153 -31.451999554593424 0.0
    vertex -96.27710578526957 -11.074161960918278 0.0
    vertex -95.51945457151822 -11.417761272871665 0.0
  endloop
endfacet
facet normal 7.591859860542146e-17 -3.090893754464193e-18 -1.0
  outer loop
    vertex -96.02252860865153 -31.451999554593424 0.0
    vertex -95.51945457151822 -11.417761272871665 0.0
    vertex -95.50464956318054 -30.934120509122423 0.0
  endloop
endfacet
facet normal 7.591859860542146e-17 -3.090893754464193e-18 -1.0
  outer loop
    vertex -95.50464956318054 -30.934120509122423 0.0
    vertex -95.51945457151822 -11.417761272871665 0.0
    vertex -94.74095880288162 -11.711087349258806 0.0
  endloop
endfacet
facet normal 7.591859860542146e-17 -3.090893754464193e-18 -1.0
  outer loop
    vertex -95.50464956318054 -30.934120509122423 0.0
    vertex -94.74095880288162 -11.711087349258806 0.0
    vertex -94.93547441252562 -30.473211560030695 0.0
  endloop
endfacet
facet normal 7.591859860542146e-17 -3.090893754464193e-18 -1.0
  outer loop
    vertex -94.93547441252562 -30.473211560030695 0.0
    vertex -94.74095880288162 -11.711087349258806 0.0
    vertex -94.32123915874487 -30.074322522215905 0.0
  endloop
endfacet
facet normal 7.591859860542146e-17 -3.090893754464193e-18 -1.0
  outer loop
    vertex -94.32123915874487 -30.074322522215905 0.0
    vertex -94.74095880288162 -11.711087349258806 0.0
    vertex -93.94495013017504 -11.95288487168124 0.0
  endloop
endfacet
facet normal 7.591859860542146e-17 -3.090893754464193e-18 -1.0
  outer loop
    vertex -94.32123915874487 -30.074322522215905 0.0
    vertex -93.94495013017504 -11.95288487168124 0.0
    vertex -93.66867349181572 -29.74182370744921 0.0
  endloop
endfacet
facet normal 7.591859860542146e-17 -3.090893754464193e-18 -1.0
  outer loop
    vertex -93.66867349181572 -29.74182370744921 0.0
    vertex -93.94495013017504 -11.95288487168124 0.0
    vertex -93.13483515244515 -12.142119043361443 0.0
  endloop
endfacet
facet normal 7.591859860542146e-17 -3.090893754464193e-18 -1.0
  outer loop
    vertex -93.66867349181572 -29.74182370744921 0.0
    vertex -93.13483515244515 -12.142119043361443 0.0
    vertex -92.98492705774325 -29.47935804232506 0.0
  endloop
endfacet
facet normal 7.591859860542146e-17 -3.090893754464193e-18 -1.0
  outer loop
    vertex -92.98492705774325 -29.47935804232506 0.0
    vertex -93.13483515244515 -12.142119043361443 0.0
    vertex -92.31408083808762 -12.277980017659582 0.0
  endloop
endfacet
facet normal 7.591859860542146e-17 -3.090893754464193e-18 -1.0
  outer loop
    vertex -92.98492705774325 -29.47935804232506 0.0
    vertex -92.31408083808762 -12.277980017659582 0.0
    vertex -92.27749112554224 -29.289801155595036 0.0
  endloop
endfacet
facet normal 7.591859860542146e-17 -3.090893754464193e-18 -1.0
  outer loop
    vertex -92.27749112554224 -29.289801155595036 0.0
    vertex -92.31408083808762 -12.277980017659582 0.0
    vertex -91.48619968760747 -12.359886363893587 0.0
  endloop
endfacet
facet normal 7.591859860542146e-17 -3.090893754464193e-18 -1.0
  outer loop
    vertex -92.27749112554224 -29.289801155595036 0.0
    vertex -91.48619968760747 -12.359886363893587 0.0
    vertex -91.55411651132636 -29.175229872177486 0.0
  endloop
endfacet
facet normal 7.591859860542146e-17 -3.090893754464193e-18 -1.0
  outer loop
    vertex -91.55411651132636 -29.175229872177486 0.0
    vertex -91.48619968760747 -12.359886363893587 0.0
    vertex -90.82272865874485 -29.136899459029085 0.0
  endloop
endfacet
facet normal 7.591859860542146e-17 -3.090893754464193e-18 -1.0
  outer loop
    vertex -90.82272865874485 -29.136899459029085 0.0
    vertex -91.48619968760747 -12.359886363893587 0.0
    vertex -90.65473470152058 -12.387487555630019 0.0
  endloop
endfacet
facet normal 7.591859860542146e-17 -3.090893754464193e-18 -1.0
  outer loop
    vertex -90.82272865874485 -29.136899459029085 0.0
    vertex -90.65473470152058 -12.387487555630019 0.0
    vertex -90.09134080616337 -29.175229872177486 0.0
  endloop
endfacet
facet normal 7.591859860542146e-17 -3.090893754464193e-18 -1.0
  outer loop
    vertex -90.09134080616337 -29.175229872177486 0.0
    vertex -90.65473470152058 -12.387487555630019 0.0
    vertex -89.82324421772715 -12.360665470797253 0.0
  endloop
endfacet
facet normal 7.591859860542146e-17 -3.090893754464193e-18 -1.0
  outer loop
    vertex -90.09134080616337 -29.175229872177486 0.0
    vertex -89.82324421772715 -12.360665470797253 0.0
    vertex -89.36796619194747 -29.289801155595036 0.0
  endloop
endfacet
facet normal 7.591859860542146e-17 -3.090893754464193e-18 -1.0
  outer loop
    vertex -89.36796619194747 -29.289801155595036 0.0
    vertex -89.82324421772715 -12.360665470797253 0.0
    vertex -89.82324421772712 13.019502529202757 0.0
  endloop
endfacet
facet normal 7.591859860542146e-17 -3.090893754464193e-18 -1.0
  outer loop
    vertex -89.36796619194747 -29.289801155595036 0.0
    vertex -89.82324421772712 13.019502529202757 0.0
    vertex -89.56112655861828 29.422713709306894 0.0
  endloop
endfacet
facet normal 7.591859860542146e-17 -3.090893754464193e-18 -1.0
  outer loop
    vertex -89.36796619194747 -29.289801155595036 0.0
    vertex -89.56112655861828 29.422713709306894 0.0
    vertex -88.86915426510521 29.4365008879769 0.0
  endloop
endfacet
facet normal 7.591859860542146e-17 -3.090893754464193e-18 -1.0
  outer loop
    vertex -89.36796619194747 -29.289801155595036 0.0
    vertex -88.86915426510521 29.4365008879769 0.0
    vertex -88.66053025974647 -29.47935804232506 0.0
  endloop
endfacet
facet normal 7.591859860542146e-17 -3.090893754464193e-18 -1.0
  outer loop
    vertex -88.66053025974647 -29.47935804232506 0.0
    vertex -88.86915426510521 29.4365008879769 0.0
    vertex -88.18241382081747 29.522543339504264 0.0
  endloop
endfacet
facet normal 7.591859860542146e-17 -3.090893754464193e-18 -1.0
  outer loop
    vertex -88.66053025974647 -29.47935804232506 0.0
    vertex -88.18241382081747 29.522543339504264 0.0
    vertex -87.97678382567396 -29.74182370744921 0.0
  endloop
endfacet
facet normal 7.591859860542146e-17 -3.090893754464193e-18 -1.0
  outer loop
    vertex -87.97678382567396 -29.74182370744921 0.0
    vertex -88.18241382081747 29.522543339504264 0.0
    vertex -87.5084292977723 29.679898364784563 0.0
  endloop
endfacet
facet normal 7.591859860542146e-17 -3.090893754464193e-18 -1.0
  outer loop
    vertex -87.97678382567396 -29.74182370744921 0.0
    vertex -87.5084292977723 29.679898364784563 0.0
    vertex -87.32421815874484 -30.074322522215905 0.0
  endloop
endfacet
facet normal 7.591859860542146e-17 -3.090893754464193e-18 -1.0
  outer loop
    vertex -87.32421815874484 -30.074322522215905 0.0
    vertex -87.5084292977723 29.679898364784563 0.0
    vertex -86.85458501144453 29.906841949232163 0.0
  endloop
endfacet
facet normal 7.591859860542146e-17 -3.090893754464193e-18 -1.0
  outer loop
    vertex -87.32421815874484 -30.074322522215905 0.0
    vertex -86.85458501144453 29.906841949232163 0.0
    vertex -86.70998290496412 -30.473211560030716 0.0
  endloop
endfacet
facet normal 7.591859860542146e-17 -3.090893754464193e-18 -1.0
  outer loop
    vertex -86.70998290496412 -30.473211560030716 0.0
    vertex -86.85458501144453 29.906841949232163 0.0
    vertex -86.22804461666088 30.200887651444802 0.0
  endloop
endfacet
facet normal 7.591859860542146e-17 -3.090893754464193e-18 -1.0
  outer loop
    vertex -86.70998290496412 -30.473211560030716 0.0
    vertex -86.22804461666088 30.200887651444802 0.0
    vertex -86.14080775430918 -30.934120509122447 0.0
  endloop
endfacet
facet normal 7.591859860542146e-17 -3.090893754464193e-18 -1.0
  outer loop
    vertex -86.14080775430918 -30.934120509122447 0.0
    vertex -86.22804461666088 30.200887651444802 0.0
    vertex -85.6356726210986 30.558813845176047 0.0
  endloop
endfacet
facet normal 7.591859860542146e-17 -3.090893754464193e-18 -1.0
  outer loop
    vertex -86.14080775430918 -30.934120509122447 0.0
    vertex -85.6356726210986 30.558813845176047 0.0
    vertex -85.62292870883819 -31.45199955459345 0.0
  endloop
endfacet
facet normal 7.591859860542146e-17 -3.090893754464193e-18 -1.0
  outer loop
    vertex -85.62292870883819 -31.45199955459345 0.0
    vertex -85.6356726210986 30.558813845176047 0.0
    vertex -85.0839591763029 30.976699016146544 0.0
  endloop
endfacet
facet normal 7.591859860542146e-17 -3.090893754464193e-18 -1.0
  outer loop
    vertex -85.62292870883819 -31.45199955459345 0.0
    vertex -85.0839591763029 30.976699016146544 0.0
    vertex -85.16201975974647 -32.02117470524838 0.0
  endloop
endfacet
facet normal 7.591859860542146e-17 -3.090893754464193e-18 -1.0
  outer loop
    vertex -85.16201975974647 -32.02117470524838 0.0
    vertex -85.0839591763029 30.976699016146544 0.0
    vertex -84.76313072193166 -32.635409959029104 0.0
  endloop
endfacet
facet normal 7.591859860542146e-17 -3.090893754464193e-18 -1.0
  outer loop
    vertex -84.76313072193166 -32.635409959029104 0.0
    vertex -85.0839591763029 30.976699016146544 0.0
    vertex -84.57894897022841 31.449964726975008 0.0
  endloop
endfacet
facet normal 7.591859860542146e-17 -3.090893754464193e-18 -1.0
  outer loop
    vertex -84.76313072193166 -32.635409959029104 0.0
    vertex -84.57894897022841 31.449964726975008 0.0
    vertex -84.43063190716497 -33.287975625958246 0.0
  endloop
endfacet
facet normal 7.591859860542146e-17 -3.090893754464193e-18 -1.0
  outer loop
    vertex -84.43063190716497 -33.287975625958246 0.0
    vertex -84.57894897022841 31.449964726975008 0.0
    vertex -84.12617500037305 31.973425779496388 0.0
  endloop
endfacet
facet normal 7.591859860542146e-17 -3.090893754464193e-18 -1.0
  outer loop
    vertex -84.43063190716497 -33.287975625958246 0.0
    vertex -84.12617500037305 31.973425779496388 0.0
    vertex -84.16816624204083 -33.971722060030736 0.0
  endloop
endfacet
facet normal 7.591859860542146e-17 -3.090893754464193e-18 -1.0
  outer loop
    vertex -84.16816624204083 -33.971722060030736 0.0
    vertex -84.12617500037305 31.973425779496388 0.0
    vertex -83.9786093553108 -34.67915799223174 0.0
  endloop
endfacet
facet normal 7.591859860542146e-17 -3.090893754464193e-18 -1.0
  outer loop
    vertex -83.9786093553108 -34.67915799223174 0.0
    vertex -84.12617500037305 31.973425779496388 0.0
    vertex -83.73059795309962 32.54134702487797 0.0
  endloop
endfacet
facet normal 7.591859860542146e-17 -3.090893754464193e-18 -1.0
  outer loop
    vertex -83.9786093553108 -34.67915799223174 0.0
    vertex -83.73059795309962 32.54134702487797 0.0
    vertex -83.86403807189325 -35.40253260644759 0.0
  endloop
endfacet
facet normal 7.591859860542146e-17 -3.090893754464193e-18 -1.0
  outer loop
    vertex -83.86403807189325 -35.40253260644759 0.0
    vertex -83.73059795309962 32.54134702487797 0.0
    vertex -83.82570765874485 -36.1339204590291 0.0
  endloop
endfacet
facet normal 7.591859860542146e-17 -3.090893754464193e-18 -1.0
  outer loop
    vertex -97.81974965874487 -36.1339204590291 0.0
    vertex -97.77639308728389 -45.50994939077185 0.0
    vertex -98.30200832465111 -44.808684600036464 0.0
  endloop
endfacet
facet normal 7.591859860542146e-17 -3.090893754464193e-18 -1.0
  outer loop
    vertex -97.77639308728389 -45.50994939077185 0.0
    vertex -97.81974965874487 -36.1339204590291 0.0
    vertex -97.78141924559647 -36.865308311610605 0.0
  endloop
endfacet
facet normal 7.591859860542146e-17 -3.090893754464193e-18 -1.0
  outer loop
    vertex -97.77639308728389 -45.50994939077185 0.0
    vertex -97.78141924559647 -36.865308311610605 0.0
    vertex -97.66684796217892 -37.58868292582646 0.0
  endloop
endfacet
facet normal 7.591859860542146e-17 -3.090893754464193e-18 -1.0
  outer loop
    vertex -97.77639308728389 -45.50994939077185 0.0
    vertex -97.66684796217892 -37.58868292582646 0.0
    vertex -97.19393074715077 -46.164763339007834 0.0
  endloop
endfacet
facet normal 7.591859860542146e-17 -3.090893754464193e-18 -1.0
  outer loop
    vertex -97.19393074715077 -46.164763339007834 0.0
    vertex -97.66684796217892 -37.58868292582646 0.0
    vertex -97.47729107544892 -38.296118858027505 0.0
  endloop
endfacet
facet normal 7.591859860542146e-17 -3.090893754464193e-18 -1.0
  outer loop
    vertex -97.19393074715077 -46.164763339007834 0.0
    vertex -97.47729107544892 -38.296118858027505 0.0
    vertex -97.21482541032475 -38.979865292099994 0.0
  endloop
endfacet
facet normal 7.591859860542146e-17 -3.090893754464193e-18 -1.0
  outer loop
    vertex -97.19393074715077 -46.164763339007834 0.0
    vertex -97.21482541032475 -38.979865292099994 0.0
    vertex -96.88232659555806 -39.632430959029094 0.0
  endloop
endfacet
facet normal 7.591859860542146e-17 -3.090893754464193e-18 -1.0
  outer loop
    vertex -97.19393074715077 -46.164763339007834 0.0
    vertex -96.88232659555806 -39.632430959029094 0.0
    vertex -96.558708375246 -46.768531690869196 0.0
  endloop
endfacet
facet normal 7.591859860542146e-17 -3.090893754464193e-18 -1.0
  outer loop
    vertex -96.558708375246 -46.768531690869196 0.0
    vertex -96.88232659555806 -39.632430959029094 0.0
    vertex -96.48343755774326 -40.246666212809814 0.0
  endloop
endfacet
facet normal 7.591859860542146e-17 -3.090893754464193e-18 -1.0
  outer loop
    vertex -96.558708375246 -46.768531690869196 0.0
    vertex -96.48343755774326 -40.246666212809814 0.0
    vertex -95.87518325361553 -47.31701787353729 0.0
  endloop
endfacet
facet normal 7.591859860542146e-17 -3.090893754464193e-18 -1.0
  outer loop
    vertex -95.87518325361553 -47.31701787353729 0.0
    vertex -96.48343755774326 -40.246666212809814 0.0
    vertex -96.02252860865153 -40.81584136346475 0.0
  endloop
endfacet
facet normal 7.591859860542146e-17 -3.090893754464193e-18 -1.0
  outer loop
    vertex -95.87518325361553 -47.31701787353729 0.0
    vertex -96.02252860865153 -40.81584136346475 0.0
    vertex -95.50464956318054 -41.33372040893575 0.0
  endloop
endfacet
facet normal 7.591859860542146e-17 -3.090893754464193e-18 -1.0
  outer loop
    vertex -95.87518325361553 -47.31701787353729 0.0
    vertex -95.50464956318054 -41.33372040893575 0.0
    vertex -95.14815159912348 -47.806373222792054 0.0
  endloop
endfacet
facet normal 7.591859860542146e-17 -3.090893754464193e-18 -1.0
  outer loop
    vertex -95.14815159912348 -47.806373222792054 0.0
    vertex -95.50464956318054 -41.33372040893575 0.0
    vertex -94.93547441252562 -41.79462935802748 0.0
  endloop
endfacet
facet normal 7.591859860542146e-17 -3.090893754464193e-18 -1.0
  outer loop
    vertex -95.14815159912348 -47.806373222792054 0.0
    vertex -94.93547441252562 -41.79462935802748 0.0
    vertex -94.38271490895212 -48.23316398864491 0.0
  endloop
endfacet
facet normal 7.591859860542146e-17 -3.090893754464193e-18 -1.0
  outer loop
    vertex -94.38271490895212 -48.23316398864491 0.0
    vertex -94.93547441252562 -41.79462935802748 0.0
    vertex -94.32123915874487 -42.19351839584229 0.0
  endloop
endfacet
facet normal 7.591859860542146e-17 -3.090893754464193e-18 -1.0
  outer loop
    vertex -94.38271490895212 -48.23316398864491 0.0
    vertex -94.32123915874487 -42.19351839584229 0.0
    vertex -93.58424416398525 -48.59439542956577 0.0
  endloop
endfacet
facet normal 7.591859860542146e-17 -3.090893754464193e-18 -1.0
  outer loop
    vertex -93.58424416398525 -48.59439542956577 0.0
    vertex -94.32123915874487 -42.19351839584229 0.0
    vertex -93.66867349181572 -42.526017210608984 0.0
  endloop
endfacet
facet normal 7.591859860542146e-17 -3.090893754464193e-18 -1.0
  outer loop
    vertex -93.58424416398525 -48.59439542956577 0.0
    vertex -93.66867349181572 -42.526017210608984 0.0
    vertex -92.98492705774325 -42.78848287573311 0.0
  endloop
endfacet
facet normal 7.591859860542146e-17 -3.090893754464193e-18 -1.0
  outer loop
    vertex -93.58424416398525 -48.59439542956577 0.0
    vertex -92.98492705774325 -42.78848287573311 0.0
    vertex -92.75834214125513 -48.88753282623847 0.0
  endloop
endfacet
facet normal 7.591859860542146e-17 -3.090893754464193e-18 -1.0
  outer loop
    vertex -92.75834214125513 -48.88753282623847 0.0
    vertex -92.98492705774325 -42.78848287573311 0.0
    vertex -92.27749112554224 -42.97803976246316 0.0
  endloop
endfacet
facet normal 7.591859860542146e-17 -3.090893754464193e-18 -1.0
  outer loop
    vertex -92.75834214125513 -48.88753282623847 0.0
    vertex -92.27749112554224 -42.97803976246316 0.0
    vertex -91.91080409990326 -49.11051926739395 0.0
  endloop
endfacet
facet normal 7.591859860542146e-17 -3.090893754464193e-18 -1.0
  outer loop
    vertex -91.91080409990326 -49.11051926739395 0.0
    vertex -92.27749112554224 -42.97803976246316 0.0
    vertex -91.55411651132636 -43.09261104588072 0.0
  endloop
endfacet
facet normal 7.591859860542146e-17 -3.090893754464193e-18 -1.0
  outer loop
    vertex -91.91080409990326 -49.11051926739395 0.0
    vertex -91.55411651132636 -43.09261104588072 0.0
    vertex -91.04757711651582 -49.261790082918836 0.0
  endloop
endfacet
facet normal 7.591859860542146e-17 -3.090893754464193e-18 -1.0
  outer loop
    vertex -91.04757711651582 -49.261790082918836 0.0
    vertex -91.55411651132636 -43.09261104588072 0.0
    vertex -90.82272865874488 -43.130941459029124 0.0
  endloop
endfacet
facet normal 7.591859860542146e-17 -3.090893754464193e-18 -1.0
  outer loop
    vertex -91.04757711651582 -49.261790082918836 0.0
    vertex -90.82272865874488 -43.130941459029124 0.0
    vertex -90.17471835517394 -49.340283822965105 0.0
  endloop
endfacet
facet normal 7.591859860542146e-17 -3.090893754464193e-18 -1.0
  outer loop
    vertex -90.17471835517394 -49.340283822965105 0.0
    vertex -90.82272865874488 -43.130941459029124 0.0
    vertex -90.09134080616333 -43.09261104588072 0.0
  endloop
endfacet
facet normal 7.591859860542146e-17 -3.090893754464193e-18 -1.0
  outer loop
    vertex -90.17471835517394 -49.340283822965105 0.0
    vertex -90.09134080616333 -43.09261104588072 0.0
    vertex -89.29835256503263 -49.345449706021135 0.0
  endloop
endfacet
facet normal 7.591859860542146e-17 -3.090893754464193e-18 -1.0
  outer loop
    vertex -89.29835256503263 -49.345449706021135 0.0
    vertex -90.09134080616333 -43.09261104588072 0.0
    vertex -89.36796619194747 -42.97803976246316 0.0
  endloop
endfacet
facet normal 7.591859860542146e-17 -3.090893754464193e-18 -1.0
  outer loop
    vertex -89.29835256503263 -49.345449706021135 0.0
    vertex -89.36796619194747 -42.97803976246316 0.0
    vertex -88.66053025974645 -42.78848287573311 0.0
  endloop
endfacet
facet normal 7.591859860542146e-17 -3.090893754464193e-18 -1.0
  outer loop
    vertex -89.29835256503263 -49.345449706021135 0.0
    vertex -88.66053025974645 -42.78848287573311 0.0
    vertex -88.42462910366312 -49.27725148368188 0.0
  endloop
endfacet
facet normal 7.591859860542146e-17 -3.090893754464193e-18 -1.0
  outer loop
    vertex -88.42462910366312 -49.27725148368188 0.0
    vertex -88.66053025974645 -42.78848287573311 0.0
    vertex -87.97678382567393 -42.52601721060896 0.0
  endloop
endfacet
facet normal 7.591859860542146e-17 -3.090893754464193e-18 -1.0
  outer loop
    vertex -88.42462910366312 -49.27725148368188 0.0
    vertex -87.97678382567393 -42.52601721060896 0.0
    vertex -87.55967878772071 -49.13616769499995 0.0
  endloop
endfacet
facet normal 7.591859860542146e-17 -3.090893754464193e-18 -1.0
  outer loop
    vertex -87.55967878772071 -49.13616769499995 0.0
    vertex -87.97678382567393 -42.52601721060896 0.0
    vertex -87.32421815874484 -42.19351839584227 0.0
  endloop
endfacet
facet normal 7.591859860542146e-17 -3.090893754464193e-18 -1.0
  outer loop
    vertex -87.55967878772071 -49.13616769499995 0.0
    vertex -87.32421815874484 -42.19351839584227 0.0
    vertex -86.7095708737121 -48.923188308632064 0.0
  endloop
endfacet
facet normal 7.591859860542146e-17 -3.090893754464193e-18 -1.0
  outer loop
    vertex -86.7095708737121 -48.923188308632064 0.0
    vertex -87.32421815874484 -42.19351839584227 0.0
    vertex -86.70998290496412 -41.79462935802746 0.0
  endloop
endfacet
facet normal 7.591859860542146e-17 -3.090893754464193e-18 -1.0
  outer loop
    vertex -86.7095708737121 -48.923188308632064 0.0
    vertex -86.70998290496412 -41.79462935802746 0.0
    vertex -86.14080775430918 -41.33372040893575 0.0
  endloop
endfacet
facet normal 7.591859860542146e-17 -3.090893754464193e-18 -1.0
  outer loop
    vertex -86.7095708737121 -48.923188308632064 0.0
    vertex -86.14080775430918 -41.33372040893575 0.0
    vertex -85.88027047072319 -48.63980777634345 0.0
  endloop
endfacet
facet normal 7.591859860542146e-17 -3.090893754464193e-18 -1.0
  outer loop
    vertex -85.88027047072319 -48.63980777634345 0.0
    vertex -86.14080775430918 -41.33372040893575 0.0
    vertex -85.62292870883819 -40.81584136346475 0.0
  endloop
endfacet
facet normal 7.591859860542146e-17 -3.090893754464193e-18 -1.0
  outer loop
    vertex -85.88027047072319 -48.63980777634345 0.0
    vertex -85.62292870883819 -40.81584136346475 0.0
    vertex -85.07759668393734 -48.28801454661234 0.0
  endloop
endfacet
facet normal 7.591859860542146e-17 -3.090893754464193e-18 -1.0
  outer loop
    vertex -85.07759668393734 -48.28801454661234 0.0
    vertex -85.62292870883819 -40.81584136346475 0.0
    vertex -85.16201975974647 -40.246666212809814 0.0
  endloop
endfacet
facet normal 7.591859860542146e-17 -3.090893754464193e-18 -1.0
  outer loop
    vertex -85.07759668393734 -48.28801454661234 0.0
    vertex -85.16201975974647 -40.246666212809814 0.0
    vertex -84.76313072193166 -39.632430959029094 0.0
  endloop
endfacet
facet normal 7.591859860542146e-17 -3.090893754464193e-18 -1.0
  outer loop
    vertex -85.07759668393734 -48.28801454661234 0.0
    vertex -84.76313072193166 -39.632430959029094 0.0
    vertex -84.30718178264615 -47.870277111916565 0.0
  endloop
endfacet
facet normal 7.591859860542146e-17 -3.090893754464193e-18 -1.0
  outer loop
    vertex -84.30718178264615 -47.870277111916565 0.0
    vertex -84.76313072193166 -39.632430959029094 0.0
    vertex -84.43063190716497 -38.979865292099994 0.0
  endloop
endfacet
facet normal 7.591859860542146e-17 -3.090893754464193e-18 -1.0
  outer loop
    vertex -84.30718178264615 -47.870277111916565 0.0
    vertex -84.43063190716497 -38.979865292099994 0.0
    vertex -84.16816624204083 -38.29611885802746 0.0
  endloop
endfacet
facet normal 7.591859860542146e-17 -3.090893754464193e-18 -1.0
  outer loop
    vertex -84.30718178264615 -47.870277111916565 0.0
    vertex -84.16816624204083 -38.29611885802746 0.0
    vertex -83.574431679266 -47.38952668760673 0.0
  endloop
endfacet
facet normal 7.591859860542146e-17 -3.090893754464193e-18 -1.0
  outer loop
    vertex -83.574431679266 -47.38952668760673 0.0
    vertex -84.16816624204083 -38.29611885802746 0.0
    vertex -83.9786093553108 -37.58868292582646 0.0
  endloop
endfacet
facet normal 7.591859860542146e-17 -3.090893754464193e-18 -1.0
  outer loop
    vertex -83.574431679266 -47.38952668760673 0.0
    vertex -83.9786093553108 -37.58868292582646 0.0
    vertex -83.86403807189325 -36.865308311610605 0.0
  endloop
endfacet
facet normal 7.591859860542146e-17 -3.090893754464193e-18 -1.0
  outer loop
    vertex -83.574431679266 -47.38952668760673 0.0
    vertex -83.86403807189325 -36.865308311610605 0.0
    vertex -83.82570765874485 -36.1339204590291 0.0
  endloop
endfacet
facet normal 7.591859860542146e-17 -3.090893754464193e-18 -1.0
  outer loop
    vertex -83.574431679266 -47.38952668760673 0.0
    vertex -83.82570765874485 -36.1339204590291 0.0
    vertex -83.73059795309962 32.54134702487797 0.0
  endloop
endfacet
facet normal 7.591859860542146e-17 -3.090893754464193e-18 -1.0
  outer loop
    vertex -83.574431679266 -47.38952668760673 0.0
    vertex -83.73059795309962 32.54134702487797 0.0
    vertex -83.39655185331783 33.14750619911027 0.0
  endloop
endfacet
facet normal 7.591859860542146e-17 -3.090893754464193e-18 -1.0
  outer loop
    vertex -83.574431679266 -47.38952668760673 0.0
    vertex -83.39655185331783 33.14750619911027 0.0
    vertex -82.88448799667485 -46.84913664390653 0.0
  endloop
endfacet
facet normal 7.591859860542146e-17 -3.090893754464193e-18 -1.0
  outer loop
    vertex -82.88448799667485 -46.84913664390653 0.0
    vertex -83.39655185331783 33.14750619911027 0.0
    vertex -83.12769658000057 33.785262095433346 0.0
  endloop
endfacet
facet normal 7.591859860542146e-17 -3.090893754464193e-18 -1.0
  outer loop
    vertex -82.88448799667485 -46.84913664390653 0.0
    vertex -83.12769658000057 33.785262095433346 0.0
    vertex -82.92697776778385 34.44762732678812 0.0
  endloop
endfacet
facet normal 7.591859860542146e-17 -3.090893754464193e-18 -1.0
  outer loop
    vertex -82.88448799667485 -46.84913664390653 0.0
    vertex -82.92697776778385 34.44762732678812 0.0
    vertex -82.7965945339775 35.127344881091055 0.0
  endloop
endfacet
facet normal 7.591859860542146e-17 -3.090893754464193e-18 -1.0
  outer loop
    vertex -82.88448799667485 -46.84913664390653 0.0
    vertex -82.7965945339775 35.127344881091055 0.0
    vertex -82.24219199003798 -46.2528988353636 0.0
  endloop
endfacet
facet normal 7.591859860542146e-17 -3.090893754464193e-18 -1.0
  outer loop
    vertex -82.24219199003798 -46.2528988353636 0.0
    vertex -82.7965945339775 35.127344881091055 0.0
    vertex -82.73797538457545 35.81696763057717 0.0
  endloop
endfacet
facet normal 7.591859860542146e-17 -3.090893754464193e-18 -1.0
  outer loop
    vertex -95.44665423913466 47.14326618961716 0.0
    vertex -95.95538047988855 36.24586488334968 0.0
    vertex -96.13987629873726 46.46640388268363 0.0
  endloop
endfacet
facet normal 7.591859860542146e-17 -3.090893754464193e-18 -1.0
  outer loop
    vertex -95.95538047988855 36.24586488334968 0.0
    vertex -95.44665423913466 47.14326618961716 0.0
    vertex -95.8967613304865 36.935487632835745 0.0
  endloop
endfacet
facet normal 7.591859860542146e-17 -3.090893754464193e-18 -1.0
  outer loop
    vertex -95.8967613304865 36.935487632835745 0.0
    vertex -95.44665423913466 47.14326618961716 0.0
    vertex -95.76637809668014 37.61520518713868 0.0
  endloop
endfacet
facet normal 7.591859860542146e-17 -3.090893754464193e-18 -1.0
  outer loop
    vertex -95.76637809668014 37.61520518713868 0.0
    vertex -95.44665423913466 47.14326618961716 0.0
    vertex -95.56565928446342 38.277570418493504 0.0
  endloop
endfacet
facet normal 7.591859860542146e-17 -3.090893754464193e-18 -1.0
  outer loop
    vertex -95.56565928446342 38.277570418493504 0.0
    vertex -95.44665423913466 47.14326618961716 0.0
    vertex -95.29680401114616 38.91532631481658 0.0
  endloop
endfacet
facet normal 7.591859860542146e-17 -3.090893754464193e-18 -1.0
  outer loop
    vertex -95.29680401114616 38.91532631481658 0.0
    vertex -95.44665423913466 47.14326618961716 0.0
    vertex -94.69770160105249 47.75789563275892 0.0
  endloop
endfacet
facet normal 7.591859860542146e-17 -3.090893754464193e-18 -1.0
  outer loop
    vertex -95.29680401114616 38.91532631481658 0.0
    vertex -94.69770160105249 47.75789563275892 0.0
    vertex -94.96275791136438 39.52148548904888 0.0
  endloop
endfacet
facet normal 7.591859860542146e-17 -3.090893754464193e-18 -1.0
  outer loop
    vertex -94.96275791136438 39.52148548904888 0.0
    vertex -94.69770160105249 47.75789563275892 0.0
    vertex -94.56718086409094 40.08940673443046 0.0
  endloop
endfacet
facet normal 7.591859860542146e-17 -3.090893754464193e-18 -1.0
  outer loop
    vertex -94.56718086409094 40.08940673443046 0.0
    vertex -94.69770160105249 47.75789563275892 0.0
    vertex -93.89858652551831 48.30572270631505 0.0
  endloop
endfacet
facet normal 7.591859860542146e-17 -3.090893754464193e-18 -1.0
  outer loop
    vertex -94.56718086409094 40.08940673443046 0.0
    vertex -93.89858652551831 48.30572270631505 0.0
    vertex -94.11440689423559 40.612867786951846 0.0
  endloop
endfacet
facet normal 7.591859860542146e-17 -3.090893754464193e-18 -1.0
  outer loop
    vertex -94.11440689423559 40.612867786951846 0.0
    vertex -93.89858652551831 48.30572270631505 0.0
    vertex -93.60939668816106 41.08613349778032 0.0
  endloop
endfacet
facet normal 7.591859860542146e-17 -3.090893754464193e-18 -1.0
  outer loop
    vertex -93.60939668816106 41.08613349778032 0.0
    vertex -93.89858652551831 48.30572270631505 0.0
    vertex -93.05525008972661 48.782674551403396 0.0
  endloop
endfacet
facet normal 7.591859860542146e-17 -3.090893754464193e-18 -1.0
  outer loop
    vertex -93.60939668816106 41.08613349778032 0.0
    vertex -93.05525008972661 48.782674551403396 0.0
    vertex -93.05768324336535 41.50401866875077 0.0
  endloop
endfacet
facet normal 7.591859860542146e-17 -3.090893754464193e-18 -1.0
  outer loop
    vertex -93.05768324336535 41.50401866875077 0.0
    vertex -93.05525008972661 48.782674551403396 0.0
    vertex -92.4653112478031 41.86194486248206 0.0
  endloop
endfacet
facet normal 7.591859860542146e-17 -3.090893754464193e-18 -1.0
  outer loop
    vertex -92.4653112478031 41.86194486248206 0.0
    vertex -93.05525008972661 48.782674551403396 0.0
    vertex -92.17396213768275 49.18520523600935 0.0
  endloop
endfacet
facet normal 7.591859860542146e-17 -3.090893754464193e-18 -1.0
  outer loop
    vertex -92.4653112478031 41.86194486248206 0.0
    vertex -92.17396213768275 49.18520523600935 0.0
    vertex -91.83877085301944 42.15599056469471 0.0
  endloop
endfacet
facet normal 7.591859860542146e-17 -3.090893754464193e-18 -1.0
  outer loop
    vertex -91.83877085301944 42.15599056469471 0.0
    vertex -92.17396213768275 49.18520523600935 0.0
    vertex -91.26127466660704 49.510322117466586 0.0
  endloop
endfacet
facet normal 7.591859860542146e-17 -3.090893754464193e-18 -1.0
  outer loop
    vertex -91.83877085301944 42.15599056469471 0.0
    vertex -91.26127466660704 49.510322117466586 0.0
    vertex -91.18492656669167 42.382934149142265 0.0
  endloop
endfacet
facet normal 7.591859860542146e-17 -3.090893754464193e-18 -1.0
  outer loop
    vertex -91.18492656669167 42.382934149142265 0.0
    vertex -91.26127466660704 49.510322117466586 0.0
    vertex -90.32397311565097 49.75560809146914 0.0
  endloop
endfacet
facet normal 7.591859860542146e-17 -3.090893754464193e-18 -1.0
  outer loop
    vertex -91.18492656669167 42.382934149142265 0.0
    vertex -90.32397311565097 49.75560809146914 0.0
    vertex -90.51094204364651 42.54028917442256 0.0
  endloop
endfacet
facet normal 7.591859860542146e-17 -3.090893754464193e-18 -1.0
  outer loop
    vertex -90.51094204364651 42.54028917442256 0.0
    vertex -90.32397311565097 49.75560809146914 0.0
    vertex -89.82420159935877 42.626331625949966 0.0
  endloop
endfacet
facet normal 7.591859860542146e-17 -3.090893754464193e-18 -1.0
  outer loop
    vertex -89.82420159935877 42.626331625949966 0.0
    vertex -90.32397311565097 49.75560809146914 0.0
    vertex -89.36902591907291 49.91923956220362 0.0
  endloop
endfacet
facet normal 7.591859860542146e-17 -3.090893754464193e-18 -1.0
  outer loop
    vertex -89.82420159935877 42.626331625949966 0.0
    vertex -89.36902591907291 49.91923956220362 0.0
    vertex -89.13222930584571 42.64011880461993 0.0
  endloop
endfacet
facet normal 7.591859860542146e-17 -3.090893754464193e-18 -1.0
  outer loop
    vertex -89.13222930584571 42.64011880461993 0.0
    vertex -89.36902591907291 49.91923956220362 0.0
    vertex -88.40353269892377 50.0 0.0
  endloop
endfacet
facet normal 7.591859860542146e-17 -3.090893754464193e-18 -1.0
  outer loop
    vertex -89.13222930584571 42.64011880461993 0.0
    vertex -88.40353269892377 50.0 0.0
    vertex -88.44260655635964 42.58149965521791 0.0
  endloop
endfacet
facet normal 7.591859860542146e-17 -3.090893754464193e-18 -1.0
  outer loop
    vertex -88.44260655635964 42.58149965521791 0.0
    vertex -88.40353269892377 50.0 0.0
    vertex -87.76288900205667 42.45111642141154 0.0
  endloop
endfacet
facet normal 7.591859860542146e-17 -3.090893754464193e-18 -1.0
  outer loop
    vertex -87.76288900205667 42.45111642141154 0.0
    vertex -88.40353269892377 50.0 0.0
    vertex -87.43467148240792 49.99728898570728 0.0
  endloop
endfacet
facet normal 7.591859860542146e-17 -3.090893754464193e-18 -1.0
  outer loop
    vertex -87.76288900205667 42.45111642141154 0.0
    vertex -87.43467148240792 49.99728898570728 0.0
    vertex -87.1005237707019 42.25039760919483 0.0
  endloop
endfacet
facet normal 7.591859860542146e-17 -3.090893754464193e-18 -1.0
  outer loop
    vertex -87.1005237707019 42.25039760919483 0.0
    vertex -87.43467148240792 49.99728898570728 0.0
    vertex -86.4696453363355 49.91112667455181 0.0
  endloop
endfacet
facet normal 7.591859860542146e-17 -3.090893754464193e-18 -1.0
  outer loop
    vertex -87.1005237707019 42.25039760919483 0.0
    vertex -86.4696453363355 49.91112667455181 0.0
    vertex -86.4627678743788 41.98154233587756 0.0
  endloop
endfacet
facet normal 7.591859860542146e-17 -3.090893754464193e-18 -1.0
  outer loop
    vertex -86.4627678743788 41.98154233587756 0.0
    vertex -86.4696453363355 49.91112667455181 0.0
    vertex -85.51562881541584 49.74215364629174 0.0
  endloop
endfacet
facet normal 7.591859860542146e-17 -3.090893754464193e-18 -1.0
  outer loop
    vertex -86.4627678743788 41.98154233587756 0.0
    vertex -85.51562881541584 49.74215364629174 0.0
    vertex -85.85660870014652 41.64749623609578 0.0
  endloop
endfacet
facet normal 7.591859860542146e-17 -3.090893754464193e-18 -1.0
  outer loop
    vertex -85.85660870014652 41.64749623609578 0.0
    vertex -85.51562881541584 49.74215364629174 0.0
    vertex -85.28868745476494 41.25191918882232 0.0
  endloop
endfacet
facet normal 7.591859860542146e-17 -3.090893754464193e-18 -1.0
  outer loop
    vertex -85.28868745476494 41.25191918882232 0.0
    vertex -85.51562881541584 49.74215364629174 0.0
    vertex -84.5797146225263 49.49162614278183 0.0
  endloop
endfacet
facet normal 7.591859860542146e-17 -3.090893754464193e-18 -1.0
  outer loop
    vertex -85.28868745476494 41.25191918882232 0.0
    vertex -84.5797146225263 49.49162614278183 0.0
    vertex -84.76522640224356 40.799145218966984 0.0
  endloop
endfacet
facet normal 7.591859860542146e-17 -3.090893754464193e-18 -1.0
  outer loop
    vertex -84.76522640224356 40.799145218966984 0.0
    vertex -84.5797146225263 49.49162614278183 0.0
    vertex -84.29196069141508 40.29413501289246 0.0
  endloop
endfacet
facet normal 7.591859860542146e-17 -3.090893754464193e-18 -1.0
  outer loop
    vertex -84.29196069141508 40.29413501289246 0.0
    vertex -84.5797146225263 49.49162614278183 0.0
    vertex -83.66886087751412 49.16140672835509 0.0
  endloop
endfacet
facet normal 7.591859860542146e-17 -3.090893754464193e-18 -1.0
  outer loop
    vertex -84.29196069141508 40.29413501289246 0.0
    vertex -83.66886087751412 49.16140672835509 0.0
    vertex -83.8740755204446 39.742421568096745 0.0
  endloop
endfacet
facet normal 7.591859860542146e-17 -3.090893754464193e-18 -1.0
  outer loop
    vertex -83.8740755204446 39.742421568096745 0.0
    vertex -83.66886087751412 49.16140672835509 0.0
    vertex -83.51614932671335 39.1500495725345 0.0
  endloop
endfacet
facet normal 7.591859860542146e-17 -3.090893754464193e-18 -1.0
  outer loop
    vertex -83.51614932671335 39.1500495725345 0.0
    vertex -83.66886087751412 49.16140672835509 0.0
    vertex -82.7898393865655 48.75395044245748 0.0
  endloop
endfacet
facet normal 7.591859860542146e-17 -3.090893754464193e-18 -1.0
  outer loop
    vertex -83.51614932671335 39.1500495725345 0.0
    vertex -82.7898393865655 48.75395044245748 0.0
    vertex -83.22210362450069 38.523509177750846 0.0
  endloop
endfacet
facet normal 7.591859860542146e-17 -3.090893754464193e-18 -1.0
  outer loop
    vertex -83.22210362450069 38.523509177750846 0.0
    vertex -82.7898393865655 48.75395044245748 0.0
    vertex -82.99516004005314 37.869664891423106 0.0
  endloop
endfacet
facet normal 7.591859860542146e-17 -3.090893754464193e-18 -1.0
  outer loop
    vertex -82.99516004005314 37.869664891423106 0.0
    vertex -82.7898393865655 48.75395044245748 0.0
    vertex -82.83780501477284 37.19568036837796 0.0
  endloop
endfacet
facet normal 7.591859860542146e-17 -3.090893754464193e-18 -1.0
  outer loop
    vertex -82.83780501477284 37.19568036837796 0.0
    vertex -82.7898393865655 48.75395044245748 0.0
    vertex -82.75176256324545 36.5089399240902 0.0
  endloop
endfacet
facet normal 7.591859860542146e-17 -3.090893754464193e-18 -1.0
  outer loop
    vertex -82.75176256324545 36.5089399240902 0.0
    vertex -82.7898393865655 48.75395044245748 0.0
    vertex -81.94918529673649 48.27228654748425 0.0
  endloop
endfacet
facet normal 7.591859860542146e-17 -3.090893754464193e-18 -1.0
  outer loop
    vertex -82.75176256324545 36.5089399240902 0.0
    vertex -81.94918529673649 48.27228654748425 0.0
    vertex -82.73797538457545 35.81696763057717 0.0
  endloop
endfacet
facet normal 7.591859860542146e-17 -3.090893754464193e-18 -1.0
  outer loop
    vertex -82.73797538457545 35.81696763057717 0.0
    vertex -81.94918529673649 48.27228654748425 0.0
    vertex -82.24219199003798 -46.2528988353636 0.0
  endloop
endfacet
facet normal 7.591859860542146e-17 -3.090893754464193e-18 -1.0
  outer loop
    vertex -82.24219199003798 -46.2528988353636 0.0
    vertex -81.94918529673649 48.27228654748425 0.0
    vertex -78.50506789054327 -39.44112546228871 0.0
  endloop
endfacet
facet normal 7.591859860542146e-17 -3.090893754464193e-18 -1.0
  outer loop
    vertex -78.50506789054327 -39.44112546228871 0.0
    vertex -81.94918529673649 48.27228654748425 0.0
    vertex -81.15314850994282 47.719996007516144 0.0
  endloop
endfacet
facet normal 7.591859860542146e-17 -3.090893754464193e-18 -1.0
  outer loop
    vertex -78.50506789054327 -39.44112546228871 0.0
    vertex -81.15314850994282 47.719996007516144 0.0
    vertex -80.407647217625 47.10118486539 0.0
  endloop
endfacet
facet normal 7.591859860542146e-17 -3.090893754464193e-18 -1.0
  outer loop
    vertex -78.50506789054327 -39.44112546228871 0.0
    vertex -80.407647217625 47.10118486539 0.0
    vertex -79.71822390153791 46.42045371603479 0.0
  endloop
endfacet
facet normal 7.591859860542146e-17 -3.090893754464193e-18 -1.0
  outer loop
    vertex -78.50506789054327 -39.44112546228871 0.0
    vertex -79.71822390153791 46.42045371603479 0.0
    vertex -79.09000412778073 45.682863503025175 0.0
  endloop
endfacet
facet normal 7.591859860542146e-17 -3.090893754464193e-18 -1.0
  outer loop
    vertex -78.50506789054327 -39.44112546228871 0.0
    vertex -79.09000412778073 45.682863503025175 0.0
    vertex -78.52765844041564 44.89389789264102 0.0
  endloop
endfacet
facet normal 7.591859860542146e-17 -3.090893754464193e-18 -1.0
  outer loop
    vertex -78.50506789054327 -39.44112546228871 0.0
    vertex -78.52765844041564 44.89389789264102 0.0
    vertex -78.03536763797948 44.059422505164655 0.0
  endloop
endfacet
facet normal 7.591859860542146e-17 -3.090893754464193e-18 -1.0
  outer loop
    vertex -78.50506789054327 -39.44112546228871 0.0
    vertex -78.03536763797948 44.059422505164655 0.0
    vertex -75.33730377648637 -32.346647078443226 0.0
  endloop
endfacet
facet normal 7.591859860542146e-17 -3.090893754464193e-18 -1.0
  outer loop
    vertex -75.33730377648637 -32.346647078443226 0.0
    vertex -78.03536763797948 44.059422505164655 0.0
    vertex -77.61679169104336 43.18564130651502 0.0
  endloop
endfacet
facet normal 7.591859860542146e-17 -3.090893754464193e-18 -1.0
  outer loop
    vertex -75.33730377648637 -32.346647078443226 0.0
    vertex -77.61679169104336 43.18564130651502 0.0
    vertex -74.60227996728085 36.02470058001442 0.0
  endloop
endfacet
facet normal 7.591859860542146e-17 -3.090893754464193e-18 -1.0
  outer loop
    vertex -75.33730377648637 -32.346647078443226 0.0
    vertex -74.60227996728085 36.02470058001442 0.0
    vertex -72.76010468965634 -25.016954186650334 0.0
  endloop
endfacet
facet normal 7.591859860542146e-17 -3.090893754464193e-18 -1.0
  outer loop
    vertex -72.76010468965634 -25.016954186650334 0.0
    vertex -74.60227996728085 36.02470058001442 0.0
    vertex -72.65151714939758 -0.38144999041033106 0.0
  endloop
endfacet
facet normal 7.591859860542146e-17 -3.090893754464193e-18 -1.0
  outer loop
    vertex -72.65151714939758 -0.38144999041033106 0.0
    vertex -74.60227996728085 36.02470058001442 0.0
    vertex -72.18325352680883 28.64129593842433 0.0
  endloop
endfacet
facet normal 7.591859860542146e-17 -3.090893754464193e-18 -1.0
  outer loop
    vertex -72.65151714939758 -0.38144999041033106 0.0
    vertex -72.18325352680883 28.64129593842433 0.0
    vertex -72.52471658790719 0.09228219619376271 0.0
  endloop
endfacet
facet normal 7.591859860542146e-17 -3.090893754464193e-18 -1.0
  outer loop
    vertex -72.52471658790719 0.09228219619376271 0.0
    vertex -72.18325352680883 28.64129593842433 0.0
    vertex -72.27962573860451 0.5170539497356295 0.0
  endloop
endfacet
facet normal 7.591859860542146e-17 -3.090893754464193e-18 -1.0
  outer loop
    vertex -72.27962573860451 0.5170539497356295 0.0
    vertex -72.18325352680883 28.64129593842433 0.0
    vertex -71.93294713783766 0.8639177771799256 0.0
  endloop
endfacet
facet normal 7.591859860542146e-17 -3.090893754464193e-18 -1.0
  outer loop
    vertex -71.93294713783766 0.8639177771799256 0.0
    vertex -72.18325352680883 28.64129593842433 0.0
    vertex -70.37590535461993 21.084851959564762 0.0
  endloop
endfacet
facet normal 7.591859860542146e-17 -3.090893754464193e-18 -1.0
  outer loop
    vertex -71.93294713783766 0.8639177771799256 0.0
    vertex -70.37590535461993 21.084851959564762 0.0
    vertex -71.50830635933549 1.109235481905896 0.0
  endloop
endfacet
facet normal 7.591859860542146e-17 -3.090893754464193e-18 -1.0
  outer loop
    vertex -71.50830635933549 1.109235481905896 0.0
    vertex -70.37590535461993 21.084851959564762 0.0
    vertex -71.03464197040081 1.2362890677431182 0.0
  endloop
endfacet
facet normal 7.591859860542146e-17 -3.090893754464193e-18 -1.0
  outer loop
    vertex -71.03464197040081 1.2362890677431182 0.0
    vertex -70.37590535461993 21.084851959564762 0.0
    vertex -68.65756714110317 4.064878098104434 0.0
  endloop
endfacet
facet normal 7.591859860542146e-17 -3.090893754464193e-18 -1.0
  outer loop
    vertex -68.65756714110317 4.064878098104434 0.0
    vertex -70.37590535461993 21.084851959564762 0.0
    vertex -69.19233385581593 13.405951548153277 0.0
  endloop
endfacet
facet normal 7.591859860542146e-17 -3.090893754464193e-18 -1.0
  outer loop
    vertex -68.65756714110317 4.064878098104434 0.0
    vertex -69.19233385581593 13.405951548153277 0.0
    vertex -68.64046186877398 5.655997333380418 0.0
  endloop
endfacet
facet normal 7.591859860542146e-17 -3.090893754464193e-18 -1.0
  outer loop
    vertex -72.76010468965634 -25.016954186650334 0.0
    vertex -72.6513861743579 -0.871858544438994 0.0
    vertex -70.79072242417915 -17.50111181778832 0.0
  endloop
endfacet
facet normal 7.591859860542146e-17 -3.090893754464193e-18 -1.0
  outer loop
    vertex -72.6513861743579 -0.871858544438994 0.0
    vertex -72.76010468965634 -25.016954186650334 0.0
    vertex -72.65151714939758 -0.38144999041033106 0.0
  endloop
endfacet
facet normal 7.591859860542146e-17 -3.090893754464193e-18 -1.0
  outer loop
    vertex -70.79072242417915 -17.50111181778832 0.0
    vertex -72.6513861743579 -0.871858544438994 0.0
    vertex -72.52433258852065 -1.3455229333736536 0.0
  endloop
endfacet
facet normal 7.591859860542146e-17 -3.090893754464193e-18 -1.0
  outer loop
    vertex -70.79072242417915 -17.50111181778832 0.0
    vertex -72.52433258852065 -1.3455229333736536 0.0
    vertex -72.27901488379469 -1.7701637118758367 0.0
  endloop
endfacet
facet normal 7.591859860542146e-17 -3.090893754464193e-18 -1.0
  outer loop
    vertex -70.79072242417915 -17.50111181778832 0.0
    vertex -72.27901488379469 -1.7701637118758367 0.0
    vertex -71.93215105635039 -2.1168423126426856 0.0
  endloop
endfacet
facet normal 7.591859860542146e-17 -3.090893754464193e-18 -1.0
  outer loop
    vertex -70.79072242417915 -17.50111181778832 0.0
    vertex -71.93215105635039 -2.1168423126426856 0.0
    vertex -71.50737930280854 -2.361933161945378 0.0
  endloop
endfacet
facet normal 7.591859860542146e-17 -3.090893754464193e-18 -1.0
  outer loop
    vertex -70.79072242417915 -17.50111181778832 0.0
    vertex -71.50737930280854 -2.361933161945378 0.0
    vertex -71.03364711620445 -2.488733723435764 0.0
  endloop
endfacet
facet normal 7.591859860542146e-17 -3.090893754464193e-18 -1.0
  outer loop
    vertex -70.79072242417915 -17.50111181778832 0.0
    vertex -71.03364711620445 -2.488733723435764 0.0
    vertex -68.98292907165136 -4.901830679132671 0.0
  endloop
endfacet
facet normal 7.591859860542146e-17 -3.090893754464193e-18 -1.0
  outer loop
    vertex -70.79072242417915 -17.50111181778832 0.0
    vertex -68.98292907165136 -4.901830679132671 0.0
    vertex -69.44234004285059 -9.849431089028162 0.0
  endloop
endfacet
endsolid miata-side-mirror
