solid switchPanel
facet normal -8.038231675836872e-17 2.5854944865536793e-16 1.0
  outer loop
    vertex 37.3078627544434 70.7937444913473 2.9999999999999623
    vertex 37.136496689006954 122.38957079098637 2.9999999999999636
    vertex 37.136496689006954 71.38956879098635 2.9999999999999623
  endloop
endfacet
facet normal -8.038231675836872e-17 2.5854944865536793e-16 1.0
  outer loop
    vertex 37.136496689006954 122.38957079098637 2.9999999999999636
    vertex 37.3078627544434 70.7937444913473 2.9999999999999623
    vertex 37.3078627544434 122.98539509062542 2.9999999999999636
  endloop
endfacet
facet normal -8.038231675836872e-17 2.5854944865536793e-16 1.0
  outer loop
    vertex 37.3078627544434 122.98539509062542 2.9999999999999636
    vertex 37.3078627544434 70.7937444913473 2.9999999999999623
    vertex 37.53317388145868 70.21615655824392 2.9999999999999623
  endloop
endfacet
facet normal -8.038231675836872e-17 2.5854944865536793e-16 1.0
  outer loop
    vertex 37.3078627544434 122.98539509062542 2.9999999999999636
    vertex 37.53317388145868 70.21615655824392 2.9999999999999623
    vertex 37.53317388145867 123.5629830237288 2.9999999999999636
  endloop
endfacet
facet normal -8.038231675836872e-17 2.5854944865536793e-16 1.0
  outer loop
    vertex 37.53317388145867 123.5629830237288 2.9999999999999636
    vertex 37.53317388145868 70.21615655824392 2.9999999999999623
    vertex 37.810529307434486 124.11746196120554 2.9999999999999636
  endloop
endfacet
facet normal -8.038231675836872e-17 2.5854944865536793e-16 1.0
  outer loop
    vertex 37.810529307434486 124.11746196120554 2.9999999999999636
    vertex 37.53317388145868 70.21615655824392 2.9999999999999623
    vertex 37.810529307434486 69.6616776207672 2.9999999999999627
  endloop
endfacet
facet normal -8.038231675836872e-17 2.5854944865536793e-16 1.0
  outer loop
    vertex 37.810529307434486 124.11746196120554 2.9999999999999636
    vertex 37.810529307434486 69.6616776207672 2.9999999999999627
    vertex 38.1375892152803 69.13498535662862 2.9999999999999627
  endloop
endfacet
facet normal -8.038231675836872e-17 2.5854944865536793e-16 1.0
  outer loop
    vertex 37.810529307434486 124.11746196120554 2.9999999999999636
    vertex 38.1375892152803 69.13498535662862 2.9999999999999627
    vertex 38.1375892152803 124.64415422534408 2.9999999999999636
  endloop
endfacet
facet normal -8.038231675836872e-17 2.5854944865536793e-16 1.0
  outer loop
    vertex 38.1375892152803 124.64415422534408 2.9999999999999636
    vertex 38.1375892152803 69.13498535662862 2.9999999999999627
    vertex 38.51159447252446 68.64052303048307 2.9999999999999627
  endloop
endfacet
facet normal -8.038231675836872e-17 2.5854944865536793e-16 1.0
  outer loop
    vertex 38.1375892152803 124.64415422534408 2.9999999999999636
    vertex 38.51159447252446 68.64052303048307 2.9999999999999627
    vertex 38.51159447252446 125.13861655148963 2.9999999999999627
  endloop
endfacet
facet normal -8.038231675836872e-17 2.5854944865536793e-16 1.0
  outer loop
    vertex 38.51159447252446 125.13861655148963 2.9999999999999627
    vertex 38.51159447252446 68.64052303048307 2.9999999999999627
    vertex 38.92938990782041 68.1824620097998 2.9999999999999627
  endloop
endfacet
facet normal -8.038231675836872e-17 2.5854944865536793e-16 1.0
  outer loop
    vertex 38.51159447252446 125.13861655148963 2.9999999999999627
    vertex 38.92938990782041 68.1824620097998 2.9999999999999627
    vertex 38.92938990782041 125.59667757217291 2.9999999999999627
  endloop
endfacet
facet normal -8.038231675836872e-17 2.5854944865536793e-16 1.0
  outer loop
    vertex 38.92938990782041 125.59667757217291 2.9999999999999627
    vertex 38.92938990782041 68.1824620097998 2.9999999999999627
    vertex 39.38745092850368 67.76466657450385 2.9999999999999627
  endloop
endfacet
facet normal -8.038231675836872e-17 2.5854944865536793e-16 1.0
  outer loop
    vertex 38.92938990782041 125.59667757217291 2.9999999999999627
    vertex 39.38745092850368 67.76466657450385 2.9999999999999627
    vertex 39.38745092850368 126.01447300746887 2.9999999999999627
  endloop
endfacet
facet normal -8.038231675836872e-17 2.5854944865536793e-16 1.0
  outer loop
    vertex 39.38745092850368 126.01447300746887 2.9999999999999627
    vertex 39.38745092850368 67.76466657450385 2.9999999999999627
    vertex 39.88191325464923 67.3906613172597 2.9999999999999627
  endloop
endfacet
facet normal -8.038231675836872e-17 2.5854944865536793e-16 1.0
  outer loop
    vertex 39.38745092850368 126.01447300746887 2.9999999999999627
    vertex 39.88191325464923 67.3906613172597 2.9999999999999627
    vertex 39.88191325464923 126.38847826471302 2.9999999999999627
  endloop
endfacet
facet normal -8.038231675836872e-17 2.5854944865536793e-16 1.0
  outer loop
    vertex 39.88191325464923 126.38847826471302 2.9999999999999627
    vertex 39.88191325464923 67.3906613172597 2.9999999999999627
    vertex 40.4086055187878 67.06360140941388 2.9999999999999627
  endloop
endfacet
facet normal -8.038231675836872e-17 2.5854944865536793e-16 1.0
  outer loop
    vertex 39.88191325464923 126.38847826471302 2.9999999999999627
    vertex 40.4086055187878 67.06360140941388 2.9999999999999627
    vertex 40.4086055187878 126.71553817255884 2.9999999999999627
  endloop
endfacet
facet normal -8.038231675836872e-17 2.5854944865536793e-16 1.0
  outer loop
    vertex 40.4086055187878 126.71553817255884 2.9999999999999627
    vertex 40.4086055187878 67.06360140941388 2.9999999999999627
    vertex 40.963084456264525 66.78624598343806 2.9999999999999627
  endloop
endfacet
facet normal -8.038231675836872e-17 2.5854944865536793e-16 1.0
  outer loop
    vertex 40.4086055187878 126.71553817255884 2.9999999999999627
    vertex 40.963084456264525 66.78624598343806 2.9999999999999627
    vertex 40.963084456264525 126.99289359853464 2.9999999999999623
  endloop
endfacet
facet normal -8.038231675836872e-17 2.5854944865536793e-16 1.0
  outer loop
    vertex 40.963084456264525 126.99289359853464 2.9999999999999623
    vertex 40.963084456264525 66.78624598343806 2.9999999999999627
    vertex 41.540672389367906 66.56093485642279 2.9999999999999627
  endloop
endfacet
facet normal -8.038231675836872e-17 2.5854944865536793e-16 1.0
  outer loop
    vertex 40.963084456264525 126.99289359853464 2.9999999999999623
    vertex 41.540672389367906 66.56093485642279 2.9999999999999627
    vertex 41.540672389367906 127.21820472554991 2.9999999999999623
  endloop
endfacet
facet normal -8.038231675836872e-17 2.5854944865536793e-16 1.0
  outer loop
    vertex 41.540672389367906 127.21820472554991 2.9999999999999623
    vertex 41.540672389367906 66.56093485642279 2.9999999999999627
    vertex 42.13649668900696 66.38956879098635 2.9999999999999627
  endloop
endfacet
facet normal -8.038231675836872e-17 2.5854944865536793e-16 1.0
  outer loop
    vertex 41.540672389367906 127.21820472554991 2.9999999999999623
    vertex 42.13649668900696 66.38956879098635 2.9999999999999627
    vertex 42.13649668900696 127.38957079098635 2.9999999999999623
  endloop
endfacet
facet normal -8.038231675836872e-17 2.5854944865536793e-16 1.0
  outer loop
    vertex 42.13649668900696 127.38957079098635 2.9999999999999623
    vertex 42.13649668900696 66.38956879098635 2.9999999999999627
    vertex 45.136496689006954 76.38956879098635 2.9999999999999623
  endloop
endfacet
facet normal -8.038231675836872e-17 2.5854944865536793e-16 1.0
  outer loop
    vertex 45.136496689006954 76.38956879098635 2.9999999999999623
    vertex 42.13649668900696 66.38956879098635 2.9999999999999627
    vertex 220.04793424758364 66.38956879098635 2.9999999999999925
  endloop
endfacet
facet normal -8.038231675836872e-17 2.5854944865536793e-16 1.0
  outer loop
    vertex 45.136496689006954 76.38956879098635 2.9999999999999623
    vertex 220.04793424758364 66.38956879098635 2.9999999999999925
    vertex 69.13649668900695 76.38956879098635 2.9999999999999623
  endloop
endfacet
facet normal -8.038231675836872e-17 2.5854944865536793e-16 1.0
  outer loop
    vertex 69.13649668900695 76.38956879098635 2.9999999999999623
    vertex 220.04793424758364 66.38956879098635 2.9999999999999925
    vertex 77.12351768900695 76.38956879098633 2.9999999999999623
  endloop
endfacet
facet normal -8.038231675836872e-17 2.5854944865536793e-16 1.0
  outer loop
    vertex 69.13649668900695 76.38956879098635 2.9999999999999623
    vertex 77.12351768900695 76.38956879098633 2.9999999999999623
    vertex 69.13649668900695 117.38957079098635 2.9999999999999623
  endloop
endfacet
facet normal -8.038231675836872e-17 2.5854944865536793e-16 1.0
  outer loop
    vertex 77.12351768900695 76.38956879098633 2.9999999999999623
    vertex 220.04793424758364 66.38956879098635 2.9999999999999925
    vertex 101.12351768900696 76.38956879098633 2.9999999999999623
  endloop
endfacet
facet normal -8.038231675836872e-17 2.5854944865536793e-16 1.0
  outer loop
    vertex 101.12351768900696 76.38956879098633 2.9999999999999623
    vertex 220.04793424758364 66.38956879098635 2.9999999999999925
    vertex 109.12572375125139 76.479997749624 3.0
  endloop
endfacet
facet normal -8.038231675836872e-17 2.5854944865536793e-16 1.0
  outer loop
    vertex 101.12351768900696 76.38956879098633 2.9999999999999623
    vertex 109.12572375125139 76.479997749624 3.0
    vertex 101.12351768900696 117.38957079098638 2.9999999999999623
  endloop
endfacet
facet normal -8.038231675836872e-17 2.5854944865536793e-16 1.0
  outer loop
    vertex 109.12572375125139 76.479997749624 3.0
    vertex 220.04793424758364 66.38956879098635 2.9999999999999925
    vertex 133.12572375125137 76.479997749624 3.0
  endloop
endfacet
facet normal -8.038231675836872e-17 2.5854944865536793e-16 1.0
  outer loop
    vertex 133.12572375125137 76.479997749624 3.0
    vertex 220.04793424758364 66.38956879098635 2.9999999999999925
    vertex 141.1877412026314 76.39772632836555 3.0
  endloop
endfacet
facet normal -8.038231675836872e-17 2.5854944865536793e-16 1.0
  outer loop
    vertex 133.12572375125137 76.479997749624 3.0
    vertex 141.1877412026314 76.39772632836555 3.0
    vertex 133.12572375125137 117.47999974962401 3.0
  endloop
endfacet
facet normal -8.038231675836872e-17 2.5854944865536793e-16 1.0
  outer loop
    vertex 141.1877412026314 76.39772632836555 3.0
    vertex 220.04793424758364 66.38956879098635 2.9999999999999925
    vertex 165.18774120263137 76.39772632836555 3.0
  endloop
endfacet
facet normal -8.038231675836872e-17 2.5854944865536793e-16 1.0
  outer loop
    vertex 165.18774120263137 76.39772632836555 3.0
    vertex 220.04793424758364 66.38956879098635 2.9999999999999925
    vertex 173.0069883197629 76.32396284543918 3.0
  endloop
endfacet
facet normal -8.038231675836872e-17 2.5854944865536793e-16 1.0
  outer loop
    vertex 165.18774120263137 76.39772632836555 3.0
    vertex 173.0069883197629 76.32396284543918 3.0
    vertex 165.18774120263137 117.39772832836557 3.0
  endloop
endfacet
facet normal -8.038231675836872e-17 2.5854944865536793e-16 1.0
  outer loop
    vertex 173.0069883197629 76.32396284543918 3.0
    vertex 220.04793424758364 66.38956879098635 2.9999999999999925
    vertex 197.00698831976288 76.32396284543918 3.0
  endloop
endfacet
facet normal -8.038231675836872e-17 2.5854944865536793e-16 1.0
  outer loop
    vertex 197.00698831976288 76.32396284543918 3.0
    vertex 220.04793424758364 66.38956879098635 2.9999999999999925
    vertex 204.85793424758364 76.33234075001016 3.0000000000000226
  endloop
endfacet
facet normal -8.038231675836872e-17 2.5854944865536793e-16 1.0
  outer loop
    vertex 197.00698831976288 76.32396284543918 3.0
    vertex 204.85793424758364 76.33234075001016 3.0000000000000226
    vertex 197.00698831976288 117.32396484543919 3.0
  endloop
endfacet
facet normal -8.038231675836872e-17 2.5854944865536793e-16 1.0
  outer loop
    vertex 204.85793424758364 76.33234075001016 3.0000000000000226
    vertex 220.04793424758364 66.38956879098635 2.9999999999999925
    vertex 217.04793424758364 76.33234075001016 3.0000000000000226
  endloop
endfacet
facet normal -8.038231675836872e-17 2.5854944865536793e-16 1.0
  outer loop
    vertex 217.04793424758364 76.33234075001016 3.0000000000000226
    vertex 220.04793424758364 66.38956879098635 2.9999999999999925
    vertex 217.04793424758364 87.53234075001016 3.0000000000000226
  endloop
endfacet
facet normal -8.038231675836872e-17 2.5854944865536793e-16 1.0
  outer loop
    vertex 42.13649668900696 127.38957079098635 2.9999999999999623
    vertex 45.136496689006954 117.38957079098635 2.9999999999999623
    vertex 220.04793424758364 127.38957079098635 2.9999999999999623
  endloop
endfacet
facet normal -8.038231675836872e-17 2.5854944865536793e-16 1.0
  outer loop
    vertex 45.136496689006954 117.38957079098635 2.9999999999999623
    vertex 42.13649668900696 127.38957079098635 2.9999999999999623
    vertex 45.136496689006954 76.38956879098635 2.9999999999999623
  endloop
endfacet
facet normal -8.038231675836872e-17 2.5854944865536793e-16 1.0
  outer loop
    vertex 220.04793424758364 127.38957079098635 2.9999999999999623
    vertex 45.136496689006954 117.38957079098635 2.9999999999999623
    vertex 69.13649668900695 117.38957079098635 2.9999999999999623
  endloop
endfacet
facet normal -8.038231675836872e-17 2.5854944865536793e-16 1.0
  outer loop
    vertex 220.04793424758364 127.38957079098635 2.9999999999999623
    vertex 69.13649668900695 117.38957079098635 2.9999999999999623
    vertex 77.12351768900695 117.38957079098638 2.9999999999999623
  endloop
endfacet
facet normal -8.038231675836872e-17 2.5854944865536793e-16 1.0
  outer loop
    vertex 77.12351768900695 117.38957079098638 2.9999999999999623
    vertex 69.13649668900695 117.38957079098635 2.9999999999999623
    vertex 77.12351768900695 76.38956879098633 2.9999999999999623
  endloop
endfacet
facet normal -8.038231675836872e-17 2.5854944865536793e-16 1.0
  outer loop
    vertex 220.04793424758364 127.38957079098635 2.9999999999999623
    vertex 77.12351768900695 117.38957079098638 2.9999999999999623
    vertex 101.12351768900696 117.38957079098638 2.9999999999999623
  endloop
endfacet
facet normal -8.038231675836872e-17 2.5854944865536793e-16 1.0
  outer loop
    vertex 220.04793424758364 127.38957079098635 2.9999999999999623
    vertex 101.12351768900696 117.38957079098638 2.9999999999999623
    vertex 109.12572375125139 117.47999974962401 3.0
  endloop
endfacet
facet normal -8.038231675836872e-17 2.5854944865536793e-16 1.0
  outer loop
    vertex 109.12572375125139 117.47999974962401 3.0
    vertex 101.12351768900696 117.38957079098638 2.9999999999999623
    vertex 109.12572375125139 76.479997749624 3.0
  endloop
endfacet
facet normal -8.038231675836872e-17 2.5854944865536793e-16 1.0
  outer loop
    vertex 220.04793424758364 127.38957079098635 2.9999999999999623
    vertex 109.12572375125139 117.47999974962401 3.0
    vertex 133.12572375125137 117.47999974962401 3.0
  endloop
endfacet
facet normal -8.038231675836872e-17 2.5854944865536793e-16 1.0
  outer loop
    vertex 220.04793424758364 127.38957079098635 2.9999999999999623
    vertex 133.12572375125137 117.47999974962401 3.0
    vertex 141.1877412026314 117.39772832836557 3.0
  endloop
endfacet
facet normal -8.038231675836872e-17 2.5854944865536793e-16 1.0
  outer loop
    vertex 141.1877412026314 117.39772832836557 3.0
    vertex 133.12572375125137 117.47999974962401 3.0
    vertex 141.1877412026314 76.39772632836555 3.0
  endloop
endfacet
facet normal -8.038231675836872e-17 2.5854944865536793e-16 1.0
  outer loop
    vertex 220.04793424758364 127.38957079098635 2.9999999999999623
    vertex 141.1877412026314 117.39772832836557 3.0
    vertex 165.18774120263137 117.39772832836557 3.0
  endloop
endfacet
facet normal -8.038231675836872e-17 2.5854944865536793e-16 1.0
  outer loop
    vertex 220.04793424758364 127.38957079098635 2.9999999999999623
    vertex 165.18774120263137 117.39772832836557 3.0
    vertex 173.0069883197629 117.32396484543919 3.0
  endloop
endfacet
facet normal -8.038231675836872e-17 2.5854944865536793e-16 1.0
  outer loop
    vertex 173.0069883197629 117.32396484543919 3.0
    vertex 165.18774120263137 117.39772832836557 3.0
    vertex 173.0069883197629 76.32396284543918 3.0
  endloop
endfacet
facet normal -8.038231675836872e-17 2.5854944865536793e-16 1.0
  outer loop
    vertex 220.04793424758364 127.38957079098635 2.9999999999999623
    vertex 173.0069883197629 117.32396484543919 3.0
    vertex 197.00698831976288 117.32396484543919 3.0
  endloop
endfacet
facet normal -8.038231675836872e-17 2.5854944865536793e-16 1.0
  outer loop
    vertex 220.04793424758364 127.38957079098635 2.9999999999999623
    vertex 197.00698831976288 117.32396484543919 3.0
    vertex 204.85793424758364 87.53234075001016 3.0000000000000226
  endloop
endfacet
facet normal -8.038231675836872e-17 2.5854944865536793e-16 1.0
  outer loop
    vertex 204.85793424758364 87.53234075001016 3.0000000000000226
    vertex 197.00698831976288 117.32396484543919 3.0
    vertex 204.85793424758364 76.33234075001016 3.0000000000000226
  endloop
endfacet
facet normal -8.038231675836872e-17 2.5854944865536793e-16 1.0
  outer loop
    vertex 220.04793424758364 127.38957079098635 2.9999999999999623
    vertex 204.85793424758364 87.53234075001016 3.0000000000000226
    vertex 217.04793424758364 87.53234075001016 3.0000000000000226
  endloop
endfacet
facet normal -8.038231675836872e-17 2.5854944865536793e-16 1.0
  outer loop
    vertex 220.04793424758364 127.38957079098635 2.9999999999999623
    vertex 217.04793424758364 87.53234075001016 3.0000000000000226
    vertex 220.04793424758364 66.38956879098635 2.9999999999999925
  endloop
endfacet
facet normal -8.038231675836872e-17 2.5854944865536793e-16 1.0
  outer loop
    vertex 220.04793424758364 127.38957079098635 2.9999999999999623
    vertex 220.04793424758364 66.38956879098635 2.9999999999999925
    vertex 220.6437585472227 66.56093485642279 2.9999999999999925
  endloop
endfacet
facet normal -8.038231675836872e-17 2.5854944865536793e-16 1.0
  outer loop
    vertex 220.04793424758364 127.38957079098635 2.9999999999999623
    vertex 220.6437585472227 66.56093485642279 2.9999999999999925
    vertex 220.6437585472227 127.21820472554991 2.9999999999999623
  endloop
endfacet
facet normal -8.038231675836872e-17 2.5854944865536793e-16 1.0
  outer loop
    vertex 220.6437585472227 127.21820472554991 2.9999999999999623
    vertex 220.6437585472227 66.56093485642279 2.9999999999999925
    vertex 221.22134648032608 66.78624598343806 2.9999999999999925
  endloop
endfacet
facet normal -8.038231675836872e-17 2.5854944865536793e-16 1.0
  outer loop
    vertex 220.6437585472227 127.21820472554991 2.9999999999999623
    vertex 221.22134648032608 66.78624598343806 2.9999999999999925
    vertex 221.22134648032608 126.99289359853465 2.9999999999999627
  endloop
endfacet
facet normal -8.038231675836872e-17 2.5854944865536793e-16 1.0
  outer loop
    vertex 221.22134648032608 126.99289359853465 2.9999999999999627
    vertex 221.22134648032608 66.78624598343806 2.9999999999999925
    vertex 221.7758254178028 67.06360140941388 2.9999999999999925
  endloop
endfacet
facet normal -8.038231675836872e-17 2.5854944865536793e-16 1.0
  outer loop
    vertex 221.22134648032608 126.99289359853465 2.9999999999999627
    vertex 221.7758254178028 67.06360140941388 2.9999999999999925
    vertex 221.7758254178028 126.71553817255884 2.9999999999999627
  endloop
endfacet
facet normal -8.038231675836872e-17 2.5854944865536793e-16 1.0
  outer loop
    vertex 221.7758254178028 126.71553817255884 2.9999999999999627
    vertex 221.7758254178028 67.06360140941388 2.9999999999999925
    vertex 222.30251768194137 67.39066131725968 2.9999999999999925
  endloop
endfacet
facet normal -8.038231675836872e-17 2.5854944865536793e-16 1.0
  outer loop
    vertex 221.7758254178028 126.71553817255884 2.9999999999999627
    vertex 222.30251768194137 67.39066131725968 2.9999999999999925
    vertex 222.30251768194137 126.38847826471302 2.9999999999999627
  endloop
endfacet
facet normal -8.038231675836872e-17 2.5854944865536793e-16 1.0
  outer loop
    vertex 222.30251768194137 126.38847826471302 2.9999999999999627
    vertex 222.30251768194137 67.39066131725968 2.9999999999999925
    vertex 222.79698000808693 67.76466657450383 2.9999999999999925
  endloop
endfacet
facet normal -8.038231675836872e-17 2.5854944865536793e-16 1.0
  outer loop
    vertex 222.30251768194137 126.38847826471302 2.9999999999999627
    vertex 222.79698000808693 67.76466657450383 2.9999999999999925
    vertex 222.79698000808693 126.01447300746888 2.9999999999999627
  endloop
endfacet
facet normal -8.038231675836872e-17 2.5854944865536793e-16 1.0
  outer loop
    vertex 222.79698000808693 126.01447300746888 2.9999999999999627
    vertex 222.79698000808693 67.76466657450383 2.9999999999999925
    vertex 223.2550410287702 68.18246200979979 2.9999999999999925
  endloop
endfacet
facet normal -8.038231675836872e-17 2.5854944865536793e-16 1.0
  outer loop
    vertex 222.79698000808693 126.01447300746888 2.9999999999999627
    vertex 223.2550410287702 68.18246200979979 2.9999999999999925
    vertex 223.2550410287702 125.59667757217291 2.9999999999999627
  endloop
endfacet
facet normal -8.038231675836872e-17 2.5854944865536793e-16 1.0
  outer loop
    vertex 223.2550410287702 125.59667757217291 2.9999999999999627
    vertex 223.2550410287702 68.18246200979979 2.9999999999999925
    vertex 223.67283646406617 68.64052303048307 2.9999999999999925
  endloop
endfacet
facet normal -8.038231675836872e-17 2.5854944865536793e-16 1.0
  outer loop
    vertex 223.2550410287702 125.59667757217291 2.9999999999999627
    vertex 223.67283646406617 68.64052303048307 2.9999999999999925
    vertex 223.67283646406617 125.13861655148966 2.9999999999999627
  endloop
endfacet
facet normal -8.038231675836872e-17 2.5854944865536793e-16 1.0
  outer loop
    vertex 223.67283646406617 125.13861655148966 2.9999999999999627
    vertex 223.67283646406617 68.64052303048307 2.9999999999999925
    vertex 224.0468417213103 69.1349853566286 2.9999999999999925
  endloop
endfacet
facet normal -8.038231675836872e-17 2.5854944865536793e-16 1.0
  outer loop
    vertex 223.67283646406617 125.13861655148966 2.9999999999999627
    vertex 224.0468417213103 69.1349853566286 2.9999999999999925
    vertex 224.0468417213103 124.64415422534411 2.9999999999999627
  endloop
endfacet
facet normal -8.038231675836872e-17 2.5854944865536793e-16 1.0
  outer loop
    vertex 224.0468417213103 124.64415422534411 2.9999999999999627
    vertex 224.0468417213103 69.1349853566286 2.9999999999999925
    vertex 224.3739016291561 69.6616776207672 2.9999999999999925
  endloop
endfacet
facet normal -8.038231675836872e-17 2.5854944865536793e-16 1.0
  outer loop
    vertex 224.0468417213103 124.64415422534411 2.9999999999999627
    vertex 224.3739016291561 69.6616776207672 2.9999999999999925
    vertex 224.3739016291561 124.11746196120554 2.9999999999999627
  endloop
endfacet
facet normal -8.038231675836872e-17 2.5854944865536793e-16 1.0
  outer loop
    vertex 224.3739016291561 124.11746196120554 2.9999999999999627
    vertex 224.3739016291561 69.6616776207672 2.9999999999999925
    vertex 224.65125705513194 70.21615655824391 2.9999999999999925
  endloop
endfacet
facet normal -8.038231675836872e-17 2.5854944865536793e-16 1.0
  outer loop
    vertex 224.3739016291561 124.11746196120554 2.9999999999999627
    vertex 224.65125705513194 70.21615655824391 2.9999999999999925
    vertex 224.6512570551319 123.5629830237288 2.9999999999999627
  endloop
endfacet
facet normal -8.038231675836872e-17 2.5854944865536793e-16 1.0
  outer loop
    vertex 224.6512570551319 123.5629830237288 2.9999999999999627
    vertex 224.65125705513194 70.21615655824391 2.9999999999999925
    vertex 224.8765681821472 122.98539509062543 2.9999999999999627
  endloop
endfacet
facet normal -8.038231675836872e-17 2.5854944865536793e-16 1.0
  outer loop
    vertex 224.8765681821472 122.98539509062543 2.9999999999999627
    vertex 224.65125705513194 70.21615655824391 2.9999999999999925
    vertex 224.8765681821472 70.7937444913473 2.9999999999999925
  endloop
endfacet
facet normal -8.038231675836872e-17 2.5854944865536793e-16 1.0
  outer loop
    vertex 224.8765681821472 122.98539509062543 2.9999999999999627
    vertex 224.8765681821472 70.7937444913473 2.9999999999999925
    vertex 225.04793424758364 71.38956879098635 2.9999999999999925
  endloop
endfacet
facet normal -8.038231675836872e-17 2.5854944865536793e-16 1.0
  outer loop
    vertex 224.8765681821472 122.98539509062543 2.9999999999999627
    vertex 225.04793424758364 71.38956879098635 2.9999999999999925
    vertex 225.04793424758364 122.38957079098637 2.9999999999999627
  endloop
endfacet
facet normal 8.038231675836872e-17 -2.5854944865536793e-16 -1.0
  outer loop
    vertex 37.3078627544434 122.98539509062542 -3.665956427312267e-14
    vertex 37.136496689006954 71.38956879098635 -3.8069547514396615e-14
    vertex 37.136496689006954 122.38957079098637 -3.665956427312267e-14
  endloop
endfacet
facet normal 8.038231675836872e-17 -2.5854944865536793e-16 -1.0
  outer loop
    vertex 37.136496689006954 71.38956879098635 -3.8069547514396615e-14
    vertex 37.3078627544434 122.98539509062542 -3.665956427312267e-14
    vertex 37.3078627544434 70.7937444913473 -3.8069547514396615e-14
  endloop
endfacet
facet normal 8.038231675836872e-17 -2.5854944865536793e-16 -1.0
  outer loop
    vertex 37.3078627544434 70.7937444913473 -3.8069547514396615e-14
    vertex 37.3078627544434 122.98539509062542 -3.665956427312267e-14
    vertex 37.53317388145867 123.5629830237288 -3.665956427312267e-14
  endloop
endfacet
facet normal 8.038231675836872e-17 -2.5854944865536793e-16 -1.0
  outer loop
    vertex 37.3078627544434 70.7937444913473 -3.8069547514396615e-14
    vertex 37.53317388145867 123.5629830237288 -3.665956427312267e-14
    vertex 37.53317388145868 70.21615655824392 -3.8069547514396615e-14
  endloop
endfacet
facet normal 8.038231675836872e-17 -2.5854944865536793e-16 -1.0
  outer loop
    vertex 37.53317388145868 70.21615655824392 -3.8069547514396615e-14
    vertex 37.53317388145867 123.5629830237288 -3.665956427312267e-14
    vertex 37.810529307434486 124.11746196120554 -3.665956427312267e-14
  endloop
endfacet
facet normal 8.038231675836872e-17 -2.5854944865536793e-16 -1.0
  outer loop
    vertex 37.53317388145868 70.21615655824392 -3.8069547514396615e-14
    vertex 37.810529307434486 124.11746196120554 -3.665956427312267e-14
    vertex 37.810529307434486 69.6616776207672 -3.736455589375964e-14
  endloop
endfacet
facet normal 8.038231675836872e-17 -2.5854944865536793e-16 -1.0
  outer loop
    vertex 37.810529307434486 69.6616776207672 -3.736455589375964e-14
    vertex 37.810529307434486 124.11746196120554 -3.665956427312267e-14
    vertex 38.1375892152803 124.64415422534408 -3.665956427312267e-14
  endloop
endfacet
facet normal 8.038231675836872e-17 -2.5854944865536793e-16 -1.0
  outer loop
    vertex 37.810529307434486 69.6616776207672 -3.736455589375964e-14
    vertex 38.1375892152803 124.64415422534408 -3.665956427312267e-14
    vertex 38.1375892152803 69.13498535662862 -3.736455589375964e-14
  endloop
endfacet
facet normal 8.038231675836872e-17 -2.5854944865536793e-16 -1.0
  outer loop
    vertex 38.1375892152803 69.13498535662862 -3.736455589375964e-14
    vertex 38.1375892152803 124.64415422534408 -3.665956427312267e-14
    vertex 38.51159447252446 125.13861655148963 -3.736455589375964e-14
  endloop
endfacet
facet normal 8.038231675836872e-17 -2.5854944865536793e-16 -1.0
  outer loop
    vertex 38.1375892152803 69.13498535662862 -3.736455589375964e-14
    vertex 38.51159447252446 125.13861655148963 -3.736455589375964e-14
    vertex 38.51159447252446 68.64052303048307 -3.736455589375964e-14
  endloop
endfacet
facet normal 8.038231675836872e-17 -2.5854944865536793e-16 -1.0
  outer loop
    vertex 38.51159447252446 68.64052303048307 -3.736455589375964e-14
    vertex 38.51159447252446 125.13861655148963 -3.736455589375964e-14
    vertex 38.92938990782041 125.59667757217291 -3.736455589375964e-14
  endloop
endfacet
facet normal 8.038231675836872e-17 -2.5854944865536793e-16 -1.0
  outer loop
    vertex 38.51159447252446 68.64052303048307 -3.736455589375964e-14
    vertex 38.92938990782041 125.59667757217291 -3.736455589375964e-14
    vertex 38.92938990782041 68.1824620097998 -3.736455589375964e-14
  endloop
endfacet
facet normal 8.038231675836872e-17 -2.5854944865536793e-16 -1.0
  outer loop
    vertex 38.92938990782041 68.1824620097998 -3.736455589375964e-14
    vertex 38.92938990782041 125.59667757217291 -3.736455589375964e-14
    vertex 39.38745092850368 126.01447300746887 -3.736455589375964e-14
  endloop
endfacet
facet normal 8.038231675836872e-17 -2.5854944865536793e-16 -1.0
  outer loop
    vertex 38.92938990782041 68.1824620097998 -3.736455589375964e-14
    vertex 39.38745092850368 126.01447300746887 -3.736455589375964e-14
    vertex 39.38745092850368 67.76466657450385 -3.736455589375964e-14
  endloop
endfacet
facet normal 8.038231675836872e-17 -2.5854944865536793e-16 -1.0
  outer loop
    vertex 39.38745092850368 67.76466657450385 -3.736455589375964e-14
    vertex 39.38745092850368 126.01447300746887 -3.736455589375964e-14
    vertex 39.88191325464923 126.38847826471302 -3.736455589375964e-14
  endloop
endfacet
facet normal 8.038231675836872e-17 -2.5854944865536793e-16 -1.0
  outer loop
    vertex 39.38745092850368 67.76466657450385 -3.736455589375964e-14
    vertex 39.88191325464923 126.38847826471302 -3.736455589375964e-14
    vertex 39.88191325464923 67.3906613172597 -3.736455589375964e-14
  endloop
endfacet
facet normal 8.038231675836872e-17 -2.5854944865536793e-16 -1.0
  outer loop
    vertex 39.88191325464923 67.3906613172597 -3.736455589375964e-14
    vertex 39.88191325464923 126.38847826471302 -3.736455589375964e-14
    vertex 40.4086055187878 126.71553817255884 -3.736455589375964e-14
  endloop
endfacet
facet normal 8.038231675836872e-17 -2.5854944865536793e-16 -1.0
  outer loop
    vertex 39.88191325464923 67.3906613172597 -3.736455589375964e-14
    vertex 40.4086055187878 126.71553817255884 -3.736455589375964e-14
    vertex 40.4086055187878 67.06360140941388 -3.736455589375964e-14
  endloop
endfacet
facet normal 8.038231675836872e-17 -2.5854944865536793e-16 -1.0
  outer loop
    vertex 40.4086055187878 67.06360140941388 -3.736455589375964e-14
    vertex 40.4086055187878 126.71553817255884 -3.736455589375964e-14
    vertex 40.963084456264525 126.99289359853464 -3.8069547514396615e-14
  endloop
endfacet
facet normal 8.038231675836872e-17 -2.5854944865536793e-16 -1.0
  outer loop
    vertex 40.4086055187878 67.06360140941388 -3.736455589375964e-14
    vertex 40.963084456264525 126.99289359853464 -3.8069547514396615e-14
    vertex 40.963084456264525 66.78624598343806 -3.736455589375964e-14
  endloop
endfacet
facet normal 8.038231675836872e-17 -2.5854944865536793e-16 -1.0
  outer loop
    vertex 40.963084456264525 66.78624598343806 -3.736455589375964e-14
    vertex 40.963084456264525 126.99289359853464 -3.8069547514396615e-14
    vertex 41.540672389367906 127.21820472554991 -3.8069547514396615e-14
  endloop
endfacet
facet normal 8.038231675836872e-17 -2.5854944865536793e-16 -1.0
  outer loop
    vertex 40.963084456264525 66.78624598343806 -3.736455589375964e-14
    vertex 41.540672389367906 127.21820472554991 -3.8069547514396615e-14
    vertex 41.540672389367906 66.56093485642279 -3.736455589375964e-14
  endloop
endfacet
facet normal 8.038231675836872e-17 -2.5854944865536793e-16 -1.0
  outer loop
    vertex 41.540672389367906 66.56093485642279 -3.736455589375964e-14
    vertex 41.540672389367906 127.21820472554991 -3.8069547514396615e-14
    vertex 42.13649668900696 127.38957079098635 -3.8069547514396615e-14
  endloop
endfacet
facet normal 8.038231675836872e-17 -2.5854944865536793e-16 -1.0
  outer loop
    vertex 41.540672389367906 66.56093485642279 -3.736455589375964e-14
    vertex 42.13649668900696 127.38957079098635 -3.8069547514396615e-14
    vertex 42.13649668900696 66.38956879098635 -3.736455589375964e-14
  endloop
endfacet
facet normal 8.038231675836872e-17 -2.5854944865536793e-16 -1.0
  outer loop
    vertex 42.13649668900696 66.38956879098635 -3.736455589375964e-14
    vertex 42.13649668900696 127.38957079098635 -3.8069547514396615e-14
    vertex 45.136496689006954 117.38957079098635 -3.8069547514396615e-14
  endloop
endfacet
facet normal 8.038231675836872e-17 -2.5854944865536793e-16 -1.0
  outer loop
    vertex 45.136496689006954 117.38957079098635 -3.8069547514396615e-14
    vertex 42.13649668900696 127.38957079098635 -3.8069547514396615e-14
    vertex 220.04793424758364 127.38957079098635 -3.8069547514396615e-14
  endloop
endfacet
facet normal 8.038231675836872e-17 -2.5854944865536793e-16 -1.0
  outer loop
    vertex 45.136496689006954 117.38957079098635 -3.8069547514396615e-14
    vertex 220.04793424758364 127.38957079098635 -3.8069547514396615e-14
    vertex 69.13649668900695 117.38957079098635 -3.8069547514396615e-14
  endloop
endfacet
facet normal 8.038231675836872e-17 -2.5854944865536793e-16 -1.0
  outer loop
    vertex 69.13649668900695 117.38957079098635 -3.8069547514396615e-14
    vertex 220.04793424758364 127.38957079098635 -3.8069547514396615e-14
    vertex 77.12351768900695 117.38957079098638 -3.8069547514396615e-14
  endloop
endfacet
facet normal 8.038231675836872e-17 -2.5854944865536793e-16 -1.0
  outer loop
    vertex 69.13649668900695 117.38957079098635 -3.8069547514396615e-14
    vertex 77.12351768900695 117.38957079098638 -3.8069547514396615e-14
    vertex 69.13649668900695 76.38956879098635 -3.8069547514396615e-14
  endloop
endfacet
facet normal 8.038231675836872e-17 -2.5854944865536793e-16 -1.0
  outer loop
    vertex 77.12351768900695 117.38957079098638 -3.8069547514396615e-14
    vertex 220.04793424758364 127.38957079098635 -3.8069547514396615e-14
    vertex 101.12351768900696 117.38957079098638 -3.8069547514396615e-14
  endloop
endfacet
facet normal 8.038231675836872e-17 -2.5854944865536793e-16 -1.0
  outer loop
    vertex 101.12351768900696 117.38957079098638 -3.8069547514396615e-14
    vertex 220.04793424758364 127.38957079098635 -3.8069547514396615e-14
    vertex 109.12572375125139 117.47999974962401 0.0
  endloop
endfacet
facet normal 8.038231675836872e-17 -2.5854944865536793e-16 -1.0
  outer loop
    vertex 101.12351768900696 117.38957079098638 -3.8069547514396615e-14
    vertex 109.12572375125139 117.47999974962401 0.0
    vertex 101.12351768900696 76.38956879098633 -3.8069547514396615e-14
  endloop
endfacet
facet normal 8.038231675836872e-17 -2.5854944865536793e-16 -1.0
  outer loop
    vertex 109.12572375125139 117.47999974962401 0.0
    vertex 220.04793424758364 127.38957079098635 -3.8069547514396615e-14
    vertex 133.12572375125137 117.47999974962401 0.0
  endloop
endfacet
facet normal 8.038231675836872e-17 -2.5854944865536793e-16 -1.0
  outer loop
    vertex 133.12572375125137 117.47999974962401 0.0
    vertex 220.04793424758364 127.38957079098635 -3.8069547514396615e-14
    vertex 141.1877412026314 117.39772832836557 0.0
  endloop
endfacet
facet normal 8.038231675836872e-17 -2.5854944865536793e-16 -1.0
  outer loop
    vertex 133.12572375125137 117.47999974962401 0.0
    vertex 141.1877412026314 117.39772832836557 0.0
    vertex 133.12572375125137 76.479997749624 0.0
  endloop
endfacet
facet normal 8.038231675836872e-17 -2.5854944865536793e-16 -1.0
  outer loop
    vertex 141.1877412026314 117.39772832836557 0.0
    vertex 220.04793424758364 127.38957079098635 -3.8069547514396615e-14
    vertex 165.18774120263137 117.39772832836557 0.0
  endloop
endfacet
facet normal 8.038231675836872e-17 -2.5854944865536793e-16 -1.0
  outer loop
    vertex 165.18774120263137 117.39772832836557 0.0
    vertex 220.04793424758364 127.38957079098635 -3.8069547514396615e-14
    vertex 173.0069883197629 117.32396484543919 0.0
  endloop
endfacet
facet normal 8.038231675836872e-17 -2.5854944865536793e-16 -1.0
  outer loop
    vertex 165.18774120263137 117.39772832836557 0.0
    vertex 173.0069883197629 117.32396484543919 0.0
    vertex 165.18774120263137 76.39772632836555 0.0
  endloop
endfacet
facet normal 8.038231675836872e-17 -2.5854944865536793e-16 -1.0
  outer loop
    vertex 173.0069883197629 117.32396484543919 0.0
    vertex 220.04793424758364 127.38957079098635 -3.8069547514396615e-14
    vertex 197.00698831976288 117.32396484543919 0.0
  endloop
endfacet
facet normal 8.038231675836872e-17 -2.5854944865536793e-16 -1.0
  outer loop
    vertex 197.00698831976288 117.32396484543919 0.0
    vertex 220.04793424758364 127.38957079098635 -3.8069547514396615e-14
    vertex 197.00698831976288 76.32396284543918 0.0
  endloop
endfacet
facet normal 8.038231675836872e-17 -2.5854944865536793e-16 -1.0
  outer loop
    vertex 197.00698831976288 76.32396284543918 0.0
    vertex 220.04793424758364 127.38957079098635 -3.8069547514396615e-14
    vertex 204.85793424758364 87.53234075001016 2.255973186038318e-14
  endloop
endfacet
facet normal 8.038231675836872e-17 -2.5854944865536793e-16 -1.0
  outer loop
    vertex 204.85793424758364 87.53234075001016 2.255973186038318e-14
    vertex 220.04793424758364 127.38957079098635 -3.8069547514396615e-14
    vertex 217.04793424758364 87.53234075001016 2.255973186038318e-14
  endloop
endfacet
facet normal 8.038231675836872e-17 -2.5854944865536793e-16 -1.0
  outer loop
    vertex 217.04793424758364 87.53234075001016 2.255973186038318e-14
    vertex 220.04793424758364 127.38957079098635 -3.8069547514396615e-14
    vertex 217.04793424758364 76.33234075001016 2.255973186038318e-14
  endloop
endfacet
facet normal 8.038231675836872e-17 -2.5854944865536793e-16 -1.0
  outer loop
    vertex 42.13649668900696 66.38956879098635 -3.736455589375964e-14
    vertex 45.136496689006954 76.38956879098635 -3.8069547514396615e-14
    vertex 220.04793424758364 66.38956879098635 -7.754907827006718e-15
  endloop
endfacet
facet normal 8.038231675836872e-17 -2.5854944865536793e-16 -1.0
  outer loop
    vertex 45.136496689006954 76.38956879098635 -3.8069547514396615e-14
    vertex 42.13649668900696 66.38956879098635 -3.736455589375964e-14
    vertex 45.136496689006954 117.38957079098635 -3.8069547514396615e-14
  endloop
endfacet
facet normal 8.038231675836872e-17 -2.5854944865536793e-16 -1.0
  outer loop
    vertex 220.04793424758364 66.38956879098635 -7.754907827006718e-15
    vertex 45.136496689006954 76.38956879098635 -3.8069547514396615e-14
    vertex 69.13649668900695 76.38956879098635 -3.8069547514396615e-14
  endloop
endfacet
facet normal 8.038231675836872e-17 -2.5854944865536793e-16 -1.0
  outer loop
    vertex 220.04793424758364 66.38956879098635 -7.754907827006718e-15
    vertex 69.13649668900695 76.38956879098635 -3.8069547514396615e-14
    vertex 77.12351768900695 76.38956879098633 -3.8069547514396615e-14
  endloop
endfacet
facet normal 8.038231675836872e-17 -2.5854944865536793e-16 -1.0
  outer loop
    vertex 77.12351768900695 76.38956879098633 -3.8069547514396615e-14
    vertex 69.13649668900695 76.38956879098635 -3.8069547514396615e-14
    vertex 77.12351768900695 117.38957079098638 -3.8069547514396615e-14
  endloop
endfacet
facet normal 8.038231675836872e-17 -2.5854944865536793e-16 -1.0
  outer loop
    vertex 220.04793424758364 66.38956879098635 -7.754907827006718e-15
    vertex 77.12351768900695 76.38956879098633 -3.8069547514396615e-14
    vertex 101.12351768900696 76.38956879098633 -3.8069547514396615e-14
  endloop
endfacet
facet normal 8.038231675836872e-17 -2.5854944865536793e-16 -1.0
  outer loop
    vertex 220.04793424758364 66.38956879098635 -7.754907827006718e-15
    vertex 101.12351768900696 76.38956879098633 -3.8069547514396615e-14
    vertex 109.12572375125139 76.479997749624 0.0
  endloop
endfacet
facet normal 8.038231675836872e-17 -2.5854944865536793e-16 -1.0
  outer loop
    vertex 109.12572375125139 76.479997749624 0.0
    vertex 101.12351768900696 76.38956879098633 -3.8069547514396615e-14
    vertex 109.12572375125139 117.47999974962401 0.0
  endloop
endfacet
facet normal 8.038231675836872e-17 -2.5854944865536793e-16 -1.0
  outer loop
    vertex 220.04793424758364 66.38956879098635 -7.754907827006718e-15
    vertex 109.12572375125139 76.479997749624 0.0
    vertex 133.12572375125137 76.479997749624 0.0
  endloop
endfacet
facet normal 8.038231675836872e-17 -2.5854944865536793e-16 -1.0
  outer loop
    vertex 220.04793424758364 66.38956879098635 -7.754907827006718e-15
    vertex 133.12572375125137 76.479997749624 0.0
    vertex 141.1877412026314 76.39772632836555 0.0
  endloop
endfacet
facet normal 8.038231675836872e-17 -2.5854944865536793e-16 -1.0
  outer loop
    vertex 141.1877412026314 76.39772632836555 0.0
    vertex 133.12572375125137 76.479997749624 0.0
    vertex 141.1877412026314 117.39772832836557 0.0
  endloop
endfacet
facet normal 8.038231675836872e-17 -2.5854944865536793e-16 -1.0
  outer loop
    vertex 220.04793424758364 66.38956879098635 -7.754907827006718e-15
    vertex 141.1877412026314 76.39772632836555 0.0
    vertex 165.18774120263137 76.39772632836555 0.0
  endloop
endfacet
facet normal 8.038231675836872e-17 -2.5854944865536793e-16 -1.0
  outer loop
    vertex 220.04793424758364 66.38956879098635 -7.754907827006718e-15
    vertex 165.18774120263137 76.39772632836555 0.0
    vertex 173.0069883197629 76.32396284543918 0.0
  endloop
endfacet
facet normal 8.038231675836872e-17 -2.5854944865536793e-16 -1.0
  outer loop
    vertex 173.0069883197629 76.32396284543918 0.0
    vertex 165.18774120263137 76.39772632836555 0.0
    vertex 173.0069883197629 117.32396484543919 0.0
  endloop
endfacet
facet normal 8.038231675836872e-17 -2.5854944865536793e-16 -1.0
  outer loop
    vertex 220.04793424758364 66.38956879098635 -7.754907827006718e-15
    vertex 173.0069883197629 76.32396284543918 0.0
    vertex 197.00698831976288 76.32396284543918 0.0
  endloop
endfacet
facet normal 8.038231675836872e-17 -2.5854944865536793e-16 -1.0
  outer loop
    vertex 220.04793424758364 66.38956879098635 -7.754907827006718e-15
    vertex 197.00698831976288 76.32396284543918 0.0
    vertex 204.85793424758364 76.33234075001016 2.255973186038318e-14
  endloop
endfacet
facet normal 8.038231675836872e-17 -2.5854944865536793e-16 -1.0
  outer loop
    vertex 204.85793424758364 76.33234075001016 2.255973186038318e-14
    vertex 197.00698831976288 76.32396284543918 0.0
    vertex 204.85793424758364 87.53234075001016 2.255973186038318e-14
  endloop
endfacet
facet normal 8.038231675836872e-17 -2.5854944865536793e-16 -1.0
  outer loop
    vertex 220.04793424758364 66.38956879098635 -7.754907827006718e-15
    vertex 204.85793424758364 76.33234075001016 2.255973186038318e-14
    vertex 217.04793424758364 76.33234075001016 2.255973186038318e-14
  endloop
endfacet
facet normal 8.038231675836872e-17 -2.5854944865536793e-16 -1.0
  outer loop
    vertex 220.04793424758364 66.38956879098635 -7.754907827006718e-15
    vertex 217.04793424758364 76.33234075001016 2.255973186038318e-14
    vertex 220.04793424758364 127.38957079098635 -3.8069547514396615e-14
  endloop
endfacet
facet normal 8.038231675836872e-17 -2.5854944865536793e-16 -1.0
  outer loop
    vertex 220.04793424758364 66.38956879098635 -7.754907827006718e-15
    vertex 220.04793424758364 127.38957079098635 -3.8069547514396615e-14
    vertex 220.6437585472227 127.21820472554991 -3.8069547514396615e-14
  endloop
endfacet
facet normal 8.038231675836872e-17 -2.5854944865536793e-16 -1.0
  outer loop
    vertex 220.04793424758364 66.38956879098635 -7.754907827006718e-15
    vertex 220.6437585472227 127.21820472554991 -3.8069547514396615e-14
    vertex 220.6437585472227 66.56093485642279 -7.754907827006718e-15
  endloop
endfacet
facet normal 8.038231675836872e-17 -2.5854944865536793e-16 -1.0
  outer loop
    vertex 220.6437585472227 66.56093485642279 -7.754907827006718e-15
    vertex 220.6437585472227 127.21820472554991 -3.8069547514396615e-14
    vertex 221.22134648032608 126.99289359853465 -3.736455589375964e-14
  endloop
endfacet
facet normal 8.038231675836872e-17 -2.5854944865536793e-16 -1.0
  outer loop
    vertex 220.6437585472227 66.56093485642279 -7.754907827006718e-15
    vertex 221.22134648032608 126.99289359853465 -3.736455589375964e-14
    vertex 221.22134648032608 66.78624598343806 -7.754907827006718e-15
  endloop
endfacet
facet normal 8.038231675836872e-17 -2.5854944865536793e-16 -1.0
  outer loop
    vertex 221.22134648032608 66.78624598343806 -7.754907827006718e-15
    vertex 221.22134648032608 126.99289359853465 -3.736455589375964e-14
    vertex 221.7758254178028 126.71553817255884 -3.736455589375964e-14
  endloop
endfacet
facet normal 8.038231675836872e-17 -2.5854944865536793e-16 -1.0
  outer loop
    vertex 221.22134648032608 66.78624598343806 -7.754907827006718e-15
    vertex 221.7758254178028 126.71553817255884 -3.736455589375964e-14
    vertex 221.7758254178028 67.06360140941388 -7.754907827006718e-15
  endloop
endfacet
facet normal 8.038231675836872e-17 -2.5854944865536793e-16 -1.0
  outer loop
    vertex 221.7758254178028 67.06360140941388 -7.754907827006718e-15
    vertex 221.7758254178028 126.71553817255884 -3.736455589375964e-14
    vertex 222.30251768194137 126.38847826471302 -3.736455589375964e-14
  endloop
endfacet
facet normal 8.038231675836872e-17 -2.5854944865536793e-16 -1.0
  outer loop
    vertex 221.7758254178028 67.06360140941388 -7.754907827006718e-15
    vertex 222.30251768194137 126.38847826471302 -3.736455589375964e-14
    vertex 222.30251768194137 67.39066131725968 -7.754907827006718e-15
  endloop
endfacet
facet normal 8.038231675836872e-17 -2.5854944865536793e-16 -1.0
  outer loop
    vertex 222.30251768194137 67.39066131725968 -7.754907827006718e-15
    vertex 222.30251768194137 126.38847826471302 -3.736455589375964e-14
    vertex 222.79698000808693 126.01447300746888 -3.736455589375964e-14
  endloop
endfacet
facet normal 8.038231675836872e-17 -2.5854944865536793e-16 -1.0
  outer loop
    vertex 222.30251768194137 67.39066131725968 -7.754907827006718e-15
    vertex 222.79698000808693 126.01447300746888 -3.736455589375964e-14
    vertex 222.79698000808693 67.76466657450383 -7.754907827006718e-15
  endloop
endfacet
facet normal 8.038231675836872e-17 -2.5854944865536793e-16 -1.0
  outer loop
    vertex 222.79698000808693 67.76466657450383 -7.754907827006718e-15
    vertex 222.79698000808693 126.01447300746888 -3.736455589375964e-14
    vertex 223.2550410287702 125.59667757217291 -3.736455589375964e-14
  endloop
endfacet
facet normal 8.038231675836872e-17 -2.5854944865536793e-16 -1.0
  outer loop
    vertex 222.79698000808693 67.76466657450383 -7.754907827006718e-15
    vertex 223.2550410287702 125.59667757217291 -3.736455589375964e-14
    vertex 223.2550410287702 68.18246200979979 -7.754907827006718e-15
  endloop
endfacet
facet normal 8.038231675836872e-17 -2.5854944865536793e-16 -1.0
  outer loop
    vertex 223.2550410287702 68.18246200979979 -7.754907827006718e-15
    vertex 223.2550410287702 125.59667757217291 -3.736455589375964e-14
    vertex 223.67283646406617 125.13861655148966 -3.736455589375964e-14
  endloop
endfacet
facet normal 8.038231675836872e-17 -2.5854944865536793e-16 -1.0
  outer loop
    vertex 223.2550410287702 68.18246200979979 -7.754907827006718e-15
    vertex 223.67283646406617 125.13861655148966 -3.736455589375964e-14
    vertex 223.67283646406617 68.64052303048307 -7.754907827006718e-15
  endloop
endfacet
facet normal 8.038231675836872e-17 -2.5854944865536793e-16 -1.0
  outer loop
    vertex 223.67283646406617 68.64052303048307 -7.754907827006718e-15
    vertex 223.67283646406617 125.13861655148966 -3.736455589375964e-14
    vertex 224.0468417213103 124.64415422534411 -3.736455589375964e-14
  endloop
endfacet
facet normal 8.038231675836872e-17 -2.5854944865536793e-16 -1.0
  outer loop
    vertex 223.67283646406617 68.64052303048307 -7.754907827006718e-15
    vertex 224.0468417213103 124.64415422534411 -3.736455589375964e-14
    vertex 224.0468417213103 69.1349853566286 -7.754907827006718e-15
  endloop
endfacet
facet normal 8.038231675836872e-17 -2.5854944865536793e-16 -1.0
  outer loop
    vertex 224.0468417213103 69.1349853566286 -7.754907827006718e-15
    vertex 224.0468417213103 124.64415422534411 -3.736455589375964e-14
    vertex 224.3739016291561 124.11746196120554 -3.736455589375964e-14
  endloop
endfacet
facet normal 8.038231675836872e-17 -2.5854944865536793e-16 -1.0
  outer loop
    vertex 224.0468417213103 69.1349853566286 -7.754907827006718e-15
    vertex 224.3739016291561 124.11746196120554 -3.736455589375964e-14
    vertex 224.3739016291561 69.6616776207672 -7.754907827006718e-15
  endloop
endfacet
facet normal 8.038231675836872e-17 -2.5854944865536793e-16 -1.0
  outer loop
    vertex 224.3739016291561 69.6616776207672 -7.754907827006718e-15
    vertex 224.3739016291561 124.11746196120554 -3.736455589375964e-14
    vertex 224.6512570551319 123.5629830237288 -3.736455589375964e-14
  endloop
endfacet
facet normal 8.038231675836872e-17 -2.5854944865536793e-16 -1.0
  outer loop
    vertex 224.3739016291561 69.6616776207672 -7.754907827006718e-15
    vertex 224.6512570551319 123.5629830237288 -3.736455589375964e-14
    vertex 224.65125705513194 70.21615655824391 -7.754907827006718e-15
  endloop
endfacet
facet normal 8.038231675836872e-17 -2.5854944865536793e-16 -1.0
  outer loop
    vertex 224.65125705513194 70.21615655824391 -7.754907827006718e-15
    vertex 224.6512570551319 123.5629830237288 -3.736455589375964e-14
    vertex 224.8765681821472 122.98539509062543 -3.736455589375964e-14
  endloop
endfacet
facet normal 8.038231675836872e-17 -2.5854944865536793e-16 -1.0
  outer loop
    vertex 224.65125705513194 70.21615655824391 -7.754907827006718e-15
    vertex 224.8765681821472 122.98539509062543 -3.736455589375964e-14
    vertex 224.8765681821472 70.7937444913473 -7.754907827006718e-15
  endloop
endfacet
facet normal 8.038231675836872e-17 -2.5854944865536793e-16 -1.0
  outer loop
    vertex 224.8765681821472 70.7937444913473 -7.754907827006718e-15
    vertex 224.8765681821472 122.98539509062543 -3.736455589375964e-14
    vertex 225.04793424758364 122.38957079098637 -3.736455589375964e-14
  endloop
endfacet
facet normal 8.038231675836872e-17 -2.5854944865536793e-16 -1.0
  outer loop
    vertex 224.8765681821472 70.7937444913473 -7.754907827006718e-15
    vertex 225.04793424758364 122.38957079098637 -3.736455589375964e-14
    vertex 225.04793424758364 71.38956879098635 -7.754907827006718e-15
  endloop
endfacet
facet normal 0.27640661438787656 0.9610407814045312 -2.2625836013563093e-16
  outer loop
    vertex 220.04793424758364 127.38957079098635 2.9999999999999623
    vertex 220.6437585472227 127.21820472554991 -3.8069547514396615e-14
    vertex 220.04793424758364 127.38957079098635 -3.8069547514396615e-14
  endloop
endfacet
facet normal 0.27640661438787656 0.9610407814045312 -2.2625836013563093e-16
  outer loop
    vertex 220.6437585472227 127.21820472554991 -3.8069547514396615e-14
    vertex 220.04793424758364 127.38957079098635 2.9999999999999623
    vertex 220.6437585472227 127.21820472554991 2.9999999999999623
  endloop
endfacet
facet normal 0.0 1.0 -2.58549448655368e-16
  outer loop
    vertex 42.13649668900696 127.38957079098635 2.9999999999999623
    vertex 220.04793424758364 127.38957079098635 -3.8069547514396615e-14
    vertex 42.13649668900696 127.38957079098635 -3.8069547514396615e-14
  endloop
endfacet
facet normal 0.0 1.0 -2.58549448655368e-16
  outer loop
    vertex 220.04793424758364 127.38957079098635 -3.8069547514396615e-14
    vertex 42.13649668900696 127.38957079098635 2.9999999999999623
    vertex 220.04793424758364 127.38957079098635 2.9999999999999623
  endloop
endfacet
facet normal -0.27640661438788133 0.9610407814045296 -2.706947681993001e-16
  outer loop
    vertex 41.540672389367906 127.21820472554991 2.9999999999999623
    vertex 42.13649668900696 127.38957079098635 -3.8069547514396615e-14
    vertex 41.540672389367906 127.21820472554991 -3.8069547514396615e-14
  endloop
endfacet
facet normal -0.27640661438788133 0.9610407814045296 -2.706947681993001e-16
  outer loop
    vertex 42.13649668900696 127.38957079098635 -3.8069547514396615e-14
    vertex 41.540672389367906 127.21820472554991 2.9999999999999623
    vertex 42.13649668900696 127.38957079098635 2.9999999999999623
  endloop
endfacet
facet normal -0.36341784263763754 0.9316262510538255 -2.700838217053755e-16
  outer loop
    vertex 40.963084456264525 126.99289359853464 2.9999999999999623
    vertex 41.540672389367906 127.21820472554991 -3.8069547514396615e-14
    vertex 40.963084456264525 126.99289359853464 -3.8069547514396615e-14
  endloop
endfacet
facet normal -0.36341784263763754 0.9316262510538255 -2.700838217053755e-16
  outer loop
    vertex 41.540672389367906 127.21820472554991 -3.8069547514396615e-14
    vertex 40.963084456264525 126.99289359853464 2.9999999999999623
    vertex 41.540672389367906 127.21820472554991 2.9999999999999623
  endloop
endfacet
facet normal -0.4473632167537355 0.8943523647286624 -2.671944025993617e-16
  outer loop
    vertex 40.4086055187878 126.71553817255884 -3.736455589375964e-14
    vertex 40.963084456264525 126.99289359853464 2.9999999999999623
    vertex 40.963084456264525 126.99289359853464 -3.8069547514396615e-14
  endloop
endfacet
facet normal -0.4473632167537355 0.8943523647286624 -2.671944025993617e-16
  outer loop
    vertex 40.963084456264525 126.99289359853464 2.9999999999999623
    vertex 40.4086055187878 126.71553817255884 -3.736455589375964e-14
    vertex 40.4086055187878 126.71553817255884 2.9999999999999627
  endloop
endfacet
facet normal -0.5275345594207023 0.8495335712123481 -2.620508865075197e-16
  outer loop
    vertex 39.88191325464923 126.38847826471302 2.9999999999999627
    vertex 40.4086055187878 126.71553817255884 -3.736455589375964e-14
    vertex 39.88191325464923 126.38847826471302 -3.736455589375964e-14
  endloop
endfacet
facet normal -0.5275345594207023 0.8495335712123481 -2.620508865075197e-16
  outer loop
    vertex 40.4086055187878 126.71553817255884 -3.736455589375964e-14
    vertex 39.88191325464923 126.38847826471302 2.9999999999999627
    vertex 40.4086055187878 126.71553817255884 2.9999999999999627
  endloop
endfacet
facet normal -0.6032555316879037 0.7975479693961641 -2.5469666499796167e-16
  outer loop
    vertex 39.38745092850368 126.01447300746887 2.9999999999999627
    vertex 39.88191325464923 126.38847826471302 -3.736455589375964e-14
    vertex 39.38745092850368 126.01447300746887 -3.736455589375964e-14
  endloop
endfacet
facet normal -0.6032555316879037 0.7975479693961641 -2.5469666499796167e-16
  outer loop
    vertex 39.88191325464923 126.38847826471302 -3.736455589375964e-14
    vertex 39.38745092850368 126.01447300746887 2.9999999999999627
    vertex 39.88191325464923 126.38847826471302 2.9999999999999627
  endloop
endfacet
facet normal -0.6738873386790389 0.7388341185733657 -2.4519377952207104e-16
  outer loop
    vertex 38.92938990782041 125.59667757217291 2.9999999999999627
    vertex 39.38745092850368 126.01447300746887 -3.736455589375964e-14
    vertex 38.92938990782041 125.59667757217291 -3.736455589375964e-14
  endloop
endfacet
facet normal -0.6738873386790389 0.7388341185733657 -2.4519377952207104e-16
  outer loop
    vertex 39.38745092850368 126.01447300746887 -3.736455589375964e-14
    vertex 38.92938990782041 125.59667757217291 2.9999999999999627
    vertex 39.38745092850368 126.01447300746887 2.9999999999999627
  endloop
endfacet
facet normal -0.7388341185733653 0.6738873386790394 -2.336223980223532e-16
  outer loop
    vertex 38.92938990782041 125.59667757217291 2.9999999999999627
    vertex 38.51159447252446 125.13861655148963 -3.736455589375964e-14
    vertex 38.51159447252446 125.13861655148963 2.9999999999999627
  endloop
endfacet
facet normal -0.7388341185733653 0.6738873386790394 -2.336223980223532e-16
  outer loop
    vertex 38.51159447252446 125.13861655148963 -3.736455589375964e-14
    vertex 38.92938990782041 125.59667757217291 2.9999999999999627
    vertex 38.92938990782041 125.59667757217291 -3.736455589375964e-14
  endloop
endfacet
facet normal -0.7975479693961685 0.6032555316878978 -2.2008013862220337e-16
  outer loop
    vertex 38.51159447252446 125.13861655148963 2.9999999999999627
    vertex 38.1375892152803 124.64415422534408 -3.665956427312267e-14
    vertex 38.1375892152803 124.64415422534408 2.9999999999999636
  endloop
endfacet
facet normal -0.7975479693961685 0.6032555316878978 -2.2008013862220337e-16
  outer loop
    vertex 38.1375892152803 124.64415422534408 -3.665956427312267e-14
    vertex 38.51159447252446 125.13861655148963 2.9999999999999627
    vertex 38.51159447252446 125.13861655148963 -3.736455589375964e-14
  endloop
endfacet
facet normal -0.8495335712123365 0.527534559420721 -2.0468124610293806e-16
  outer loop
    vertex 38.1375892152803 124.64415422534408 2.9999999999999636
    vertex 37.810529307434486 124.11746196120554 -3.665956427312267e-14
    vertex 37.810529307434486 124.11746196120554 2.9999999999999636
  endloop
endfacet
facet normal -0.8495335712123365 0.527534559420721 -2.0468124610293806e-16
  outer loop
    vertex 37.810529307434486 124.11746196120554 -3.665956427312267e-14
    vertex 38.1375892152803 124.64415422534408 2.9999999999999636
    vertex 38.1375892152803 124.64415422534408 -3.665956427312267e-14
  endloop
endfacet
facet normal -0.894352364728657 0.4473632167537464 -1.8755562811558803e-16
  outer loop
    vertex 37.810529307434486 124.11746196120554 2.9999999999999636
    vertex 37.53317388145867 123.5629830237288 -3.665956427312267e-14
    vertex 37.53317388145867 123.5629830237288 2.9999999999999636
  endloop
endfacet
facet normal -0.894352364728657 0.4473632167537464 -1.8755562811558803e-16
  outer loop
    vertex 37.53317388145867 123.5629830237288 -3.665956427312267e-14
    vertex 37.810529307434486 124.11746196120554 2.9999999999999636
    vertex 37.810529307434486 124.11746196120554 -3.665956427312267e-14
  endloop
endfacet
facet normal -0.9316262510538339 0.3634178426376156 -1.688477592580996e-16
  outer loop
    vertex 37.53317388145867 123.5629830237288 2.9999999999999636
    vertex 37.3078627544434 122.98539509062542 -3.665956427312267e-14
    vertex 37.3078627544434 122.98539509062542 2.9999999999999636
  endloop
endfacet
facet normal -0.9316262510538339 0.3634178426376156 -1.688477592580996e-16
  outer loop
    vertex 37.3078627544434 122.98539509062542 -3.665956427312267e-14
    vertex 37.53317388145867 123.5629830237288 2.9999999999999636
    vertex 37.53317388145867 123.5629830237288 -3.665956427312267e-14
  endloop
endfacet
facet normal -0.9610407814045284 0.2764066143878862 -1.4871546226325385e-16
  outer loop
    vertex 37.3078627544434 122.98539509062542 2.9999999999999636
    vertex 37.136496689006954 122.38957079098637 -3.665956427312267e-14
    vertex 37.136496689006954 122.38957079098637 2.9999999999999636
  endloop
endfacet
facet normal -0.9610407814045284 0.2764066143878862 -1.4871546226325385e-16
  outer loop
    vertex 37.136496689006954 122.38957079098637 -3.665956427312267e-14
    vertex 37.3078627544434 122.98539509062542 2.9999999999999636
    vertex 37.3078627544434 122.98539509062542 -3.665956427312267e-14
  endloop
endfacet
facet normal -1.0 2.222308138812895e-33 -8.038231675836872e-17
  outer loop
    vertex 37.136496689006954 122.38957079098637 2.9999999999999636
    vertex 37.136496689006954 71.38956879098635 -3.8069547514396615e-14
    vertex 37.136496689006954 71.38956879098635 2.9999999999999623
  endloop
endfacet
facet normal -1.0 2.222308138812895e-33 -8.038231675836872e-17
  outer loop
    vertex 37.136496689006954 71.38956879098635 -3.8069547514396615e-14
    vertex 37.136496689006954 122.38957079098637 2.9999999999999636
    vertex 37.136496689006954 122.38957079098637 -3.665956427312267e-14
  endloop
endfacet
facet normal -0.9610407814045296 -0.27640661438788133 -5.785906753885478e-18
  outer loop
    vertex 37.136496689006954 71.38956879098635 2.9999999999999623
    vertex 37.3078627544434 70.7937444913473 -3.8069547514396615e-14
    vertex 37.3078627544434 70.7937444913473 2.9999999999999623
  endloop
endfacet
facet normal -0.9610407814045296 -0.27640661438788133 -5.785906753885478e-18
  outer loop
    vertex 37.3078627544434 70.7937444913473 -3.8069547514396615e-14
    vertex 37.136496689006954 71.38956879098635 2.9999999999999623
    vertex 37.136496689006954 71.38956879098635 -3.8069547514396615e-14
  endloop
endfacet
facet normal -0.9316262510538286 -0.36341784263762966 1.907520643286203e-17
  outer loop
    vertex 37.3078627544434 70.7937444913473 2.9999999999999623
    vertex 37.53317388145868 70.21615655824392 -3.8069547514396615e-14
    vertex 37.53317388145868 70.21615655824392 2.9999999999999623
  endloop
endfacet
facet normal -0.9316262510538286 -0.36341784263762966 1.907520643286203e-17
  outer loop
    vertex 37.53317388145868 70.21615655824392 -3.8069547514396615e-14
    vertex 37.3078627544434 70.7937444913473 2.9999999999999623
    vertex 37.3078627544434 70.7937444913473 -3.8069547514396615e-14
  endloop
endfacet
facet normal -0.8943523647286569 -0.4473632167537464 4.3775397965157986e-17
  outer loop
    vertex 37.53317388145868 70.21615655824392 2.9999999999999623
    vertex 37.810529307434486 69.6616776207672 -3.736455589375964e-14
    vertex 37.810529307434486 69.6616776207672 2.9999999999999627
  endloop
endfacet
facet normal -0.8943523647286569 -0.4473632167537464 4.3775397965157986e-17
  outer loop
    vertex 37.810529307434486 69.6616776207672 -3.736455589375964e-14
    vertex 37.53317388145868 70.21615655824392 2.9999999999999623
    vertex 37.53317388145868 70.21615655824392 -3.8069547514396615e-14
  endloop
endfacet
facet normal -0.8495335712123466 -0.5275345594207047 6.810629286681661e-17
  outer loop
    vertex 37.810529307434486 69.6616776207672 2.9999999999999627
    vertex 38.1375892152803 69.13498535662862 -3.736455589375964e-14
    vertex 38.1375892152803 69.13498535662862 2.9999999999999627
  endloop
endfacet
facet normal -0.8495335712123466 -0.5275345594207047 6.810629286681661e-17
  outer loop
    vertex 38.1375892152803 69.13498535662862 -3.736455589375964e-14
    vertex 37.810529307434486 69.6616776207672 2.9999999999999627
    vertex 37.810529307434486 69.6616776207672 -3.736455589375964e-14
  endloop
endfacet
facet normal -0.7975479693961685 -0.6032555316878978 9.186263161021023e-17
  outer loop
    vertex 38.1375892152803 69.13498535662862 2.9999999999999627
    vertex 38.51159447252446 68.64052303048307 -3.736455589375964e-14
    vertex 38.51159447252446 68.64052303048307 2.9999999999999627
  endloop
endfacet
facet normal -0.7975479693961685 -0.6032555316878978 9.186263161021023e-17
  outer loop
    vertex 38.51159447252446 68.64052303048307 -3.736455589375964e-14
    vertex 38.1375892152803 69.13498535662862 2.9999999999999627
    vertex 38.1375892152803 69.13498535662862 -3.736455589375964e-14
  endloop
endfacet
facet normal -0.7388341185733571 -0.6738873386790485 1.1484400172024746e-16
  outer loop
    vertex 38.51159447252446 68.64052303048307 2.9999999999999627
    vertex 38.92938990782041 68.1824620097998 -3.736455589375964e-14
    vertex 38.92938990782041 68.1824620097998 2.9999999999999627
  endloop
endfacet
facet normal -0.7388341185733571 -0.6738873386790485 1.1484400172024746e-16
  outer loop
    vertex 38.92938990782041 68.1824620097998 -3.736455589375964e-14
    vertex 38.51159447252446 68.64052303048307 2.9999999999999627
    vertex 38.51159447252446 68.64052303048307 -3.736455589375964e-14
  endloop
endfacet
facet normal -0.6738873386790489 -0.7388341185733567 1.368565284877627e-16
  outer loop
    vertex 39.38745092850368 67.76466657450385 2.9999999999999627
    vertex 38.92938990782041 68.1824620097998 -3.736455589375964e-14
    vertex 39.38745092850368 67.76466657450385 -3.736455589375964e-14
  endloop
endfacet
facet normal -0.6738873386790489 -0.7388341185733567 1.368565284877627e-16
  outer loop
    vertex 38.92938990782041 68.1824620097998 -3.736455589375964e-14
    vertex 39.38745092850368 67.76466657450385 2.9999999999999627
    vertex 38.92938990782041 68.1824620097998 2.9999999999999627
  endloop
endfacet
facet normal -0.603255531687892 -0.7975479693961728 1.5771451052921447e-16
  outer loop
    vertex 39.88191325464923 67.3906613172597 2.9999999999999627
    vertex 39.38745092850368 67.76466657450385 -3.736455589375964e-14
    vertex 39.88191325464923 67.3906613172597 -3.736455589375964e-14
  endloop
endfacet
facet normal -0.603255531687892 -0.7975479693961728 1.5771451052921447e-16
  outer loop
    vertex 39.38745092850368 67.76466657450385 -3.736455589375964e-14
    vertex 39.88191325464923 67.3906613172597 2.9999999999999627
    vertex 39.38745092850368 67.76466657450385 2.9999999999999627
  endloop
endfacet
facet normal -0.5275345594207154 -0.84953357121234 1.7724198639483384e-16
  outer loop
    vertex 40.4086055187878 67.06360140941388 2.9999999999999627
    vertex 39.88191325464923 67.3906613172597 -3.736455589375964e-14
    vertex 40.4086055187878 67.06360140941388 -3.736455589375964e-14
  endloop
endfacet
facet normal -0.5275345594207154 -0.84953357121234 1.7724198639483384e-16
  outer loop
    vertex 39.88191325464923 67.3906613172597 -3.736455589375964e-14
    vertex 40.4086055187878 67.06360140941388 2.9999999999999627
    vertex 39.88191325464923 67.3906613172597 2.9999999999999627
  endloop
endfacet
facet normal -0.44736321675375007 -0.8943523647286552 1.9527421900907565e-16
  outer loop
    vertex 40.963084456264525 66.78624598343806 2.9999999999999627
    vertex 40.4086055187878 67.06360140941388 -3.736455589375964e-14
    vertex 40.963084456264525 66.78624598343806 -3.736455589375964e-14
  endloop
endfacet
facet normal -0.44736321675375007 -0.8943523647286552 1.9527421900907565e-16
  outer loop
    vertex 40.4086055187878 67.06360140941388 -3.736455589375964e-14
    vertex 40.963084456264525 66.78624598343806 2.9999999999999627
    vertex 40.4086055187878 67.06360140941388 2.9999999999999627
  endloop
endfacet
facet normal -0.3634178426376218 -0.9316262510538316 2.1165908542029522e-16
  outer loop
    vertex 41.540672389367906 66.56093485642279 2.9999999999999627
    vertex 40.963084456264525 66.78624598343806 -3.736455589375964e-14
    vertex 41.540672389367906 66.56093485642279 -3.736455589375964e-14
  endloop
endfacet
facet normal -0.3634178426376218 -0.9316262510538316 2.1165908542029522e-16
  outer loop
    vertex 40.963084456264525 66.78624598343806 -3.736455589375964e-14
    vertex 41.540672389367906 66.56093485642279 2.9999999999999627
    vertex 40.963084456264525 66.78624598343806 2.9999999999999627
  endloop
endfacet
facet normal -0.27640661438788133 -0.9610407814045296 2.262583601356302e-16
  outer loop
    vertex 42.13649668900696 66.38956879098635 2.9999999999999627
    vertex 41.540672389367906 66.56093485642279 -3.736455589375964e-14
    vertex 42.13649668900696 66.38956879098635 -3.736455589375964e-14
  endloop
endfacet
facet normal -0.27640661438788133 -0.9610407814045296 2.262583601356302e-16
  outer loop
    vertex 41.540672389367906 66.56093485642279 -3.736455589375964e-14
    vertex 42.13649668900696 66.38956879098635 2.9999999999999627
    vertex 41.540672389367906 66.56093485642279 2.9999999999999627
  endloop
endfacet
facet normal 0.36341784263762794 -0.9316262510538292 2.700838217053757e-16
  outer loop
    vertex 221.22134648032608 66.78624598343806 2.9999999999999925
    vertex 220.6437585472227 66.56093485642279 -7.754907827006718e-15
    vertex 221.22134648032608 66.78624598343806 -7.754907827006718e-15
  endloop
endfacet
facet normal 0.36341784263762794 -0.9316262510538292 2.700838217053757e-16
  outer loop
    vertex 220.6437585472227 66.56093485642279 -7.754907827006718e-15
    vertex 221.22134648032608 66.78624598343806 2.9999999999999925
    vertex 220.6437585472227 66.56093485642279 2.9999999999999925
  endloop
endfacet
facet normal 0.4473632167537464 -0.894352364728657 2.671944025993612e-16
  outer loop
    vertex 221.7758254178028 67.06360140941388 2.9999999999999925
    vertex 221.22134648032608 66.78624598343806 -7.754907827006718e-15
    vertex 221.7758254178028 67.06360140941388 -7.754907827006718e-15
  endloop
endfacet
facet normal 0.4473632167537464 -0.894352364728657 2.671944025993612e-16
  outer loop
    vertex 221.22134648032608 66.78624598343806 -7.754907827006718e-15
    vertex 221.7758254178028 67.06360140941388 2.9999999999999925
    vertex 221.22134648032608 66.78624598343806 2.9999999999999925
  endloop
endfacet
facet normal 0.5275345594207144 -0.8495335712123404 2.6205088650751874e-16
  outer loop
    vertex 222.30251768194137 67.39066131725968 2.9999999999999925
    vertex 221.7758254178028 67.06360140941388 -7.754907827006718e-15
    vertex 222.30251768194137 67.39066131725968 -7.754907827006718e-15
  endloop
endfacet
facet normal 0.5275345594207144 -0.8495335712123404 2.6205088650751874e-16
  outer loop
    vertex 221.7758254178028 67.06360140941388 -7.754907827006718e-15
    vertex 222.30251768194137 67.39066131725968 2.9999999999999925
    vertex 221.7758254178028 67.06360140941388 2.9999999999999925
  endloop
endfacet
facet normal 0.6032555316878746 -0.7975479693961861 2.54696664997965e-16
  outer loop
    vertex 222.79698000808693 67.76466657450383 2.9999999999999925
    vertex 222.30251768194137 67.39066131725968 -7.754907827006718e-15
    vertex 222.79698000808693 67.76466657450383 -7.754907827006718e-15
  endloop
endfacet
facet normal 0.6032555316878746 -0.7975479693961861 2.54696664997965e-16
  outer loop
    vertex 222.30251768194137 67.39066131725968 -7.754907827006718e-15
    vertex 222.79698000808693 67.76466657450383 2.9999999999999925
    vertex 222.30251768194137 67.39066131725968 2.9999999999999925
  endloop
endfacet
facet normal 0.6738873386790444 -0.7388341185733608 2.451937795220702e-16
  outer loop
    vertex 223.2550410287702 68.18246200979979 2.9999999999999925
    vertex 222.79698000808693 67.76466657450383 -7.754907827006718e-15
    vertex 223.2550410287702 68.18246200979979 -7.754907827006718e-15
  endloop
endfacet
facet normal 0.6738873386790444 -0.7388341185733608 2.451937795220702e-16
  outer loop
    vertex 222.79698000808693 67.76466657450383 -7.754907827006718e-15
    vertex 223.2550410287702 68.18246200979979 2.9999999999999925
    vertex 222.79698000808693 67.76466657450383 2.9999999999999925
  endloop
endfacet
facet normal 0.7388341185733616 -0.6738873386790435 2.33622398022354e-16
  outer loop
    vertex 223.67283646406617 68.64052303048307 -7.754907827006718e-15
    vertex 223.2550410287702 68.18246200979979 2.9999999999999925
    vertex 223.2550410287702 68.18246200979979 -7.754907827006718e-15
  endloop
endfacet
facet normal 0.7388341185733616 -0.6738873386790435 2.33622398022354e-16
  outer loop
    vertex 223.2550410287702 68.18246200979979 2.9999999999999925
    vertex 223.67283646406617 68.64052303048307 -7.754907827006718e-15
    vertex 223.67283646406617 68.64052303048307 2.9999999999999925
  endloop
endfacet
facet normal 0.7975479693961641 -0.6032555316879037 2.2008013862220455e-16
  outer loop
    vertex 224.0468417213103 69.1349853566286 -7.754907827006718e-15
    vertex 223.67283646406617 68.64052303048307 2.9999999999999925
    vertex 223.67283646406617 68.64052303048307 -7.754907827006718e-15
  endloop
endfacet
facet normal 0.7975479693961641 -0.6032555316879037 2.2008013862220455e-16
  outer loop
    vertex 223.67283646406617 68.64052303048307 2.9999999999999925
    vertex 224.0468417213103 69.1349853566286 -7.754907827006718e-15
    vertex 224.0468417213103 69.1349853566286 2.9999999999999925
  endloop
endfacet
facet normal 0.849533571212367 -0.5275345594206718 2.046812461029278e-16
  outer loop
    vertex 224.3739016291561 69.6616776207672 -7.754907827006718e-15
    vertex 224.0468417213103 69.1349853566286 2.9999999999999925
    vertex 224.0468417213103 69.1349853566286 -7.754907827006718e-15
  endloop
endfacet
facet normal 0.849533571212367 -0.5275345594206718 2.046812461029278e-16
  outer loop
    vertex 224.0468417213103 69.1349853566286 2.9999999999999925
    vertex 224.3739016291561 69.6616776207672 -7.754907827006718e-15
    vertex 224.3739016291561 69.6616776207672 2.9999999999999925
  endloop
endfacet
facet normal 0.8943523647286314 -0.4473632167537973 1.8755562811559913e-16
  outer loop
    vertex 224.65125705513194 70.21615655824391 -7.754907827006718e-15
    vertex 224.3739016291561 69.6616776207672 2.9999999999999925
    vertex 224.3739016291561 69.6616776207672 -7.754907827006718e-15
  endloop
endfacet
facet normal 0.8943523647286314 -0.4473632167537973 1.8755562811559913e-16
  outer loop
    vertex 224.3739016291561 69.6616776207672 2.9999999999999925
    vertex 224.65125705513194 70.21615655824391 -7.754907827006718e-15
    vertex 224.65125705513194 70.21615655824391 2.9999999999999925
  endloop
endfacet
facet normal 0.9316262510538402 -0.36341784263759985 1.6884775925809605e-16
  outer loop
    vertex 224.8765681821472 70.7937444913473 -7.754907827006718e-15
    vertex 224.65125705513194 70.21615655824391 2.9999999999999925
    vertex 224.65125705513194 70.21615655824391 -7.754907827006718e-15
  endloop
endfacet
facet normal 0.9316262510538402 -0.36341784263759985 1.6884775925809605e-16
  outer loop
    vertex 224.65125705513194 70.21615655824391 2.9999999999999925
    vertex 224.8765681821472 70.7937444913473 -7.754907827006718e-15
    vertex 224.8765681821472 70.7937444913473 2.9999999999999925
  endloop
endfacet
facet normal 0.9610407814045395 -0.2764066143878478 1.487154622632448e-16
  outer loop
    vertex 225.04793424758364 71.38956879098635 -7.754907827006718e-15
    vertex 224.8765681821472 70.7937444913473 2.9999999999999925
    vertex 224.8765681821472 70.7937444913473 -7.754907827006718e-15
  endloop
endfacet
facet normal 0.9610407814045395 -0.2764066143878478 1.487154622632448e-16
  outer loop
    vertex 224.8765681821472 70.7937444913473 2.9999999999999925
    vertex 225.04793424758364 71.38956879098635 -7.754907827006718e-15
    vertex 225.04793424758364 71.38956879098635 2.9999999999999925
  endloop
endfacet
facet normal 1.0 4.66684709150708e-32 8.038231675836872e-17
  outer loop
    vertex 225.04793424758364 122.38957079098637 -3.736455589375964e-14
    vertex 225.04793424758364 71.38956879098635 2.9999999999999925
    vertex 225.04793424758364 71.38956879098635 -7.754907827006718e-15
  endloop
endfacet
facet normal 1.0 4.66684709150708e-32 8.038231675836872e-17
  outer loop
    vertex 225.04793424758364 71.38956879098635 2.9999999999999925
    vertex 225.04793424758364 122.38957079098637 -3.736455589375964e-14
    vertex 225.04793424758364 122.38957079098637 2.9999999999999627
  endloop
endfacet
facet normal 0.9610407814045409 0.276406614387843 5.785906753896308e-18
  outer loop
    vertex 224.8765681821472 122.98539509062543 -3.736455589375964e-14
    vertex 225.04793424758364 122.38957079098637 2.9999999999999627
    vertex 225.04793424758364 122.38957079098637 -3.736455589375964e-14
  endloop
endfacet
facet normal 0.9610407814045409 0.276406614387843 5.785906753896308e-18
  outer loop
    vertex 225.04793424758364 122.38957079098637 2.9999999999999627
    vertex 224.8765681821472 122.98539509062543 -3.736455589375964e-14
    vertex 224.8765681821472 122.98539509062543 2.9999999999999627
  endloop
endfacet
facet normal 0.9316262510538108 0.36341784263767535 -1.9075206432875264e-17
  outer loop
    vertex 224.6512570551319 123.5629830237288 -3.736455589375964e-14
    vertex 224.8765681821472 122.98539509062543 2.9999999999999627
    vertex 224.8765681821472 122.98539509062543 -3.736455589375964e-14
  endloop
endfacet
facet normal 0.9316262510538108 0.36341784263767535 -1.9075206432875264e-17
  outer loop
    vertex 224.8765681821472 122.98539509062543 2.9999999999999627
    vertex 224.6512570551319 123.5629830237288 -3.736455589375964e-14
    vertex 224.6512570551319 123.5629830237288 2.9999999999999627
  endloop
endfacet
facet normal 0.8943523647286642 0.44736321675373186 -4.3775397965153635e-17
  outer loop
    vertex 224.3739016291561 124.11746196120554 -3.736455589375964e-14
    vertex 224.6512570551319 123.5629830237288 2.9999999999999627
    vertex 224.6512570551319 123.5629830237288 -3.736455589375964e-14
  endloop
endfacet
facet normal 0.8943523647286642 0.44736321675373186 -4.3775397965153635e-17
  outer loop
    vertex 224.6512570551319 123.5629830237288 2.9999999999999627
    vertex 224.3739016291561 124.11746196120554 -3.736455589375964e-14
    vertex 224.3739016291561 124.11746196120554 2.9999999999999627
  endloop
endfacet
facet normal 0.849533571212367 0.5275345594206718 -6.810629286680648e-17
  outer loop
    vertex 224.0468417213103 124.64415422534411 -3.736455589375964e-14
    vertex 224.3739016291561 124.11746196120554 2.9999999999999627
    vertex 224.3739016291561 124.11746196120554 -3.736455589375964e-14
  endloop
endfacet
facet normal 0.849533571212367 0.5275345594206718 -6.810629286680648e-17
  outer loop
    vertex 224.3739016291561 124.11746196120554 2.9999999999999627
    vertex 224.0468417213103 124.64415422534411 -3.736455589375964e-14
    vertex 224.0468417213103 124.64415422534411 2.9999999999999627
  endloop
endfacet
facet normal 0.7975479693961641 0.6032555316879037 -9.18626316102121e-17
  outer loop
    vertex 223.67283646406617 125.13861655148966 -3.736455589375964e-14
    vertex 224.0468417213103 124.64415422534411 2.9999999999999627
    vertex 224.0468417213103 124.64415422534411 -3.736455589375964e-14
  endloop
endfacet
facet normal 0.7975479693961641 0.6032555316879037 -9.18626316102121e-17
  outer loop
    vertex 224.0468417213103 124.64415422534411 2.9999999999999627
    vertex 223.67283646406617 125.13861655148966 -3.736455589375964e-14
    vertex 223.67283646406617 125.13861655148966 2.9999999999999627
  endloop
endfacet
facet normal 0.7388341185733533 0.6738873386790526 -1.1484400172024881e-16
  outer loop
    vertex 223.2550410287702 125.59667757217291 -3.736455589375964e-14
    vertex 223.67283646406617 125.13861655148966 2.9999999999999627
    vertex 223.67283646406617 125.13861655148966 -3.736455589375964e-14
  endloop
endfacet
facet normal 0.7388341185733533 0.6738873386790526 -1.1484400172024881e-16
  outer loop
    vertex 223.67283646406617 125.13861655148966 2.9999999999999627
    vertex 223.2550410287702 125.59667757217291 -3.736455589375964e-14
    vertex 223.2550410287702 125.59667757217291 2.9999999999999627
  endloop
endfacet
facet normal 0.6738873386790544 0.7388341185733518 -1.36856528487761e-16
  outer loop
    vertex 222.79698000808693 126.01447300746888 2.9999999999999627
    vertex 223.2550410287702 125.59667757217291 -3.736455589375964e-14
    vertex 222.79698000808693 126.01447300746888 -3.736455589375964e-14
  endloop
endfacet
facet normal 0.6738873386790544 0.7388341185733518 -1.36856528487761e-16
  outer loop
    vertex 223.2550410287702 125.59667757217291 -3.736455589375964e-14
    vertex 222.79698000808693 126.01447300746888 2.9999999999999627
    vertex 223.2550410287702 125.59667757217291 2.9999999999999627
  endloop
endfacet
facet normal 0.603255531687863 0.7975479693961949 -1.577145105292225e-16
  outer loop
    vertex 222.30251768194137 126.38847826471302 2.9999999999999627
    vertex 222.79698000808693 126.01447300746888 -3.736455589375964e-14
    vertex 222.30251768194137 126.38847826471302 -3.736455589375964e-14
  endloop
endfacet
facet normal 0.603255531687863 0.7975479693961949 -1.577145105292225e-16
  outer loop
    vertex 222.79698000808693 126.01447300746888 -3.736455589375964e-14
    vertex 222.30251768194137 126.38847826471302 2.9999999999999627
    vertex 222.79698000808693 126.01447300746888 2.9999999999999627
  endloop
endfacet
facet normal 0.5275345594207144 0.8495335712123404 -1.77241986394834e-16
  outer loop
    vertex 221.7758254178028 126.71553817255884 2.9999999999999627
    vertex 222.30251768194137 126.38847826471302 -3.736455589375964e-14
    vertex 221.7758254178028 126.71553817255884 -3.736455589375964e-14
  endloop
endfacet
facet normal 0.5275345594207144 0.8495335712123404 -1.77241986394834e-16
  outer loop
    vertex 222.30251768194137 126.38847826471302 -3.736455589375964e-14
    vertex 221.7758254178028 126.71553817255884 2.9999999999999627
    vertex 222.30251768194137 126.38847826471302 2.9999999999999627
  endloop
endfacet
facet normal 0.44736321675376095 0.8943523647286497 -1.952742190090733e-16
  outer loop
    vertex 221.22134648032608 126.99289359853465 2.9999999999999627
    vertex 221.7758254178028 126.71553817255884 -3.736455589375964e-14
    vertex 221.22134648032608 126.99289359853465 -3.736455589375964e-14
  endloop
endfacet
facet normal 0.44736321675376095 0.8943523647286497 -1.952742190090733e-16
  outer loop
    vertex 221.7758254178028 126.71553817255884 -3.736455589375964e-14
    vertex 221.22134648032608 126.99289359853465 2.9999999999999627
    vertex 221.7758254178028 126.71553817255884 2.9999999999999627
  endloop
endfacet
facet normal 0.3634178426376121 0.9316262510538353 -2.11659085420297e-16
  outer loop
    vertex 220.6437585472227 127.21820472554991 2.9999999999999623
    vertex 221.22134648032608 126.99289359853465 -3.736455589375964e-14
    vertex 220.6437585472227 127.21820472554991 -3.8069547514396615e-14
  endloop
endfacet
facet normal 0.3634178426376121 0.9316262510538353 -2.11659085420297e-16
  outer loop
    vertex 221.22134648032608 126.99289359853465 -3.736455589375964e-14
    vertex 220.6437585472227 127.21820472554991 2.9999999999999623
    vertex 221.22134648032608 126.99289359853465 2.9999999999999627
  endloop
endfacet
facet normal 0.0 -1.0 2.585494486553679e-16
  outer loop
    vertex 101.12351768900696 117.38957079098638 2.9999999999999623
    vertex 77.12351768900695 117.38957079098638 -3.8069547514396615e-14
    vertex 101.12351768900696 117.38957079098638 -3.8069547514396615e-14
  endloop
endfacet
facet normal 0.0 -1.0 2.585494486553679e-16
  outer loop
    vertex 77.12351768900695 117.38957079098638 -3.8069547514396615e-14
    vertex 101.12351768900696 117.38957079098638 2.9999999999999623
    vertex 77.12351768900695 117.38957079098638 2.9999999999999623
  endloop
endfacet
facet normal -1.0 -0.0 -8.038231675836872e-17
  outer loop
    vertex 101.12351768900696 117.38957079098638 2.9999999999999623
    vertex 101.12351768900696 76.38956879098633 -3.8069547514396615e-14
    vertex 101.12351768900696 76.38956879098633 2.9999999999999623
  endloop
endfacet
facet normal -1.0 -0.0 -8.038231675836872e-17
  outer loop
    vertex 101.12351768900696 76.38956879098633 -3.8069547514396615e-14
    vertex 101.12351768900696 117.38957079098638 2.9999999999999623
    vertex 101.12351768900696 117.38957079098638 -3.8069547514396615e-14
  endloop
endfacet
facet normal 0.0 1.0 -2.585494486553679e-16
  outer loop
    vertex 77.12351768900695 76.38956879098633 2.9999999999999623
    vertex 101.12351768900696 76.38956879098633 -3.8069547514396615e-14
    vertex 77.12351768900695 76.38956879098633 -3.8069547514396615e-14
  endloop
endfacet
facet normal 0.0 1.0 -2.585494486553679e-16
  outer loop
    vertex 101.12351768900696 76.38956879098633 -3.8069547514396615e-14
    vertex 77.12351768900695 76.38956879098633 2.9999999999999623
    vertex 101.12351768900696 76.38956879098633 2.9999999999999623
  endloop
endfacet
facet normal 1.0 0.0 8.038231675836872e-17
  outer loop
    vertex 77.12351768900695 117.38957079098638 -3.8069547514396615e-14
    vertex 77.12351768900695 76.38956879098633 2.9999999999999623
    vertex 77.12351768900695 76.38956879098633 -3.8069547514396615e-14
  endloop
endfacet
facet normal 1.0 0.0 8.038231675836872e-17
  outer loop
    vertex 77.12351768900695 76.38956879098633 2.9999999999999623
    vertex 77.12351768900695 117.38957079098638 -3.8069547514396615e-14
    vertex 77.12351768900695 117.38957079098638 2.9999999999999623
  endloop
endfacet
facet normal 0.0 -1.0 2.5854944865536793e-16
  outer loop
    vertex 133.12572375125137 117.47999974962401 3.0
    vertex 109.12572375125139 117.47999974962401 0.0
    vertex 133.12572375125137 117.47999974962401 0.0
  endloop
endfacet
facet normal 0.0 -1.0 2.5854944865536793e-16
  outer loop
    vertex 109.12572375125139 117.47999974962401 0.0
    vertex 133.12572375125137 117.47999974962401 3.0
    vertex 109.12572375125139 117.47999974962401 3.0
  endloop
endfacet
facet normal -1.0 -0.0 -8.038231675836872e-17
  outer loop
    vertex 133.12572375125137 117.47999974962401 3.0
    vertex 133.12572375125137 76.479997749624 0.0
    vertex 133.12572375125137 76.479997749624 3.0
  endloop
endfacet
facet normal -1.0 -0.0 -8.038231675836872e-17
  outer loop
    vertex 133.12572375125137 76.479997749624 0.0
    vertex 133.12572375125137 117.47999974962401 3.0
    vertex 133.12572375125137 117.47999974962401 0.0
  endloop
endfacet
facet normal 0.0 1.0 -2.5854944865536793e-16
  outer loop
    vertex 109.12572375125139 76.479997749624 3.0
    vertex 133.12572375125137 76.479997749624 0.0
    vertex 109.12572375125139 76.479997749624 0.0
  endloop
endfacet
facet normal 0.0 1.0 -2.5854944865536793e-16
  outer loop
    vertex 133.12572375125137 76.479997749624 0.0
    vertex 109.12572375125139 76.479997749624 3.0
    vertex 133.12572375125137 76.479997749624 3.0
  endloop
endfacet
facet normal 1.0 0.0 8.038231675836872e-17
  outer loop
    vertex 109.12572375125139 117.47999974962401 0.0
    vertex 109.12572375125139 76.479997749624 3.0
    vertex 109.12572375125139 76.479997749624 0.0
  endloop
endfacet
facet normal 1.0 0.0 8.038231675836872e-17
  outer loop
    vertex 109.12572375125139 76.479997749624 3.0
    vertex 109.12572375125139 117.47999974962401 0.0
    vertex 109.12572375125139 117.47999974962401 3.0
  endloop
endfacet
facet normal 0.0 -1.0 2.5854944865536793e-16
  outer loop
    vertex 165.18774120263137 117.39772832836557 3.0
    vertex 141.1877412026314 117.39772832836557 0.0
    vertex 165.18774120263137 117.39772832836557 0.0
  endloop
endfacet
facet normal 0.0 -1.0 2.5854944865536793e-16
  outer loop
    vertex 141.1877412026314 117.39772832836557 0.0
    vertex 165.18774120263137 117.39772832836557 3.0
    vertex 141.1877412026314 117.39772832836557 3.0
  endloop
endfacet
facet normal -1.0 -0.0 -8.038231675836872e-17
  outer loop
    vertex 165.18774120263137 117.39772832836557 3.0
    vertex 165.18774120263137 76.39772632836555 0.0
    vertex 165.18774120263137 76.39772632836555 3.0
  endloop
endfacet
facet normal -1.0 -0.0 -8.038231675836872e-17
  outer loop
    vertex 165.18774120263137 76.39772632836555 0.0
    vertex 165.18774120263137 117.39772832836557 3.0
    vertex 165.18774120263137 117.39772832836557 0.0
  endloop
endfacet
facet normal 0.0 1.0 -2.5854944865536793e-16
  outer loop
    vertex 141.1877412026314 76.39772632836555 3.0
    vertex 165.18774120263137 76.39772632836555 0.0
    vertex 141.1877412026314 76.39772632836555 0.0
  endloop
endfacet
facet normal 0.0 1.0 -2.5854944865536793e-16
  outer loop
    vertex 165.18774120263137 76.39772632836555 0.0
    vertex 141.1877412026314 76.39772632836555 3.0
    vertex 165.18774120263137 76.39772632836555 3.0
  endloop
endfacet
facet normal 1.0 0.0 8.038231675836872e-17
  outer loop
    vertex 141.1877412026314 117.39772832836557 0.0
    vertex 141.1877412026314 76.39772632836555 3.0
    vertex 141.1877412026314 76.39772632836555 0.0
  endloop
endfacet
facet normal 1.0 0.0 8.038231675836872e-17
  outer loop
    vertex 141.1877412026314 76.39772632836555 3.0
    vertex 141.1877412026314 117.39772832836557 0.0
    vertex 141.1877412026314 117.39772832836557 3.0
  endloop
endfacet
facet normal -1.0 -0.0 -8.038231675836873e-17
  outer loop
    vertex 217.04793424758364 87.53234075001016 3.0000000000000226
    vertex 217.04793424758364 76.33234075001016 2.255973186038318e-14
    vertex 217.04793424758364 76.33234075001016 3.0000000000000226
  endloop
endfacet
facet normal -1.0 -0.0 -8.038231675836873e-17
  outer loop
    vertex 217.04793424758364 76.33234075001016 2.255973186038318e-14
    vertex 217.04793424758364 87.53234075001016 3.0000000000000226
    vertex 217.04793424758364 87.53234075001016 2.255973186038318e-14
  endloop
endfacet
facet normal 0.0 1.0 -2.58549448655368e-16
  outer loop
    vertex 204.85793424758364 76.33234075001016 3.0000000000000226
    vertex 217.04793424758364 76.33234075001016 2.255973186038318e-14
    vertex 204.85793424758364 76.33234075001016 2.255973186038318e-14
  endloop
endfacet
facet normal 0.0 1.0 -2.58549448655368e-16
  outer loop
    vertex 217.04793424758364 76.33234075001016 2.255973186038318e-14
    vertex 204.85793424758364 76.33234075001016 3.0000000000000226
    vertex 217.04793424758364 76.33234075001016 3.0000000000000226
  endloop
endfacet
facet normal 1.0 0.0 8.038231675836873e-17
  outer loop
    vertex 204.85793424758364 87.53234075001016 2.255973186038318e-14
    vertex 204.85793424758364 76.33234075001016 3.0000000000000226
    vertex 204.85793424758364 76.33234075001016 2.255973186038318e-14
  endloop
endfacet
facet normal 1.0 0.0 8.038231675836873e-17
  outer loop
    vertex 204.85793424758364 76.33234075001016 3.0000000000000226
    vertex 204.85793424758364 87.53234075001016 2.255973186038318e-14
    vertex 204.85793424758364 87.53234075001016 3.0000000000000226
  endloop
endfacet
facet normal 0.0 -1.0 2.58549448655368e-16
  outer loop
    vertex 217.04793424758364 87.53234075001016 3.0000000000000226
    vertex 204.85793424758364 87.53234075001016 2.255973186038318e-14
    vertex 217.04793424758364 87.53234075001016 2.255973186038318e-14
  endloop
endfacet
facet normal 0.0 -1.0 2.58549448655368e-16
  outer loop
    vertex 204.85793424758364 87.53234075001016 2.255973186038318e-14
    vertex 217.04793424758364 87.53234075001016 3.0000000000000226
    vertex 204.85793424758364 87.53234075001016 3.0000000000000226
  endloop
endfacet
facet normal 1.0 0.0 8.038231675836872e-17
  outer loop
    vertex 45.136496689006954 117.38957079098635 -3.8069547514396615e-14
    vertex 45.136496689006954 76.38956879098635 2.9999999999999623
    vertex 45.136496689006954 76.38956879098635 -3.8069547514396615e-14
  endloop
endfacet
facet normal 1.0 0.0 8.038231675836872e-17
  outer loop
    vertex 45.136496689006954 76.38956879098635 2.9999999999999623
    vertex 45.136496689006954 117.38957079098635 -3.8069547514396615e-14
    vertex 45.136496689006954 117.38957079098635 2.9999999999999623
  endloop
endfacet
facet normal 0.0 -1.0 2.58549448655368e-16
  outer loop
    vertex 69.13649668900695 117.38957079098635 2.9999999999999623
    vertex 45.136496689006954 117.38957079098635 -3.8069547514396615e-14
    vertex 69.13649668900695 117.38957079098635 -3.8069547514396615e-14
  endloop
endfacet
facet normal 0.0 -1.0 2.58549448655368e-16
  outer loop
    vertex 45.136496689006954 117.38957079098635 -3.8069547514396615e-14
    vertex 69.13649668900695 117.38957079098635 2.9999999999999623
    vertex 45.136496689006954 117.38957079098635 2.9999999999999623
  endloop
endfacet
facet normal -1.0 -0.0 -8.038231675836872e-17
  outer loop
    vertex 69.13649668900695 117.38957079098635 2.9999999999999623
    vertex 69.13649668900695 76.38956879098635 -3.8069547514396615e-14
    vertex 69.13649668900695 76.38956879098635 2.9999999999999623
  endloop
endfacet
facet normal -1.0 -0.0 -8.038231675836872e-17
  outer loop
    vertex 69.13649668900695 76.38956879098635 -3.8069547514396615e-14
    vertex 69.13649668900695 117.38957079098635 2.9999999999999623
    vertex 69.13649668900695 117.38957079098635 -3.8069547514396615e-14
  endloop
endfacet
facet normal 0.0 1.0 -2.58549448655368e-16
  outer loop
    vertex 45.136496689006954 76.38956879098635 2.9999999999999623
    vertex 69.13649668900695 76.38956879098635 -3.8069547514396615e-14
    vertex 45.136496689006954 76.38956879098635 -3.8069547514396615e-14
  endloop
endfacet
facet normal 0.0 1.0 -2.58549448655368e-16
  outer loop
    vertex 69.13649668900695 76.38956879098635 -3.8069547514396615e-14
    vertex 45.136496689006954 76.38956879098635 2.9999999999999623
    vertex 69.13649668900695 76.38956879098635 2.9999999999999623
  endloop
endfacet
facet normal 0.0 -1.0 2.5854944865536793e-16
  outer loop
    vertex 197.00698831976288 117.32396484543919 3.0
    vertex 173.0069883197629 117.32396484543919 0.0
    vertex 197.00698831976288 117.32396484543919 0.0
  endloop
endfacet
facet normal 0.0 -1.0 2.5854944865536793e-16
  outer loop
    vertex 173.0069883197629 117.32396484543919 0.0
    vertex 197.00698831976288 117.32396484543919 3.0
    vertex 173.0069883197629 117.32396484543919 3.0
  endloop
endfacet
facet normal -1.0 -0.0 -8.038231675836872e-17
  outer loop
    vertex 197.00698831976288 117.32396484543919 3.0
    vertex 197.00698831976288 76.32396284543918 0.0
    vertex 197.00698831976288 76.32396284543918 3.0
  endloop
endfacet
facet normal -1.0 -0.0 -8.038231675836872e-17
  outer loop
    vertex 197.00698831976288 76.32396284543918 0.0
    vertex 197.00698831976288 117.32396484543919 3.0
    vertex 197.00698831976288 117.32396484543919 0.0
  endloop
endfacet
facet normal 0.0 1.0 -2.5854944865536793e-16
  outer loop
    vertex 173.0069883197629 76.32396284543918 3.0
    vertex 197.00698831976288 76.32396284543918 0.0
    vertex 173.0069883197629 76.32396284543918 0.0
  endloop
endfacet
facet normal 0.0 1.0 -2.5854944865536793e-16
  outer loop
    vertex 197.00698831976288 76.32396284543918 0.0
    vertex 173.0069883197629 76.32396284543918 3.0
    vertex 197.00698831976288 76.32396284543918 3.0
  endloop
endfacet
facet normal 1.0 0.0 8.038231675836872e-17
  outer loop
    vertex 173.0069883197629 117.32396484543919 0.0
    vertex 173.0069883197629 76.32396284543918 3.0
    vertex 173.0069883197629 76.32396284543918 0.0
  endloop
endfacet
facet normal 1.0 0.0 8.038231675836872e-17
  outer loop
    vertex 173.0069883197629 76.32396284543918 3.0
    vertex 173.0069883197629 117.32396484543919 0.0
    vertex 173.0069883197629 117.32396484543919 3.0
  endloop
endfacet
facet normal -4.30301631395558e-32 -1.0 2.58549448655368e-16
  outer loop
    vertex 220.04793424758364 66.38956879098635 -7.754907827006718e-15
    vertex 42.13649668900696 66.38956879098635 2.9999999999999627
    vertex 42.13649668900696 66.38956879098635 -3.736455589375964e-14
  endloop
endfacet
facet normal -4.30301631395558e-32 -1.0 2.58549448655368e-16
  outer loop
    vertex 42.13649668900696 66.38956879098635 2.9999999999999627
    vertex 220.04793424758364 66.38956879098635 -7.754907827006718e-15
    vertex 220.04793424758364 66.38956879098635 2.9999999999999925
  endloop
endfacet
facet normal 0.27640661438787656 -0.9610407814045312 2.706947681993001e-16
  outer loop
    vertex 220.6437585472227 66.56093485642279 2.9999999999999925
    vertex 220.04793424758364 66.38956879098635 -7.754907827006718e-15
    vertex 220.6437585472227 66.56093485642279 -7.754907827006718e-15
  endloop
endfacet
facet normal 0.27640661438787656 -0.9610407814045312 2.706947681993001e-16
  outer loop
    vertex 220.04793424758364 66.38956879098635 -7.754907827006718e-15
    vertex 220.6437585472227 66.56093485642279 2.9999999999999925
    vertex 220.04793424758364 66.38956879098635 2.9999999999999925
  endloop
endfacet
endsolid switchPanel
